<svg width="479" height="480" xmlns="http://www.w3.org/2000/svg" xmlns:xlink="http://www.w3.org/1999/xlink" xml:space="preserve" overflow="hidden"><defs><clipPath id="clip0"><rect x="86" y="120" width="479" height="480"/></clipPath><clipPath id="clip1"><rect x="87" y="121" width="478" height="478"/></clipPath><clipPath id="clip2"><rect x="87" y="121" width="478" height="479"/></clipPath></defs><g clip-path="url(#clip0)" transform="translate(-86 -120)"><g clip-path="url(#clip1)"><g clip-path="url(#clip2)"><path d="M558.321 88.7394C536.62 67.0378 498.733 67.0059 477 88.7394L197.526 368.203C182.906 382.847 171.72 400.962 165.164 420.589L144.614 482.243C142.696 487.984 144.193 494.32 148.469 498.596 151.515 501.646 155.603 503.275 159.767 503.275 161.453 503.275 163.169 503.01 164.823 502.456L226.485 481.906C246.128 475.354 264.243 464.157 278.863 449.525L558.326 170.061C569.187 159.201 575.177 144.76 575.177 129.394 575.177 114.032 569.187 99.5915 558.326 88.731ZM535.729 147.469 256.266 426.933C245.124 438.082 231.335 446.608 216.369 451.591L185.022 462.039 195.461 430.7C200.452 415.743 208.99 401.945 220.128 390.788L499.592 111.335C504.43 106.504 510.842 103.844 517.662 103.844 524.495 103.844 530.91 106.496 535.729 111.335 540.564 116.157 543.22 122.576 543.22 129.397 543.22 136.222 540.564 142.633 535.729 147.464Z" fill="#FFFFFF" fill-rule="nonzero" fill-opacity="1" transform="matrix(1 0 0 1.00275 -38.8485 74.9173)"/></g></g></g></svg>