<svg width="357" height="348" xmlns="http://www.w3.org/2000/svg" xmlns:xlink="http://www.w3.org/1999/xlink" xml:space="preserve" overflow="hidden"><defs><clipPath id="clip0"><rect x="148" y="140" width="357" height="348"/></clipPath><clipPath id="clip1"><rect x="149" y="140" width="356" height="347"/></clipPath><clipPath id="clip2"><rect x="149" y="140" width="356" height="347"/></clipPath></defs><g clip-path="url(#clip0)" transform="translate(-148 -140)"><g clip-path="url(#clip1)"><g clip-path="url(#clip2)"><path d="M404.117 183.009C404.117 181.732 403.693 180.455 403.265 179.177 402.84 178.752 402.413 177.9 401.988 177.475 401.563 177.05 401.563 176.623 401.136 176.198L347.085 121.722C343.253 117.89 337.295 117.89 333.466 121.722 329.634 125.553 329.634 132.79 333.466 136.618L371.346 175.775 182.804 175.773C177.697 175.773 173.014 180.029 173.014 185.562 173.014 190.668 177.27 195.352 182.804 195.352L371.346 195.352 333.466 232.38C329.634 236.212 329.634 241.743 333.466 245.574 337.297 249.406 343.256 248.978 347.085 245.149L401.563 190.671C401.988 190.246 402.416 189.818 402.416 188.969 402.84 188.544 403.268 188.116 403.268 187.266 404.117 185.562 404.117 184.285 404.117 183.007Z" fill="#FFFFFF" fill-rule="nonzero" fill-opacity="1" transform="matrix(1.00075 0 0 1 86.2765 121.015)"/><path d="M277.287 250.261 277.287 325.168 104.06 325.168 104.06 55.7543 277.287 55.7543 277.287 125.982 296.439 125.982 296.439 55.7543C296.439 45.1144 288.354 36.6018 278.564 36.6018L102.785 36.6018C92.9956 36.6018 84.9098 45.1144 84.9098 55.7543L84.9098 325.168C84.9098 335.808 92.9949 344.321 102.785 344.321L278.564 344.321C288.354 344.321 296.439 335.808 296.439 325.168L296.442 250.261Z" fill="#FFFFFF" fill-rule="nonzero" fill-opacity="1" transform="matrix(1.00075 0 0 1 86.2765 121.015)"/><path d="M14.2577-0.855022C13.5229-0.470262 12.756-0.181689 11.9598 0.0106707 11.1608 0.203051 10.3299 0.299244 9.46954 0.299244 6.88313 0.299244 4.83375-0.419522 3.32405-1.85965 1.81176-3.30519 1.05824-5.26373 1.05824-7.73795 1.05824-10.2175 1.81176-12.1787 3.32405-13.6269 4.83368-15.0725 6.88306-15.7966 9.46954-15.7966 10.3299-15.7966 11.1609-15.6951 11.9598-15.4973 12.756-15.305 13.5229-15.019 14.2577-14.6423L14.2577-11.4253C13.5149-11.9303 12.7854-12.3016 12.0667-12.5368 11.3453-12.772 10.5864-12.8895 9.79021-12.8895 8.36341-12.8895 7.24115-12.4326 6.42354-11.5215 5.60327-10.6077 5.19443-9.34648 5.19443-7.73802 5.19443-6.14025 5.60324-4.88439 6.42354-3.96528 7.24115-3.0515 8.36334-2.59724 9.79021-2.59724 10.5865-2.59724 11.3453-2.71481 12.0667-2.94993 12.7854-3.18507 13.5149-3.55379 14.2577-4.06146Z" fill="#FFFFFF" fill-rule="nonzero" fill-opacity="1" transform="matrix(1.00075 0 0 1 134.194 567.906)"/><path d="M10.4313-8.46472C10.1026-8.61971 9.77933-8.73456 9.45866-8.80672 9.13806-8.87622 8.81206-8.91357 8.48606-8.91357 7.52953-8.91357 6.79202-8.60631 6.27367-7.99445 5.76066-7.37986 5.50415-6.50347 5.50415-5.36519L5.50415 0.000102603 1.78481 0.000102603 1.78481-11.6392 5.50415-11.6392 5.50415-9.72604C5.97976-10.4875 6.53018-11.0433 7.15003-11.3933 7.76996-11.7407 8.51273-11.917 9.38376-11.917 9.50401-11.917 9.63493-11.909 9.77919-11.8956 9.92885-11.8876 10.1426-11.8663 10.4205-11.8315Z" fill="#FFFFFF" fill-rule="nonzero" fill-opacity="1" transform="matrix(1.00075 0 0 1 149.823 567.906)"/><path d="M13.4026-5.84623 13.4026-4.78812 4.70262-4.78812C4.79346-3.91709 5.11143-3.26242 5.65381-2.82157 6.19354-2.38604 6.94969-2.16962 7.91962-2.16962 8.70248-2.16962 9.50408-2.28184 10.3244-2.51163 11.142-2.74676 11.9863-3.09946 12.8573-3.56974L12.8573-0.705414C11.9729-0.368747 11.0885-0.120257 10.2068 0.0427648 9.33041 0.213769 8.45398 0.299271 7.57755 0.299271 5.46674 0.299271 3.82879-0.235117 2.66117-1.30393 1.49889-2.37271 0.919046-3.87166 0.919046-5.80346 0.919046-7.70587 1.48817-9.19682 2.62909-10.2817 3.77537-11.3719 5.35449-11.9169 7.36379-11.9169 9.19408-11.9169 10.6583-11.3638 11.7565-10.2603 12.852-9.16207 13.4024-7.68986 13.4024-5.84621ZM9.57638-7.08601C9.57638-7.79137 9.36796-8.36054 8.95652-8.79605 8.55035-9.2289 8.01066-9.44799 7.34265-9.44799 6.62119-9.44799 6.03875-9.24491 5.58982-8.8388 5.1409-8.4327 4.85772-7.84753 4.74547-7.08601Z" fill="#FFFFFF" fill-rule="nonzero" fill-opacity="1" transform="matrix(1.00075 0 0 1 160.326 567.906)"/><path d="M7.00023-5.23697C6.22271-5.23697 5.63754-5.10338 5.24744-4.84153 4.86268-4.57701 4.6703-4.18958 4.6703-3.67658 4.6703-3.20632 4.82527-2.8349 5.14056-2.56505 5.45318-2.30053 5.89141-2.16961 6.45517-2.16961 7.1525-2.16961 7.74034-2.4181 8.21867-2.91779 8.69427-3.42278 8.93477-4.05339 8.93477-4.8095L8.93477-5.23702ZM12.6861-6.63709 12.6861 0 8.9347 0 8.9347-1.72071C8.43503-1.01536 7.87126-0.502342 7.246-0.181675 6.62611 0.138958 5.86996 0.299271 4.98019 0.299271 3.77516 0.299271 2.79455-0.0480796 2.04104-0.748096 1.29286-1.45345 0.918841-2.3673 0.918841-3.49484 0.918841-4.85487 1.38376-5.85148 2.31896-6.48741 3.25948-7.12869 4.73436-7.44929 6.74373-7.44929L8.9347-7.44929 8.9347-7.73788C8.9347-8.32832 8.70227-8.75857 8.24002-9.03108 7.77509-9.30893 7.05366-9.44785 6.07038-9.44785 5.27145-9.44785 4.52601-9.36502 3.83665-9.20209 3.15264-9.04442 2.51671-8.80659 1.93426-8.48599L1.93426-11.3289C2.73053-11.5212 3.52939-11.6655 4.32833-11.7671 5.13259-11.8659 5.93686-11.9167 6.74373-11.9167 8.84387-11.9167 10.3589-11.5026 11.286-10.6769 12.2185-9.84862 12.6861-8.50193 12.6861-6.63697Z" fill="#FFFFFF" fill-rule="nonzero" fill-opacity="1" transform="matrix(1.00075 0 0 1 174.768 567.906)"/><path d="M5.84623-14.9417 5.84623-11.6392 9.68316-11.6392 9.68316-8.97793 5.84623-8.97793 5.84623-4.04015C5.84623-3.49774 5.95311-3.13171 6.16686-2.93929 6.38596-2.75225 6.81347-2.66141 7.44936-2.66141L9.36249-2.66141 9.36249-0.000171004 6.16686-0.000171004C4.69732-0.000171004 3.65789-0.304771 3.04603-0.919354 2.43148-1.53123 2.12685-2.57064 2.12685-4.04018L2.12685-8.97793 0.277882-8.97793 0.277882-11.6392 2.12685-11.6392 2.12685-14.9417Z" fill="#FFFFFF" fill-rule="nonzero" fill-opacity="1" transform="matrix(1.00075 0 0 1 189.141 567.906)"/><path d="M13.4026-5.84623 13.4026-4.78812 4.70262-4.78812C4.79346-3.91709 5.11143-3.26242 5.65381-2.82157 6.19354-2.38604 6.94969-2.16962 7.91962-2.16962 8.70248-2.16962 9.50408-2.28184 10.3244-2.51163 11.142-2.74676 11.9863-3.09946 12.8573-3.56974L12.8573-0.705414C11.9729-0.368747 11.0885-0.120257 10.2068 0.0427648 9.33041 0.213769 8.45398 0.299271 7.57755 0.299271 5.46674 0.299271 3.82879-0.235117 2.66117-1.30393 1.49889-2.37271 0.919046-3.87166 0.919046-5.80346 0.919046-7.70587 1.48817-9.19682 2.62909-10.2817 3.77537-11.3719 5.35449-11.9169 7.36379-11.9169 9.19408-11.9169 10.6583-11.3638 11.7565-10.2603 12.852-9.16207 13.4024-7.68986 13.4024-5.84621ZM9.57638-7.08601C9.57638-7.79137 9.36796-8.36054 8.95652-8.79605 8.55035-9.2289 8.01066-9.44799 7.34265-9.44799 6.62119-9.44799 6.03875-9.24491 5.58982-8.8388 5.1409-8.4327 4.85772-7.84753 4.74547-7.08601Z" fill="#FFFFFF" fill-rule="nonzero" fill-opacity="1" transform="matrix(1.00075 0 0 1 199.32 567.906)"/><path d="M9.70484-9.9292 9.70484-16.1709 13.4456-16.1709 13.4456 0 9.70484 0 9.70484-1.67796C9.19183-0.993946 8.62539-0.491603 8.00547-0.171004 7.39094 0.141612 6.68018 0.299258 5.86791 0.299258 4.43572 0.299258 3.25476-0.269865 2.33024-1.41079 1.41106-2.54906 0.951537-4.01327 0.951537-5.80348 0.951537-7.59902 1.41111-9.0659 2.33024-10.2068 3.25476-11.3451 4.43572-11.9169 5.86791-11.9169 6.67218-11.9169 7.38561-11.7565 8.00547-11.436 8.62532-11.1153 9.19183-10.613 9.70484-9.92899ZM7.25736-2.40501C8.04822-2.40501 8.65214-2.69358 9.07424-3.2707 9.49375-3.85318 9.70484-4.69749 9.70484-5.80368 9.70484-6.91521 9.49375-7.75956 9.07424-8.33667 8.65207-8.91918 8.04822-9.21303 7.25736-9.21303 6.4665-9.21303 5.85991-8.91911 5.44047-8.33667 5.0183-7.75956 4.80989-6.91521 4.80989-5.80368 4.80989-4.69749 5.0183-3.85314 5.44047-3.2707 5.85996-2.69356 6.4665-2.40501 7.25736-2.40501Z" fill="#FFFFFF" fill-rule="nonzero" fill-opacity="1" transform="matrix(1.00075 0 0 1 213.765 567.906)"/><path d="M7.98385-2.40473C8.77471-2.40473 9.37863-2.6933 9.80074-3.27042 10.2202-3.85291 10.4313-4.69722 10.4313-5.80341 10.4313-6.91494 10.2202-7.75929 9.80074-8.33639 9.37856-8.9189 8.77471-9.21276 7.98385-9.21276 7.18492-9.21276 6.57307-8.91883 6.14555-8.33639 5.71804-7.75122 5.50429-6.90693 5.50429-5.80341 5.50429-4.70522 5.71804-3.8636 6.14555-3.28109 6.57307-2.69594 7.18492-2.40473 7.98385-2.40473ZM5.50429-9.92892C6.0173-10.6129 6.58374-11.1153 7.20366-11.4359 7.82892-11.7565 8.55035-11.9168 9.36256-11.9168 10.7948-11.9168 11.9704-11.345 12.8895-10.2068 13.814-9.06583 14.2789-7.59895 14.2789-5.80342 14.2789-4.01321 13.8139-2.549 12.8895-1.41073 11.9703-0.26979 10.7947 0.299312 9.36256 0.299312 8.55029 0.299312 7.82885 0.138992 7.20366-0.181634 6.58377-0.502267 6.0173-0.99924 5.50429-1.67792L5.50429 4.1041e-05 1.78494 4.1041e-05 1.78494-16.1708 5.50429-16.1708Z" fill="#FFFFFF" fill-rule="nonzero" fill-opacity="1" transform="matrix(1.00075 0 0 1 236.424 567.906)"/><path d="M0.256507-11.6392 3.97585-11.6392 7.10735-3.74089 9.76859-11.6392 13.4879-11.6392 8.59297 1.10058C8.10137 2.39646 7.52686 3.3023 6.87225 3.81531 6.21496 4.33367 5.35456 4.5955 4.28585 4.5955L2.12695 4.5955 2.12695 2.14802 3.2919 2.14802C3.92515 2.14802 4.38476 2.04648 4.67061 1.84876 4.95383 1.64837 5.17828 1.28766 5.34394 0.769314L5.44013 0.448681Z" fill="#FFFFFF" fill-rule="nonzero" fill-opacity="1" transform="matrix(1.00075 0 0 1 251.668 567.906)"/><path d="M12.7508-15.0272 12.7508-11.746C11.8957-12.1228 11.0621-12.4087 10.2499-12.601 9.44293-12.7935 8.68141-12.8896 7.96265-12.8896 7.00612-12.8896 6.29802-12.756 5.83576-12.4942 5.37886-12.2377 5.15175-11.8315 5.15175-11.2758 5.15175-10.8536 5.30405-10.5276 5.61132-10.2925 5.92394-10.0627 6.48235-9.8677 7.2893-9.7047L8.99934-9.36269C10.7227-9.01268 11.9492-8.48633 12.6759-7.7809 13.4027-7.07548 13.7661-6.07085 13.7661-4.76697 13.7661-3.05693 13.2558-1.78507 12.2378-0.951455 11.2251-0.117774 9.67803 0.298998 7.5993 0.298998 6.61601 0.298998 5.6274 0.205479 4.63879 0.0211156 3.64751-0.163248 2.65623-0.44113 1.66755-0.812565L1.66755-4.1899C2.65616-3.66085 3.61276-3.26272 4.53188-2.99287 5.45639-2.72835 6.3515-2.59743 7.21454-2.59743 8.0829-2.59743 8.74824-2.74171 9.21317-3.03562 9.67543-3.32686 9.90786-3.74372 9.90786-4.28607 9.90786-4.76969 9.75019-5.1411 9.43759-5.3976 9.12226-5.65945 8.49707-5.89993 7.55655-6.1137L6.00682-6.45571C4.45178-6.78168 3.31617-7.31071 2.59741-8.03748 1.88398-8.76958 1.52863-9.75286 1.52863-10.9873 1.52863-12.5263 2.02561-13.7127 3.02492-14.5463 4.02153-15.38 5.45373-15.7968 7.32138-15.7968 8.1764-15.7968 9.05277-15.7327 9.95061-15.6044 10.8537-15.4762 11.7889-15.2838 12.7508-15.0272Z" fill="#FFFFFF" fill-rule="nonzero" fill-opacity="1" transform="matrix(1.00075 0 0 1 272.964 567.906)"/><path d="M13.4026-5.84623 13.4026-4.78812 4.70262-4.78812C4.79346-3.91709 5.11143-3.26242 5.65381-2.82157 6.19354-2.38604 6.94969-2.16962 7.91962-2.16962 8.70248-2.16962 9.50408-2.28184 10.3244-2.51163 11.142-2.74676 11.9863-3.09946 12.8573-3.56974L12.8573-0.705414C11.9729-0.368747 11.0885-0.120257 10.2068 0.0427648 9.33041 0.213769 8.45398 0.299271 7.57755 0.299271 5.46674 0.299271 3.82879-0.235117 2.66117-1.30393 1.49889-2.37271 0.919046-3.87166 0.919046-5.80346 0.919046-7.70587 1.48817-9.19682 2.62909-10.2817 3.77537-11.3719 5.35449-11.9169 7.36379-11.9169 9.19408-11.9169 10.6583-11.3638 11.7565-10.2603 12.852-9.16207 13.4024-7.68986 13.4024-5.84621ZM9.57638-7.08601C9.57638-7.79137 9.36796-8.36054 8.95652-8.79605 8.55035-9.2289 8.01066-9.44799 7.34265-9.44799 6.62119-9.44799 6.03875-9.24491 5.58982-8.8388 5.1409-8.4327 4.85772-7.84753 4.74547-7.08601Z" fill="#FFFFFF" fill-rule="nonzero" fill-opacity="1" transform="matrix(1.00075 0 0 1 288.301 567.906)"/><path d="M10.4313-8.46472C10.1026-8.61971 9.77933-8.73456 9.45866-8.80672 9.13806-8.87622 8.81206-8.91357 8.48606-8.91357 7.52953-8.91357 6.79202-8.60631 6.27367-7.99445 5.76066-7.37986 5.50415-6.50347 5.50415-5.36519L5.50415 0.000102603 1.78481 0.000102603 1.78481-11.6392 5.50415-11.6392 5.50415-9.72604C5.97976-10.4875 6.53018-11.0433 7.15003-11.3933 7.76996-11.7407 8.51273-11.917 9.38376-11.917 9.50401-11.917 9.63493-11.909 9.77919-11.8956 9.92885-11.8876 10.1426-11.8663 10.4205-11.8315Z" fill="#FFFFFF" fill-rule="nonzero" fill-opacity="1" transform="matrix(1.00075 0 0 1 302.745 567.906)"/><path d="M9.70484-1.97722C9.19183-1.2932 8.62539-0.790861 8.00547-0.470262 7.39094-0.154971 6.68018 0 5.86791 0 4.44912 0 3.27343-0.558439 2.34098-1.67796 1.4138-2.79483 0.951605-4.22169 0.951605-5.95307 0.951605-7.68986 1.41385-9.11665 2.34098-10.2282 3.2735-11.3397 4.44912-11.8955 5.86791-11.8955 6.68018-11.8955 7.39094-11.7351 8.00547-11.4145 8.62532-11.0992 9.19183-10.5969 9.70484-9.90758L9.70484-11.639 13.4456-11.639 13.4456-1.17554C13.4456 0.697506 12.8524 2.12697 11.6714 3.11024 10.4877 4.09885 8.77499 4.59586 6.53059 4.59586 5.80382 4.59586 5.10113 4.53707 4.42511 4.42485 3.74644 4.31798 3.06775 4.14965 2.38373 3.92253L2.38373 1.01545C3.03034 1.39219 3.66627 1.67008 4.28612 1.84913 4.91135 2.03349 5.53924 2.12701 6.16717 2.12701 7.39094 2.12701 8.28605 1.85982 8.84982 1.32541 9.41892 0.796367 9.70484-0.0346181 9.70484-1.17549ZM7.25736-9.21276C6.48784-9.21276 5.88399-8.92684 5.45114-8.35774 5.02363-7.79397 4.80987-6.99237 4.80987-5.953 4.80987-4.88423 5.01561-4.07462 5.42976-3.52686 5.84926-2.97644 6.45846-2.70392 7.25742-2.70392 8.02694-2.70392 8.62546-2.98448 9.05297-3.54827 9.48582-4.11739 9.70491-4.91897 9.70491-5.953 9.70491-6.99237 9.48582-7.79397 9.05297-8.35774 8.62546-8.92684 8.02694-9.21276 7.25742-9.21276Z" fill="#FFFFFF" fill-rule="nonzero" fill-opacity="1" transform="matrix(1.00075 0 0 1 313.249 567.906)"/><path d="M13.4026-5.84623 13.4026-4.78812 4.70262-4.78812C4.79346-3.91709 5.11143-3.26242 5.65381-2.82157 6.19354-2.38604 6.94969-2.16962 7.91962-2.16962 8.70248-2.16962 9.50408-2.28184 10.3244-2.51163 11.142-2.74676 11.9863-3.09946 12.8573-3.56974L12.8573-0.705414C11.9729-0.368747 11.0885-0.120257 10.2068 0.0427648 9.33041 0.213769 8.45398 0.299271 7.57755 0.299271 5.46674 0.299271 3.82879-0.235117 2.66117-1.30393 1.49889-2.37271 0.919046-3.87166 0.919046-5.80346 0.919046-7.70587 1.48817-9.19682 2.62909-10.2817 3.77537-11.3719 5.35449-11.9169 7.36379-11.9169 9.19408-11.9169 10.6583-11.3638 11.7565-10.2603 12.852-9.16207 13.4024-7.68986 13.4024-5.84621ZM9.57638-7.08601C9.57638-7.79137 9.36796-8.36054 8.95652-8.79605 8.55035-9.2289 8.01066-9.44799 7.34265-9.44799 6.62119-9.44799 6.03875-9.24491 5.58982-8.8388 5.1409-8.4327 4.85772-7.84753 4.74547-7.08601Z" fill="#FFFFFF" fill-rule="nonzero" fill-opacity="1" transform="matrix(1.00075 0 0 1 328.493 567.906)"/><path d="M0.256507-11.6392 3.97585-11.6392 7.10735-3.74089 9.76859-11.6392 13.4879-11.6392 8.59297 1.10058C8.10137 2.39646 7.52686 3.3023 6.87225 3.81531 6.21496 4.33367 5.35456 4.5955 4.28585 4.5955L2.12695 4.5955 2.12695 2.14802 3.2919 2.14802C3.92515 2.14802 4.38476 2.04648 4.67061 1.84876 4.95383 1.64837 5.17828 1.28766 5.34394 0.769314L5.44013 0.448681Z" fill="#FFFFFF" fill-rule="nonzero" fill-opacity="1" transform="matrix(1.00075 0 0 1 342.938 567.906)"/><path d="M1.95588-15.508 6.42333-15.508 12.0665-4.87362 12.0665-15.508 15.8607-15.508 15.8607 0 11.3825 0 5.74999-10.6447 5.74999 0 1.95581 0Z" fill="#FFFFFF" fill-rule="nonzero" fill-opacity="1" transform="matrix(1.00075 0 0 1 364.233 567.906)"/><path d="M7.32104-9.25544C6.50076-9.25544 5.87284-8.95885 5.43999-8.36834 5.00446-7.77516 4.78804-6.92014 4.78804-5.80327 4.78804-4.69174 5.00447-3.83939 5.43999-3.24888 5.87284-2.6557 6.50076-2.36178 7.32104-2.36178 8.13331-2.36178 8.75323-2.65569 9.18075-3.24888 9.61359-3.83938 9.83268-4.69174 9.83268-5.80327 9.83268-6.92014 9.61359-7.77516 9.18075-8.36834 8.75323-8.95885 8.13338-9.25544 7.32104-9.25544ZM7.32104-11.9167C9.32234-11.9167 10.8854-11.3743 12.013-10.2921 13.1379-9.21536 13.7017-7.71907 13.7017-5.80327 13.7017-3.89281 13.1379-2.39652 12.013-1.31441 10.8855-0.237628 9.32234 0.299463 7.32104 0.299463 5.31174 0.299463 3.74062-0.2376 2.60775-1.31441 1.48021-2.39652 0.919046-3.89281 0.919046-5.80327 0.919046-7.71907 1.48015-9.21536 2.60775-10.2921 3.74062-11.3743 5.31174-11.9167 7.32104-11.9167Z" fill="#FFFFFF" fill-rule="nonzero" fill-opacity="1" transform="matrix(1.00075 0 0 1 382.058 567.906)"/><path d="M0.320633-11.6392 4.03998-11.6392 6.93635-3.59109 9.83275-11.6392 13.5628-11.6392 8.97773 0 4.895 0Z" fill="#FFFFFF" fill-rule="nonzero" fill-opacity="1" transform="matrix(1.00075 0 0 1 396.687 567.906)"/><path d="M7.32104-9.25544C6.50076-9.25544 5.87284-8.95885 5.43999-8.36834 5.00446-7.77516 4.78804-6.92014 4.78804-5.80327 4.78804-4.69174 5.00447-3.83939 5.43999-3.24888 5.87284-2.6557 6.50076-2.36178 7.32104-2.36178 8.13331-2.36178 8.75323-2.65569 9.18075-3.24888 9.61359-3.83938 9.83268-4.69174 9.83268-5.80327 9.83268-6.92014 9.61359-7.77516 9.18075-8.36834 8.75323-8.95885 8.13338-9.25544 7.32104-9.25544ZM7.32104-11.9167C9.32234-11.9167 10.8854-11.3743 12.013-10.2921 13.1379-9.21536 13.7017-7.71907 13.7017-5.80327 13.7017-3.89281 13.1379-2.39652 12.013-1.31441 10.8855-0.237628 9.32234 0.299463 7.32104 0.299463 5.31174 0.299463 3.74062-0.2376 2.60775-1.31441 1.48021-2.39652 0.919046-3.89281 0.919046-5.80327 0.919046-7.71907 1.48015-9.21536 2.60775-10.2921 3.74062-11.3743 5.31174-11.9167 7.32104-11.9167Z" fill="#FFFFFF" fill-rule="nonzero" fill-opacity="1" transform="matrix(1.00075 0 0 1 410.57 567.906)"/><path d="M10.88-11.2753 10.88-8.4431C10.081-8.77711 9.31153-9.02561 8.57142-9.19128 7.82865-9.36228 7.13122-9.44779 6.47662-9.44779 5.76319-9.44779 5.23684-9.35695 4.89483-9.18061 4.55282-9.0016 4.38182-8.73169 4.38182-8.36834 4.38182-8.06908 4.51007-7.83658 4.76658-7.67365 5.02842-7.51598 5.49601-7.3984 6.16669-7.32097L6.82933-7.23547C8.73176-6.9923 10.009-6.59417 10.6662-6.03841 11.3289-5.48265 11.6602-4.61162 11.6602-3.43059 11.6602-2.19081 11.2006-1.25562 10.2815-0.630363 9.36775-0.0104723 8.00499 0.29949 6.18807 0.29949 5.42388 0.29949 4.63035 0.238035 3.80468 0.117801 2.9844-0.0024351 2.14272-0.184131 1.28236-0.427278L1.28236-3.24885C2.02247-2.89081 2.78132-2.62094 3.55884-2.43658 4.33369-2.25756 5.12462-2.16939 5.93156-2.16939 6.65833-2.16939 7.20339-2.26825 7.56681-2.46865 7.93549-2.67439 8.12257-2.97364 8.12257-3.36642 8.12257-3.70041 7.99432-3.94623 7.73781-4.10386 7.48664-4.26685 6.9843-4.3951 6.23082-4.48862L5.57887-4.57412C3.92491-4.77986 2.76263-5.16195 2.09462-5.71773 1.43198-6.27884 1.10067-7.13382 1.10067-8.28277 1.10067-9.51455 1.52017-10.4257 2.36186-11.0188 3.20888-11.6174 4.50475-11.9166 6.25221-11.9166 6.93621-11.9166 7.65498-11.8632 8.41109-11.7563 9.1646-11.6548 9.98754-11.4944 10.88-11.2753Z" fill="#FFFFFF" fill-rule="nonzero" fill-opacity="1" transform="matrix(1.00075 0 0 1 425.202 567.906)"/><path d="M0.256507-11.6392 3.97585-11.6392 7.10735-3.74089 9.76859-11.6392 13.4879-11.6392 8.59297 1.10058C8.10137 2.39646 7.52686 3.3023 6.87225 3.81531 6.21496 4.33367 5.35456 4.5955 4.28585 4.5955L2.12695 4.5955 2.12695 2.14802 3.2919 2.14802C3.92515 2.14802 4.38476 2.04648 4.67061 1.84876 4.95383 1.64837 5.17828 1.28766 5.34394 0.769314L5.44013 0.448681Z" fill="#FFFFFF" fill-rule="nonzero" fill-opacity="1" transform="matrix(1.00075 0 0 1 437.876 567.906)"/><path d="M7.32104-9.25544C6.50076-9.25544 5.87284-8.95885 5.43999-8.36834 5.00446-7.77516 4.78804-6.92014 4.78804-5.80327 4.78804-4.69174 5.00447-3.83939 5.43999-3.24888 5.87284-2.6557 6.50076-2.36178 7.32104-2.36178 8.13331-2.36178 8.75323-2.65569 9.18075-3.24888 9.61359-3.83938 9.83268-4.69174 9.83268-5.80327 9.83268-6.92014 9.61359-7.77516 9.18075-8.36834 8.75323-8.95885 8.13338-9.25544 7.32104-9.25544ZM7.32104-11.9167C9.32234-11.9167 10.8854-11.3743 12.013-10.2921 13.1379-9.21536 13.7017-7.71907 13.7017-5.80327 13.7017-3.89281 13.1379-2.39652 12.013-1.31441 10.8855-0.237628 9.32234 0.299463 7.32104 0.299463 5.31174 0.299463 3.74062-0.2376 2.60775-1.31441 1.48021-2.39652 0.919046-3.89281 0.919046-5.80327 0.919046-7.71907 1.48015-9.21536 2.60775-10.2921 3.74062-11.3743 5.31174-11.9167 7.32104-11.9167Z" fill="#FFFFFF" fill-rule="nonzero" fill-opacity="1" transform="matrix(1.00075 0 0 1 451.759 567.906)"/><path d="M1.78488-16.1709 5.50422-16.1709 5.50422 0 1.78488 0Z" fill="#FFFFFF" fill-rule="nonzero" fill-opacity="1" transform="matrix(1.00075 0 0 1 466.388 567.906)"/><path d="M7.32104-9.25544C6.50076-9.25544 5.87284-8.95885 5.43999-8.36834 5.00446-7.77516 4.78804-6.92014 4.78804-5.80327 4.78804-4.69174 5.00447-3.83939 5.43999-3.24888 5.87284-2.6557 6.50076-2.36178 7.32104-2.36178 8.13331-2.36178 8.75323-2.65569 9.18075-3.24888 9.61359-3.83938 9.83268-4.69174 9.83268-5.80327 9.83268-6.92014 9.61359-7.77516 9.18075-8.36834 8.75323-8.95885 8.13338-9.25544 7.32104-9.25544ZM7.32104-11.9167C9.32234-11.9167 10.8854-11.3743 12.013-10.2921 13.1379-9.21536 13.7017-7.71907 13.7017-5.80327 13.7017-3.89281 13.1379-2.39652 12.013-1.31441 10.8855-0.237628 9.32234 0.299463 7.32104 0.299463 5.31174 0.299463 3.74062-0.2376 2.60775-1.31441 1.48021-2.39652 0.919046-3.89281 0.919046-5.80327 0.919046-7.71907 1.48015-9.21536 2.60775-10.2921 3.74062-11.3743 5.31174-11.9167 7.32104-11.9167Z" fill="#FFFFFF" fill-rule="nonzero" fill-opacity="1" transform="matrix(1.00075 0 0 1 473.688 567.906)"/><path d="M0.320633-11.6392 4.03998-11.6392 6.93635-3.59109 9.83275-11.6392 13.5628-11.6392 8.97773 0 4.895 0Z" fill="#FFFFFF" fill-rule="nonzero" fill-opacity="1" transform="matrix(1.00075 0 0 1 488.32 567.906)"/><path d="M9.44765-16.1709 9.44765-13.7234 7.38493-13.7234C6.85591-13.7234 6.48982-13.6272 6.28407-13.4348 6.07565-13.2478 5.97413-12.9218 5.97413-12.4515L5.97413-11.6392 9.14839-11.6392 9.14839-8.978 5.97413-8.978 5.97413-0.000287287 2.25478-0.000287287 2.25478-8.978 0.405814-8.978 0.405814-11.6392 2.25478-11.6392 2.25478-12.4515C2.25478-13.718 2.60747-14.6559 3.31289-15.2624 4.01825-15.8663 5.1111-16.1709 6.59405-16.1709Z" fill="#FFFFFF" fill-rule="nonzero" fill-opacity="1" transform="matrix(1.00075 0 0 1 134.194 589.187)"/><path d="M10.4313-8.46472C10.1026-8.61971 9.77933-8.73456 9.45866-8.80672 9.13806-8.87622 8.81206-8.91357 8.48606-8.91357 7.52953-8.91357 6.79202-8.60631 6.27367-7.99445 5.76066-7.37986 5.50415-6.50347 5.50415-5.36519L5.50415 0.000102603 1.78481 0.000102603 1.78481-11.6392 5.50415-11.6392 5.50415-9.72604C5.97976-10.4875 6.53018-11.0433 7.15003-11.3933 7.76996-11.7407 8.51273-11.917 9.38376-11.917 9.50401-11.917 9.63493-11.909 9.77919-11.8956 9.92885-11.8876 10.1426-11.8663 10.4205-11.8315Z" fill="#FFFFFF" fill-rule="nonzero" fill-opacity="1" transform="matrix(1.00075 0 0 1 143.459 589.187)"/><path d="M7.32104-9.25544C6.50076-9.25544 5.87284-8.95885 5.43999-8.36834 5.00446-7.77516 4.78804-6.92014 4.78804-5.80327 4.78804-4.69174 5.00447-3.83939 5.43999-3.24888 5.87284-2.6557 6.50076-2.36178 7.32104-2.36178 8.13331-2.36178 8.75323-2.65569 9.18075-3.24888 9.61359-3.83938 9.83268-4.69174 9.83268-5.80327 9.83268-6.92014 9.61359-7.77516 9.18075-8.36834 8.75323-8.95885 8.13338-9.25544 7.32104-9.25544ZM7.32104-11.9167C9.32234-11.9167 10.8854-11.3743 12.013-10.2921 13.1379-9.21536 13.7017-7.71907 13.7017-5.80327 13.7017-3.89281 13.1379-2.39652 12.013-1.31441 10.8855-0.237628 9.32234 0.299463 7.32104 0.299463 5.31174 0.299463 3.74062-0.2376 2.60775-1.31441 1.48021-2.39652 0.919046-3.89281 0.919046-5.80327 0.919046-7.71907 1.48015-9.21536 2.60775-10.2921 3.74062-11.3743 5.31174-11.9167 7.32104-11.9167Z" fill="#FFFFFF" fill-rule="nonzero" fill-opacity="1" transform="matrix(1.00075 0 0 1 153.962 589.187)"/><path d="M12.5688-9.70484C13.0391-10.4236 13.5975-10.9714 14.2468-11.3507 14.8934-11.7275 15.6068-11.9172 16.3843-11.9172 17.723-11.9172 18.741-11.5031 19.4411-10.6774 20.1384-9.8571 20.4884-8.66007 20.4884-7.08628L20.4884-0.000560894 16.7477-0.000560894 16.7477-6.07122C16.753-6.15672 16.7584-6.24756 16.7584-6.3491 16.7637-6.44796 16.7691-6.5869 16.7691-6.76592 16.7691-7.5915 16.6462-8.19001 16.4057-8.56144 16.1625-8.93019 15.7697-9.1172 15.23-9.1172 14.5246-9.1172 13.9795-8.82335 13.5948-8.2409 13.21-7.65573 13.0096-6.81408 12.9963-5.71856L12.9963-0.000581415 9.25551-0.000581415 9.25551-6.07124C9.25551-7.35907 9.14326-8.19008 8.92417-8.56144 8.70241-8.93019 8.30698-9.1172 7.73781-9.1172 7.02438-9.1172 6.4713-8.82068 6.0812-8.23017 5.69644-7.64499 5.50406-6.81134 5.50406-5.72923L5.50406-0.000581415 1.76331-0.000581415 1.76331-11.6398 5.50406-11.6398 5.50406-9.92981C5.95829-10.5924 6.482-11.0868 7.0752-11.4154 7.67372-11.7494 8.32832-11.9177 9.04175-11.9177 9.84602-11.9177 10.554-11.72 11.1686-11.3299 11.7885-10.9451 12.2534-10.4027 12.5688-9.70539Z" fill="#FFFFFF" fill-rule="nonzero" fill-opacity="1" transform="matrix(1.00075 0 0 1 168.591 589.187)"/><path d="M5.84623-14.9417 5.84623-11.6392 9.68316-11.6392 9.68316-8.97793 5.84623-8.97793 5.84623-4.04015C5.84623-3.49774 5.95311-3.13171 6.16686-2.93929 6.38596-2.75225 6.81347-2.66141 7.44936-2.66141L9.36249-2.66141 9.36249-0.000171004 6.16686-0.000171004C4.69732-0.000171004 3.65789-0.304771 3.04603-0.919354 2.43148-1.53123 2.12685-2.57064 2.12685-4.04018L2.12685-8.97793 0.277882-8.97793 0.277882-11.6392 2.12685-11.6392 2.12685-14.9417Z" fill="#FFFFFF" fill-rule="nonzero" fill-opacity="1" transform="matrix(1.00075 0 0 1 198.197 589.187)"/><path d="M13.4881-7.08574 13.4881 0 9.74739 0 9.74739-5.40798C9.74739-6.418 9.72064-7.11269 9.67255-7.49211 9.6298-7.87687 9.55497-8.16012 9.44813-8.34713 9.29853-8.58763 9.09812-8.77731 8.84961-8.91357 8.59844-9.04716 8.31793-9.11665 8.00526-9.11665 7.22774-9.11665 6.61588-8.81206 6.16696-8.20821 5.72342-7.60969 5.50432-6.78142 5.50432-5.72865L5.50432 0 1.78498 0 1.78498-16.1709 5.50432-16.1709 5.50432-9.9292C6.06543-10.6132 6.66127-11.1156 7.28923-11.4362 7.92243-11.7568 8.61985-11.9171 9.38404-11.9171 10.7227-11.9171 11.7406-11.5029 12.4407-10.6773 13.1381-9.85703 13.4881-8.66 13.4881-7.08622Z" fill="#FFFFFF" fill-rule="nonzero" fill-opacity="1" transform="matrix(1.00075 0 0 1 208.377 589.187)"/><path d="M13.4026-5.84623 13.4026-4.78812 4.70262-4.78812C4.79346-3.91709 5.11143-3.26242 5.65381-2.82157 6.19354-2.38604 6.94969-2.16962 7.91962-2.16962 8.70248-2.16962 9.50408-2.28184 10.3244-2.51163 11.142-2.74676 11.9863-3.09946 12.8573-3.56974L12.8573-0.705414C11.9729-0.368747 11.0885-0.120257 10.2068 0.0427648 9.33041 0.213769 8.45398 0.299271 7.57755 0.299271 5.46674 0.299271 3.82879-0.235117 2.66117-1.30393 1.49889-2.37271 0.919046-3.87166 0.919046-5.80346 0.919046-7.70587 1.48817-9.19682 2.62909-10.2817 3.77537-11.3719 5.35449-11.9169 7.36379-11.9169 9.19408-11.9169 10.6583-11.3638 11.7565-10.2603 12.852-9.16207 13.4024-7.68986 13.4024-5.84621ZM9.57638-7.08601C9.57638-7.79137 9.36796-8.36054 8.95652-8.79605 8.55035-9.2289 8.01066-9.44799 7.34265-9.44799 6.62119-9.44799 6.03875-9.24491 5.58982-8.8388 5.1409-8.4327 4.85772-7.84753 4.74547-7.08601Z" fill="#FFFFFF" fill-rule="nonzero" fill-opacity="1" transform="matrix(1.00075 0 0 1 223.538 589.187)"/><path d="M1.95588-15.508 6.42333-15.508 12.0665-4.87362 12.0665-15.508 15.8607-15.508 15.8607 0 11.3825 0 5.74999-10.6447 5.74999 0 1.95581 0Z" fill="#FFFFFF" fill-rule="nonzero" fill-opacity="1" transform="matrix(1.00075 0 0 1 245.398 589.187)"/><path d="M7.32104-9.25544C6.50076-9.25544 5.87284-8.95885 5.43999-8.36834 5.00446-7.77516 4.78804-6.92014 4.78804-5.80327 4.78804-4.69174 5.00447-3.83939 5.43999-3.24888 5.87284-2.6557 6.50076-2.36178 7.32104-2.36178 8.13331-2.36178 8.75323-2.65569 9.18075-3.24888 9.61359-3.83938 9.83268-4.69174 9.83268-5.80327 9.83268-6.92014 9.61359-7.77516 9.18075-8.36834 8.75323-8.95885 8.13338-9.25544 7.32104-9.25544ZM7.32104-11.9167C9.32234-11.9167 10.8854-11.3743 12.013-10.2921 13.1379-9.21536 13.7017-7.71907 13.7017-5.80327 13.7017-3.89281 13.1379-2.39652 12.013-1.31441 10.8855-0.237628 9.32234 0.299463 7.32104 0.299463 5.31174 0.299463 3.74062-0.2376 2.60775-1.31441 1.48021-2.39652 0.919046-3.89281 0.919046-5.80327 0.919046-7.71907 1.48015-9.21536 2.60775-10.2921 3.74062-11.3743 5.31174-11.9167 7.32104-11.9167Z" fill="#FFFFFF" fill-rule="nonzero" fill-opacity="1" transform="matrix(1.00075 0 0 1 263.219 589.187)"/><path d="M1.66729-4.53162 1.66729-11.6392 5.40805-11.6392 5.40805-10.4743C5.40805-9.83836 5.4027-9.04483 5.39736-8.0909 5.38935-7.14237 5.38667-6.50911 5.38667-6.18851 5.38667-5.25332 5.40805-4.57998 5.4508-4.16854 5.49889-3.75439 5.58439-3.45511 5.7073-3.27077 5.85693-3.02762 6.05199-2.83791 6.29514-2.70432 6.54362-2.57606 6.82952-2.51194 7.15017-2.51194 7.92503-2.51194 8.53421-2.80585 8.9778-3.39904 9.41865-3.99756 9.6404-4.82583 9.6404-5.88927L9.6404-11.6392 13.3597-11.6392 13.3597-2.05205e-05 9.6404-2.05205e-05 9.6404-1.67798C9.07664-0.999308 8.48079-0.502295 7.85553-0.181696 7.22767 0.138938 6.5356 0.299251 5.78216 0.299251 4.44087 0.299251 3.42018-0.109559 2.71475-0.92986 2.01473-1.75547 1.66738-2.95517 1.66738-4.53162Z" fill="#FFFFFF" fill-rule="nonzero" fill-opacity="1" transform="matrix(1.00075 0 0 1 277.851 589.187)"/><path d="M13.4881-7.08574 13.4881 0 9.74739 0 9.74739-5.41872C9.74739-6.4234 9.72064-7.11276 9.67255-7.49211 9.6298-7.87687 9.55497-8.16012 9.44813-8.34713 9.29853-8.58763 9.09812-8.77731 8.84961-8.91357 8.59844-9.04716 8.31793-9.11665 8.00526-9.11665 7.22774-9.11665 6.61588-8.81206 6.16696-8.20821 5.72342-7.60969 5.50432-6.78142 5.50432-5.72865L5.50432 0 1.78498 0 1.78498-11.6392 5.50432-11.6392 5.50432-9.9292C6.06543-10.6132 6.66127-11.1156 7.28923-11.4362 7.92243-11.7568 8.61985-11.9171 9.38404-11.9171 10.7227-11.9171 11.7406-11.5029 12.4407-10.6773 13.1381-9.85703 13.4881-8.66 13.4881-7.08622Z" fill="#FFFFFF" fill-rule="nonzero" fill-opacity="1" transform="matrix(1.00075 0 0 1 293.013 589.187)"/><path d="M1.95588-15.508 8.59297-15.508C10.5649-15.508 12.0799-15.0699 13.1353-14.1934 14.196-13.3171 14.7277-12.0692 14.7277-10.4527 14.7277-8.82813 14.196-7.57768 13.1353-6.70125 12.0798-5.82489 10.5649-5.38664 8.59297-5.38664L5.95307-5.38664 5.95307 -6.07529e-16 1.95581 -6.07529e-16ZM5.95314-12.6116 5.95314-8.28311 8.16553-8.28311C8.94038-8.28311 9.5389-8.47012 9.96107-8.84954 10.3886-9.2263 10.6023-9.76065 10.6023-10.4527 10.6023-11.1421 10.3886-11.6739 9.96107-12.0452 9.5389-12.422 8.94038-12.6116 8.16553-12.6116Z" fill="#FFFFFF" fill-rule="nonzero" fill-opacity="1" transform="matrix(1.00075 0 0 1 315.589 589.187)"/><path d="M10.4313-8.46472C10.1026-8.61971 9.77933-8.73456 9.45866-8.80672 9.13806-8.87622 8.81206-8.91357 8.48606-8.91357 7.52953-8.91357 6.79202-8.60631 6.27367-7.99445 5.76066-7.37986 5.50415-6.50347 5.50415-5.36519L5.50415 0.000102603 1.78481 0.000102603 1.78481-11.6392 5.50415-11.6392 5.50415-9.72604C5.97976-10.4875 6.53018-11.0433 7.15003-11.3933 7.76996-11.7407 8.51273-11.917 9.38376-11.917 9.50401-11.917 9.63493-11.909 9.77919-11.8956 9.92885-11.8876 10.1426-11.8663 10.4205-11.8315Z" fill="#FFFFFF" fill-rule="nonzero" fill-opacity="1" transform="matrix(1.00075 0 0 1 331.197 589.187)"/><path d="M7.32104-9.25544C6.50076-9.25544 5.87284-8.95885 5.43999-8.36834 5.00446-7.77516 4.78804-6.92014 4.78804-5.80327 4.78804-4.69174 5.00447-3.83939 5.43999-3.24888 5.87284-2.6557 6.50076-2.36178 7.32104-2.36178 8.13331-2.36178 8.75323-2.65569 9.18075-3.24888 9.61359-3.83938 9.83268-4.69174 9.83268-5.80327 9.83268-6.92014 9.61359-7.77516 9.18075-8.36834 8.75323-8.95885 8.13338-9.25544 7.32104-9.25544ZM7.32104-11.9167C9.32234-11.9167 10.8854-11.3743 12.013-10.2921 13.1379-9.21536 13.7017-7.71907 13.7017-5.80327 13.7017-3.89281 13.1379-2.39652 12.013-1.31441 10.8855-0.237628 9.32234 0.299463 7.32104 0.299463 5.31174 0.299463 3.74062-0.2376 2.60775-1.31441 1.48021-2.39652 0.919046-3.89281 0.919046-5.80327 0.919046-7.71907 1.48015-9.21536 2.60775-10.2921 3.74062-11.3743 5.31174-11.9167 7.32104-11.9167Z" fill="#FFFFFF" fill-rule="nonzero" fill-opacity="1" transform="matrix(1.00075 0 0 1 341.7 589.187)"/><path d="M1.78488-11.6392 5.50422-11.6392 5.50422-0.203153C5.50422 1.34922 5.13014 2.53558 4.38202 3.35586 3.63384 4.18147 2.54906 4.59564 1.13294 4.59564L-0.705359 4.59564-0.705359 2.14816-0.0640924 2.14816C0.641266 2.14816 1.12494 1.98784 1.38944 1.66721 1.65129 1.35192 1.78489 0.729354 1.78489-0.203167ZM1.78488-16.1709 5.50422-16.1709 5.50422-13.1355 1.78488-13.1355Z" fill="#FFFFFF" fill-rule="nonzero" fill-opacity="1" transform="matrix(1.00075 0 0 1 356.329 589.187)"/><path d="M13.4026-5.84623 13.4026-4.78812 4.70262-4.78812C4.79346-3.91709 5.11143-3.26242 5.65381-2.82157 6.19354-2.38604 6.94969-2.16962 7.91962-2.16962 8.70248-2.16962 9.50408-2.28184 10.3244-2.51163 11.142-2.74676 11.9863-3.09946 12.8573-3.56974L12.8573-0.705414C11.9729-0.368747 11.0885-0.120257 10.2068 0.0427648 9.33041 0.213769 8.45398 0.299271 7.57755 0.299271 5.46674 0.299271 3.82879-0.235117 2.66117-1.30393 1.49889-2.37271 0.919046-3.87166 0.919046-5.80346 0.919046-7.70587 1.48817-9.19682 2.62909-10.2817 3.77537-11.3719 5.35449-11.9169 7.36379-11.9169 9.19408-11.9169 10.6583-11.3638 11.7565-10.2603 12.852-9.16207 13.4024-7.68986 13.4024-5.84621ZM9.57638-7.08601C9.57638-7.79137 9.36796-8.36054 8.95652-8.79605 8.55035-9.2289 8.01066-9.44799 7.34265-9.44799 6.62119-9.44799 6.03875-9.24491 5.58982-8.8388 5.1409-8.4327 4.85772-7.84753 4.74547-7.08601Z" fill="#FFFFFF" fill-rule="nonzero" fill-opacity="1" transform="matrix(1.00075 0 0 1 363.629 589.187)"/><path d="M11.1898-11.2753 11.1898-8.24002C10.6822-8.58736 10.1745-8.84387 9.66147-9.00954 9.15379-9.17254 8.62744-9.25537 8.07968-9.25537 7.04565-9.25537 6.23605-8.95078 5.65354-8.34693 5.0764-7.74041 4.78785-6.89339 4.78785-5.80319 4.78785-4.71841 5.07642-3.87406 5.65354-3.27021 6.23602-2.66367 7.04565-2.36176 8.07968-2.36176 8.66219-2.36176 9.21529-2.44726 9.7363-2.61827 10.2627-2.78927 10.7463-3.04578 11.1898-3.38779L11.1898-0.34179C10.6047-0.128034 10.0142 0.0322856 9.41564 0.139157 8.81712 0.246027 8.21861 0.299477 7.62009 0.299477 5.51728 0.299477 3.874-0.237587 2.69304-1.31439 1.50935-2.38851 0.918841-3.88479 0.918841-5.80326 0.918841-7.72707 1.50934-9.22603 2.69304-10.3028 3.87407-11.3769 5.51728-11.9167 7.62009-11.9167 8.22394-11.9167 8.82246-11.8633 9.41564-11.7563 10.0061-11.6495 10.5967-11.4892 11.1898-11.2754Z" fill="#FFFFFF" fill-rule="nonzero" fill-opacity="1" transform="matrix(1.00075 0 0 1 378.073 589.187)"/><path d="M5.84623-14.9417 5.84623-11.6392 9.68316-11.6392 9.68316-8.97793 5.84623-8.97793 5.84623-4.04015C5.84623-3.49774 5.95311-3.13171 6.16686-2.93929 6.38596-2.75225 6.81347-2.66141 7.44936-2.66141L9.36249-2.66141 9.36249-0.000171004 6.16686-0.000171004C4.69732-0.000171004 3.65789-0.304771 3.04603-0.919354 2.43148-1.53123 2.12685-2.57064 2.12685-4.04018L2.12685-8.97793 0.277882-8.97793 0.277882-11.6392 2.12685-11.6392 2.12685-14.9417Z" fill="#FFFFFF" fill-rule="nonzero" fill-opacity="1" transform="matrix(1.00075 0 0 1 390.697 589.187)"/></g></g></g></svg>