<svg width="960" height="299" xmlns="http://www.w3.org/2000/svg" xmlns:xlink="http://www.w3.org/1999/xlink" xml:space="preserve" overflow="hidden"><defs><clipPath id="clip0"><rect x="160" y="210" width="960" height="299"/></clipPath><clipPath id="clip1"><rect x="161" y="211" width="958" height="298"/></clipPath><clipPath id="clip2"><rect x="206" y="211" width="913" height="299"/></clipPath><clipPath id="clip3"><rect x="206" y="73" width="1073" height="723"/></clipPath><clipPath id="clip4"><rect x="206" y="73" width="1073" height="723"/></clipPath><clipPath id="clip5"><rect x="207" y="228" width="295" height="285"/></clipPath><clipPath id="clip6"><rect x="207" y="228" width="295" height="285"/></clipPath><clipPath id="clip7"><rect x="207" y="228" width="295" height="285"/></clipPath><clipPath id="clip8"><rect x="207" y="228" width="295" height="285"/></clipPath><clipPath id="clip9"><rect x="208" y="228" width="294" height="285"/></clipPath><clipPath id="clip10"><rect x="208" y="228" width="294" height="285"/></clipPath></defs><g clip-path="url(#clip0)" transform="translate(-160 -210)"><g clip-path="url(#clip1)"><g clip-path="url(#clip2)"><g clip-path="url(#clip3)"><g clip-path="url(#clip4)"><g clip-path="url(#clip5)"><g clip-path="url(#clip6)"><g clip-path="url(#clip7)"><g clip-path="url(#clip8)"><g clip-path="url(#clip9)"><g clip-path="url(#clip10)"><path d="M316.69 45.6112C314.433 43.3526 311.376 42.0837 308.183 42.0837 304.99 42.0837 301.93 43.3526 299.673 45.6112L187.918 157.367 148.319 117.769C145.28 114.73 140.848 113.543 136.696 114.654 132.544 115.768 129.301 119.01 128.187 123.163 127.076 127.316 128.263 131.747 131.302 134.786L179.409 182.893C181.666 185.152 184.726 186.42 187.918 186.42 191.11 186.42 194.17 185.152 196.427 182.893L316.693 62.6274C318.952 60.3706 320.221 57.3106 320.221 54.1186 320.221 50.9267 318.952 47.8649 316.693 45.6099Z" fill="#D557F3" fill-rule="nonzero" fill-opacity="1" transform="matrix(1 0 0 1.00484 161.306 218.441)"/><path d="M317.561 123.814C316.701 119.603 313.659 116.17 309.584 114.809 305.507 113.448 301.015 114.365 297.798 117.215 294.582 120.065 293.131 124.415 293.987 128.624 298.945 152.822 295.474 177.987 284.156 199.941 272.838 221.895 254.349 239.317 231.764 249.314 209.179 259.312 183.852 261.286 159.991 254.903 136.131 248.523 115.168 234.174 100.589 214.237 86.006 194.301 78.6824 169.977 79.8293 145.305 80.9791 120.631 90.5324 97.0926 106.904 78.6003 123.274 60.1049 145.479 47.7641 169.828 43.6284 194.179 39.4925 219.212 43.8107 240.774 55.8642 244.533 57.9695 249.129 57.9089 252.834 55.7069 256.538 53.5023 258.783 49.4923 258.727 45.182 258.671 40.8742 256.32 36.9229 252.559 34.8172 227.22 20.6248 197.914 15.1677 169.162 19.2847 140.413 23.4016 113.813 36.866 93.4756 57.6018 73.1384 78.3353 60.1876 105.187 56.6242 134.014 53.0611 162.839 59.0823 192.037 73.7611 217.099 88.4381 242.162 110.956 261.697 137.84 272.69 164.723 283.685 194.472 285.526 222.509 277.934 250.544 270.337 275.3 253.73 292.957 230.671 310.614 207.609 320.192 179.38 320.211 150.335 320.205 141.429 319.321 132.545 317.566 123.817Z" fill="#D557F3" fill-rule="nonzero" fill-opacity="1" transform="matrix(1 0 0 1.00484 161.306 218.441)"/><path d="M10.0755-0.604013C9.55541-0.335564 9.01213-0.134225 8.448 0 7.88806 0.138418 7.30081 0.209724 6.68634 0.209724 4.86174 0.209724 3.41674-0.297814 2.34921-1.31712 1.27959-2.34055 0.746885-3.72479 0.746885-5.46973 0.746885-7.21886 1.27959-8.60302 2.34921-9.62234 3.41674-10.6458 4.86174-11.1576 6.68634-11.1576 7.30081-11.1576 7.88811-11.0863 8.448-10.9478 9.01218-10.8136 9.55541-10.6122 10.0755-10.3438L10.0755-8.07877C9.54904-8.43108 9.03106-8.69116 8.52351-8.85891 8.0139-9.02672 7.47699-9.11057 6.91281-9.11057 5.90615-9.11057 5.11335-8.78546 4.53868-8.13743 3.96194-7.49358 3.67461-6.60431 3.67461-5.46968 3.67461-4.33923 3.96194-3.45002 4.53868-2.80193 5.11335-2.15808 5.90615-1.83717 6.91281-1.83717 7.47699-1.83717 8.0139-1.91687 8.52351-2.08045 9.03106-2.24823 9.54909-2.51039 10.0755-2.86904Z" fill="#D557F3" fill-rule="nonzero" fill-opacity="1" transform="matrix(1 0 0 1.00484 198.89 565.879)"/><path d="M7.37379-5.98163C7.13891-6.08646 6.90613-6.16613 6.6775-6.21652 6.45307-6.27104 6.2266-6.30037 5.99801-6.30037 5.32059-6.30037 4.80043-6.08228 4.43765-5.64607 4.07273-5.21399 3.89237-4.59739 3.89237-3.79206L3.89237-0.000187916 1.2666-0.000187916 1.2666-8.22123 3.89237-8.22123 3.89237-6.87063C4.22793-7.40752 4.61385-7.79757 5.05003-8.0451 5.49043-8.29671 6.01689-8.4226 6.62717-8.4226 6.71531-8.4226 6.81177-8.41628 6.91244-8.40578 7.01733-8.39948 7.16829-8.38485 7.36542-8.36384Z" fill="#D557F3" fill-rule="nonzero" fill-opacity="1" transform="matrix(1 0 0 1.00484 209.923 565.879)"/><path d="M9.47146-4.13581 9.47146-3.38081 3.32233-3.38081C3.38947-2.76423 3.61177-2.30282 3.99345-1.99663 4.37306-1.68833 4.90786-1.53523 5.59578-1.53523 6.14946-1.53523 6.71364-1.61492 7.29036-1.77851 7.87129-1.94629 8.46693-2.19376 9.07721-2.52512L9.07721-0.503365C8.45648-0.268472 7.83561-0.0923041 7.21483 0.0251485 6.59407 0.146788 5.97323 0.209708 5.35242 0.209708 3.86337 0.209708 2.70565-0.167798 1.87931-0.92283 1.05721-1.67782 0.646108-2.73696 0.646108-4.10229 0.646108-5.44454 1.05088-6.49737 1.86251-7.26496 2.67206-8.03678 3.78569-8.42265 5.20138-8.42265 6.49329-8.42265 7.52722-8.03041 8.30534-7.24819 9.08129-6.47007 9.4714-5.43193 9.4714-4.13581ZM6.77019-5.00828C6.77019-5.50533 6.6234-5.90589 6.33399-6.20791 6.04244-6.51409 5.66284-6.66936 5.19306-6.66936 4.68343-6.66936 4.27026-6.52675 3.95149-6.24145 3.63273-5.95623 3.43346-5.54516 3.35585-5.00828Z" fill="#D557F3" fill-rule="nonzero" fill-opacity="1" transform="matrix(1 0 0 1.00484 217.337 565.879)"/><path d="M4.94959-3.69957C4.40013-3.69957 3.98693-3.6073 3.708-3.42275 3.43325-3.23817 3.29693-2.96342 3.29693-2.60064 3.29693-2.26506 3.40808-2.00081 3.63249-1.81203 3.85482-1.62747 4.16311-1.53519 4.55532-1.53519 5.05237-1.53519 5.46973-1.71136 5.80529-2.06371 6.14507-2.42024 6.31701-2.86488 6.31701-3.39758L6.31701-3.6996ZM8.95959-4.68951 8.95959 0 6.31701 0 6.31701-1.2164C5.9647-0.717253 5.56625-0.354409 5.12575-0.12585 4.68322 0.0964594 4.14631 0.209713 3.51505 0.209713 2.66356 0.209713 1.97354-0.0356663 1.44292-0.528523 0.910217-1.02558 0.645946-1.67153 0.645946-2.46641 0.645946-3.42698 0.975218-4.13167 1.63589-4.58047 2.30073-5.03347 3.34305-5.25993 4.76499-5.25993L6.31696-5.25993 6.31696-5.46968C6.31696-5.88288 6.15128-6.18485 5.82199-6.37572 5.49058-6.57075 4.9789-6.66936 4.28679-6.66936 3.72053-6.66936 3.19623-6.61268 2.70963-6.50153 2.22727-6.3883 1.78053-6.22055 1.36739-5.99822L1.36739-8.00321C1.92529-8.13743 2.48731-8.24021 3.05357-8.31361 3.62404-8.3849 4.19449-8.42265 4.76497-8.42265 6.24558-8.42265 7.31519-8.12905 7.96962-7.54176 8.62816-6.95878 8.95953-6.00867 8.95953-4.68954Z" fill="#D557F3" fill-rule="nonzero" fill-opacity="1" transform="matrix(1 0 0 1.00484 227.532 565.879)"/><path d="M4.13581-10.5533 4.13581-8.22112 6.84547-8.22112 6.84547-6.34199 4.13581-6.34199 4.13581-2.85211C4.13581-2.47042 4.21131-2.21456 4.3623-2.08033 4.51331-1.9461 4.81112-1.87899 5.25993-1.87899L6.6106-1.87899 6.6106 0.00016107 4.3623 0.00016107C3.32207 0.00016107 2.58382-0.213762 2.14759-0.645783 1.71555-1.08202 1.50165-1.81607 1.50165-2.85211L1.50165-6.34199 0.201327-6.34199 0.201327-8.22112 1.50165-8.22112 1.50165-10.5533Z" fill="#D557F3" fill-rule="nonzero" fill-opacity="1" transform="matrix(1 0 0 1.00484 237.676 565.879)"/><path d="M9.47146-4.13581 9.47146-3.38081 3.32233-3.38081C3.38947-2.76423 3.61177-2.30282 3.99345-1.99663 4.37306-1.68833 4.90786-1.53523 5.59578-1.53523 6.14946-1.53523 6.71364-1.61492 7.29036-1.77851 7.87129-1.94629 8.46693-2.19376 9.07721-2.52512L9.07721-0.503365C8.45648-0.268472 7.83561-0.0923041 7.21483 0.0251485 6.59407 0.146788 5.97323 0.209708 5.35242 0.209708 3.86337 0.209708 2.70565-0.167798 1.87931-0.92283 1.05721-1.67782 0.646108-2.73696 0.646108-4.10229 0.646108-5.44454 1.05088-6.49737 1.86251-7.26496 2.67206-8.03678 3.78569-8.42265 5.20138-8.42265 6.49329-8.42265 7.52722-8.03041 8.30534-7.24819 9.08129-6.47007 9.4714-5.43193 9.4714-4.13581ZM6.77019-5.00828C6.77019-5.50533 6.6234-5.90589 6.33399-6.20791 6.04244-6.51409 5.66284-6.66936 5.19306-6.66936 4.68343-6.66936 4.27026-6.52675 3.95149-6.24145 3.63273-5.95623 3.43346-5.54516 3.35585-5.00828Z" fill="#D557F3" fill-rule="nonzero" fill-opacity="1" transform="matrix(1 0 0 1.00484 244.864 565.879)"/><path d="M6.85405-7.02159 6.85405-11.4259 9.49665-11.4259 9.49665-5.36898e-05 6.85405-5.36898e-05 6.85405-1.19133C6.49542-0.704764 6.0991-0.348234 5.66279-0.125904 5.22652 0.0964277 4.71905 0.20966 4.14439 0.20966 3.13141 0.20966 2.30089-0.193016 1.65285-0.998366 1.00272-1.80372 0.679718-2.83768 0.679718-4.10229 0.679718-5.37114 1.0027-6.40934 1.65285-7.21467 2.30089-8.02001 3.13141-8.4227 4.14439-8.4227 4.71486-8.4227 5.2182-8.30739 5.65444-8.07877 6.09481-7.84807 6.49542-7.49571 6.85405-7.0217ZM5.1259-1.69451C5.68382-1.69451 6.1116-1.89795 6.40944-2.3069 6.70517-2.72006 6.85399-3.31778 6.85399-4.10219 6.85399-4.88446 6.70517-5.48008 6.40944-5.88907 6.1116-6.30221 5.68377-6.5098 5.1259-6.5098 4.56591-6.5098 4.13812-6.30221 3.84239-5.88907 3.54458-5.48008 3.39776-4.88446 3.39776-4.10219 3.39776-3.31783 3.54458-2.72011 3.84239-2.3069 4.1381-1.89793 4.56596-1.69451 5.1259-1.69451Z" fill="#D557F3" fill-rule="nonzero" fill-opacity="1" transform="matrix(1 0 0 1.00484 255.059 565.879)"/><path d="M5.63743-1.69457C6.20162-1.69457 6.63161-1.898 6.92934-2.30696 7.22507-2.72011 7.37395-3.31783 7.37395-4.10224 7.37395-4.88452 7.22507-5.48013 6.92934-5.88912 6.63156-6.30227 6.20157-6.50985 5.63743-6.50985 5.0712-6.50985 4.63915-6.30227 4.33713-5.88912 4.03932-5.47387 3.89252-4.87822 3.89252-4.10224 3.89252-3.32418 4.03932-2.72853 4.33713-2.31538 4.63915-1.90012 5.0712-1.69462 5.63743-1.69462ZM3.89252-7.02164C4.25536-7.49561 4.65595-7.84802 5.09218-8.07872 5.53263-8.30731 6.04013-8.42265 6.6106-8.42265 7.62777-8.42265 8.4604-8.01996 9.11052-7.21462 9.75855-6.40928 10.0836-5.37109 10.0836-4.10227 10.0836-2.83758 9.75855-1.80368 9.11052-0.998325 8.4604-0.192973 7.62777 0.209703 6.6106 0.209703 6.04013 0.209703 5.53263 0.096449 5.09218-0.12586 4.65595-0.354461 4.25536-0.708883 3.89252-1.19129L3.89252-1.0738e-05 1.26676-1.0738e-05 1.26676-11.4258 3.89252-11.4258Z" fill="#D557F3" fill-rule="nonzero" fill-opacity="1" transform="matrix(1 0 0 1.00484 271.054 565.879)"/><path d="M0.18456-8.22102 2.81033-8.22102 5.02505-2.64208 6.90423-8.22102 9.53001-8.22102 6.0737 0.780655C5.72552 1.69086 5.3208 2.32843 4.85727 2.69336 4.39168 3.06248 3.78345 3.24701 3.02848 3.24701L1.50163 3.24701 1.50163 1.51884 2.32373 1.51884C2.77045 1.51884 3.09553 1.44543 3.29685 1.30072 3.50239 1.1602 3.66179 0.908532 3.77505 0.545736L3.85053 0.319225Z" fill="#D557F3" fill-rule="nonzero" fill-opacity="1" transform="matrix(1 0 0 1.00484 281.816 565.879)"/><path d="M11.2331-0.813727C10.5283-0.471871 9.79433-0.213901 9.03509-0.0419319 8.28009 0.12585 7.49566 0.209741 6.68614 0.209741 4.86153 0.209741 3.41651-0.297798 2.34899-1.3171 1.27938-2.34054 0.746669-3.72477 0.746669-5.46968 0.746669-7.23563 1.28776-8.6261 2.37412-9.63905 3.46468-10.65 4.95378-11.1575 6.84547-11.1575 7.57114-11.1575 8.26743-11.0862 8.93434-10.9477 9.60549-10.8135 10.2368-10.6121 10.8303-10.3437L10.8303-8.07867C10.2137-8.42473 9.60549-8.68263 9.00147-8.85044 8.39746-9.02238 7.79344-9.11052 7.18943-9.11052 6.05895-9.11052 5.18862-8.79383 4.58041-8.16257 3.9764-7.53544 3.67438-6.63788 3.67438-5.46968 3.67438-4.31201 3.968-3.41645 4.55522-2.78519 5.14249-2.15179 5.97505-1.83723 7.05516-1.83723 7.34457-1.83723 7.61721-1.854 7.86887-1.88756 8.12476-1.92531 8.35123-1.98404 8.54839-2.06373L8.54839-4.19457 6.82864-4.19457 6.82864-6.08212 11.2329-6.08212Z" fill="#D557F3" fill-rule="nonzero" fill-opacity="1" transform="matrix(1 0 0 1.00484 296.848 565.879)"/><path d="M7.37379-5.98163C7.13891-6.08646 6.90613-6.16613 6.6775-6.21652 6.45307-6.27104 6.2266-6.30037 5.99801-6.30037 5.32059-6.30037 4.80043-6.08228 4.43765-5.64607 4.07273-5.21399 3.89237-4.59739 3.89237-3.79206L3.89237-0.000187916 1.2666-0.000187916 1.2666-8.22123 3.89237-8.22123 3.89237-6.87063C4.22793-7.40752 4.61385-7.79757 5.05003-8.0451 5.49043-8.29671 6.01689-8.4226 6.62717-8.4226 6.71531-8.4226 6.81177-8.41628 6.91244-8.40578 7.01733-8.39948 7.16829-8.38485 7.36542-8.36384Z" fill="#D557F3" fill-rule="nonzero" fill-opacity="1" transform="matrix(1 0 0 1.00484 309.187 565.879)"/><path d="M9.47146-4.13581 9.47146-3.38081 3.32233-3.38081C3.38947-2.76423 3.61177-2.30282 3.99345-1.99663 4.37306-1.68833 4.90786-1.53523 5.59578-1.53523 6.14946-1.53523 6.71364-1.61492 7.29036-1.77851 7.87129-1.94629 8.46693-2.19376 9.07721-2.52512L9.07721-0.503365C8.45648-0.268472 7.83561-0.0923041 7.21483 0.0251485 6.59407 0.146788 5.97323 0.209708 5.35242 0.209708 3.86337 0.209708 2.70565-0.167798 1.87931-0.92283 1.05721-1.67782 0.646108-2.73696 0.646108-4.10229 0.646108-5.44454 1.05088-6.49737 1.86251-7.26496 2.67206-8.03678 3.78569-8.42265 5.20138-8.42265 6.49329-8.42265 7.52722-8.03041 8.30534-7.24819 9.08129-6.47007 9.4714-5.43193 9.4714-4.13581ZM6.77019-5.00828C6.77019-5.50533 6.6234-5.90589 6.33399-6.20791 6.04244-6.51409 5.66284-6.66936 5.19306-6.66936 4.68343-6.66936 4.27026-6.52675 3.95149-6.24145 3.63273-5.95623 3.43346-5.54516 3.35585-5.00828Z" fill="#D557F3" fill-rule="nonzero" fill-opacity="1" transform="matrix(1 0 0 1.00484 316.601 565.879)"/><path d="M6.85405-1.39262C6.49542-0.91653 6.0991-0.564178 5.66279-0.335564 5.22658-0.111154 4.71905 1.19216e-16 4.14439 1.19216e-16 3.14189 1.19216e-16 2.3156-0.394288 1.66123-1.18284 1.00685-1.97563 0.679718-2.98233 0.679718-4.20291 0.679718-5.43193 1.00689-6.43861 1.66123-7.22297 2.3156-8.01158 3.14189-8.40583 4.14439-8.40583 4.71905-8.40583 5.22658-8.29049 5.66279-8.06187 6.09905-7.83746 6.49542-7.48515 6.85405-7.00482L6.85405-8.22123 9.49665-8.22123 9.49665-0.830253C9.49665 0.488912 9.07932 1.49769 8.24668 2.19819 7.41196 2.8966 6.20183 3.2468 4.61424 3.2468 4.10461 3.2468 3.60964 3.20697 3.12938 3.12936 2.647 3.04967 2.16463 2.93012 1.67808 2.76863L1.67808 0.721696C2.14158 0.983855 2.59248 1.1789 3.02871 1.30896 3.46913 1.43689 3.91374 1.50191 4.36258 1.50191 5.22249 1.50191 5.85163 1.31316 6.25013 0.939832 6.65278 0.56442 6.8541-0.0249283 6.8541-0.830279ZM5.1259-6.5099C4.58273-6.5099 4.15695-6.30858 3.85076-5.90589 3.54874-5.50743 3.39776-4.94114 3.39776-4.20291 3.39776-3.4521 3.54245-2.88165 3.83399-2.49154 4.1297-2.10565 4.55967-1.91271 5.12588-1.91271 5.67326-1.91271 6.09899-2.10985 6.40102-2.50835 6.70296-2.91103 6.85399-3.47519 6.85399-4.20291 6.85399-4.94114 6.70296-5.50743 6.40102-5.90589 6.09899-6.30858 5.67326-6.5099 5.12588-6.5099Z" fill="#D557F3" fill-rule="nonzero" fill-opacity="1" transform="matrix(1 0 0 1.00484 326.798 565.879)"/><path d="M5.17606-6.54373C4.59302-6.54373 4.14837-6.33404 3.84216-5.91457 3.53387-5.49508 3.38078-4.89112 3.38078-4.10253 3.38078-3.31391 3.53387-2.70989 3.84216-2.29047 4.14837-1.87521 4.59297-1.66971 5.17606-1.66971 5.74648-1.66971 6.18274-1.87524 6.48476-2.29047 6.79094-2.70992 6.94617-3.31391 6.94617-4.10253 6.94617-4.89112 6.79094-5.49513 6.48476-5.91457 6.18274-6.33399 5.74648-6.54373 5.17606-6.54373ZM5.17606-8.42291C6.58957-8.42291 7.69485-8.03914 8.48973-7.27364 9.28251-6.51232 9.68104-5.4553 9.68104-4.10258 9.68104-2.75404 9.28251-1.69698 8.48973-0.931525 7.69485-0.170198 6.58957 0.209391 5.17606 0.209391 3.75412 0.209391 2.64466-0.170214 1.8456-0.931525 1.04443-1.69704 0.645946-2.75404 0.645946-4.10258 0.645946-5.4553 1.04443-6.51237 1.8456-7.27364 2.64466-8.03914 3.75412-8.42291 5.17606-8.42291Z" fill="#D557F3" fill-rule="nonzero" fill-opacity="1" transform="matrix(1 0 0 1.00484 337.556 565.879)"/><path d="M7.37379-5.98163C7.13891-6.08646 6.90613-6.16613 6.6775-6.21652 6.45307-6.27104 6.2266-6.30037 5.99801-6.30037 5.32059-6.30037 4.80043-6.08228 4.43765-5.64607 4.07273-5.21399 3.89237-4.59739 3.89237-3.79206L3.89237-0.000187916 1.2666-0.000187916 1.2666-8.22123 3.89237-8.22123 3.89237-6.87063C4.22793-7.40752 4.61385-7.79757 5.05003-8.0451 5.49043-8.29671 6.01689-8.4226 6.62717-8.4226 6.71531-8.4226 6.81177-8.41628 6.91244-8.40578 7.01733-8.39948 7.16829-8.38485 7.36542-8.36384Z" fill="#D557F3" fill-rule="nonzero" fill-opacity="1" transform="matrix(1 0 0 1.00484 347.886 565.879)"/><path d="M10.0755-0.604013C9.55541-0.335564 9.01213-0.134225 8.448 0 7.88806 0.138418 7.30081 0.209724 6.68634 0.209724 4.86174 0.209724 3.41674-0.297814 2.34921-1.31712 1.27959-2.34055 0.746885-3.72479 0.746885-5.46973 0.746885-7.21886 1.27959-8.60302 2.34921-9.62234 3.41674-10.6458 4.86174-11.1576 6.68634-11.1576 7.30081-11.1576 7.88811-11.0863 8.448-10.9478 9.01218-10.8136 9.55541-10.6122 10.0755-10.3438L10.0755-8.07877C9.54904-8.43108 9.03106-8.69116 8.52351-8.85891 8.0139-9.02672 7.47699-9.11057 6.91281-9.11057 5.90615-9.11057 5.11335-8.78546 4.53868-8.13743 3.96194-7.49358 3.67461-6.60431 3.67461-5.46968 3.67461-4.33923 3.96194-3.45002 4.53868-2.80193 5.11335-2.15808 5.90615-1.83717 6.91281-1.83717 7.47699-1.83717 8.0139-1.91687 8.52351-2.08045 9.03106-2.24823 9.54909-2.51039 10.0755-2.86904Z" fill="#D557F3" fill-rule="nonzero" fill-opacity="1" transform="matrix(1 0 0 1.00484 360.534 565.879)"/><path d="M7.37379-5.98163C7.13891-6.08646 6.90613-6.16613 6.6775-6.21652 6.45307-6.27104 6.2266-6.30037 5.99801-6.30037 5.32059-6.30037 4.80043-6.08228 4.43765-5.64607 4.07273-5.21399 3.89237-4.59739 3.89237-3.79206L3.89237-0.000187916 1.2666-0.000187916 1.2666-8.22123 3.89237-8.22123 3.89237-6.87063C4.22793-7.40752 4.61385-7.79757 5.05003-8.0451 5.49043-8.29671 6.01689-8.4226 6.62717-8.4226 6.71531-8.4226 6.81177-8.41628 6.91244-8.40578 7.01733-8.39948 7.16829-8.38485 7.36542-8.36384Z" fill="#D557F3" fill-rule="nonzero" fill-opacity="1" transform="matrix(1 0 0 1.00484 371.565 565.879)"/><path d="M9.47146-4.13581 9.47146-3.38081 3.32233-3.38081C3.38947-2.76423 3.61177-2.30282 3.99345-1.99663 4.37306-1.68833 4.90786-1.53523 5.59578-1.53523 6.14946-1.53523 6.71364-1.61492 7.29036-1.77851 7.87129-1.94629 8.46693-2.19376 9.07721-2.52512L9.07721-0.503365C8.45648-0.268472 7.83561-0.0923041 7.21483 0.0251485 6.59407 0.146788 5.97323 0.209708 5.35242 0.209708 3.86337 0.209708 2.70565-0.167798 1.87931-0.92283 1.05721-1.67782 0.646108-2.73696 0.646108-4.10229 0.646108-5.44454 1.05088-6.49737 1.86251-7.26496 2.67206-8.03678 3.78569-8.42265 5.20138-8.42265 6.49329-8.42265 7.52722-8.03041 8.30534-7.24819 9.08129-6.47007 9.4714-5.43193 9.4714-4.13581ZM6.77019-5.00828C6.77019-5.50533 6.6234-5.90589 6.33399-6.20791 6.04244-6.51409 5.66284-6.66936 5.19306-6.66936 4.68343-6.66936 4.27026-6.52675 3.95149-6.24145 3.63273-5.95623 3.43346-5.54516 3.35585-5.00828Z" fill="#D557F3" fill-rule="nonzero" fill-opacity="1" transform="matrix(1 0 0 1.00484 378.98 565.879)"/><path d="M7.68411-7.96114 7.68411-5.96455C7.12411-6.19943 6.58096-6.37561 6.05667-6.49308 5.53021-6.6105 5.03532-6.66921 4.57181-6.66921 4.07268-6.66921 3.70144-6.60631 3.45608-6.48466 3.2149-6.36092 3.09535-6.16795 3.09535-5.90584 3.09535-5.6982 3.18762-5.53884 3.37218-5.42764 3.55675-5.31441 3.88602-5.2305 4.36211-5.17598L4.82352-5.10887C6.16995-4.9348 7.07596-4.65166 7.54155-4.2616 8.00511-3.86941 8.23789-3.25699 8.23789-2.42437 8.23789-1.54562 7.91284-0.88496 7.26475-0.444542 6.6209-0.00831124 5.65824 0.209832 4.37891 0.209832 3.82944 0.209832 3.26529 0.167886 2.68436 0.0839928 2.10761 0.000102011 1.51407-0.12783 0.905873-0.301904L0.905873-2.29854C1.426-2.04057 1.95868-1.84762 2.50819-1.7197 3.06186-1.59596 3.62394-1.53514 4.19439-1.53514 4.70821-1.53514 5.09413-1.60435 5.35205-1.74486 5.6079-1.88957 5.73798-2.1014 5.73798-2.38244 5.73798-2.61733 5.64778-2.7893 5.46952-2.90256 5.28911-3.02 4.9347-3.10809 4.40408-3.17101L3.94268-3.22974C2.7724-3.37444 1.95448-3.645 1.48469-4.04345 1.0149-4.43983 0.780002-5.04177 0.780002-5.84713 0.780002-6.7196 1.07572-7.36555 1.66922-7.78502 2.26695-8.20867 3.18344-8.4226 4.42082-8.4226 4.9011-8.4226 5.40653-8.38277 5.93925-8.30518 6.47613-8.23173 7.05711-8.11642 7.68416-7.96114Z" fill="#D557F3" fill-rule="nonzero" fill-opacity="1" transform="matrix(1 0 0 1.00484 389.175 565.879)"/><path d="M9.53001-5.00828 9.53001 0 6.8874 0 6.8874-3.83379C6.8874-4.54266 6.87069-5.03345 6.83712-5.30193 6.80355-5.57038 6.74692-5.76752 6.66936-5.89752 6.56867-6.06532 6.42808-6.19535 6.24982-6.29187 6.0758-6.38622 5.87656-6.43443 5.65423-6.43443 5.10474-6.43443 4.6748-6.22055 4.36232-5.7969 4.04772-5.3774 3.89252-4.79227 3.89252-4.04356L3.89252-5.36898e-05 1.26676-5.36898e-05 1.26676-8.22107 3.89252-8.22107 3.89252-7.02144C4.28892-7.4954 4.70836-7.84776 5.15092-8.07851 5.5976-8.30711 6.09049-8.42244 6.62737-8.42244 7.57743-8.42244 8.29891-8.12879 8.79173-7.54155 9.28251-6.95857 9.53001-6.11548 9.53001-5.00807Z" fill="#D557F3" fill-rule="nonzero" fill-opacity="1" transform="matrix(1 0 0 1.00484 398.124 565.879)"/><path d="M4.94959-3.69957C4.40013-3.69957 3.98693-3.6073 3.708-3.42275 3.43325-3.23817 3.29693-2.96342 3.29693-2.60064 3.29693-2.26506 3.40808-2.00081 3.63249-1.81203 3.85482-1.62747 4.16311-1.53519 4.55532-1.53519 5.05237-1.53519 5.46973-1.71136 5.80529-2.06371 6.14507-2.42024 6.31701-2.86488 6.31701-3.39758L6.31701-3.6996ZM8.95959-4.68951 8.95959 0 6.31701 0 6.31701-1.2164C5.9647-0.717253 5.56625-0.354409 5.12575-0.12585 4.68322 0.0964594 4.14631 0.209713 3.51505 0.209713 2.66356 0.209713 1.97354-0.0356663 1.44292-0.528523 0.910217-1.02558 0.645946-1.67153 0.645946-2.46641 0.645946-3.42698 0.975218-4.13167 1.63589-4.58047 2.30073-5.03347 3.34305-5.25993 4.76499-5.25993L6.31696-5.25993 6.31696-5.46968C6.31696-5.88288 6.15128-6.18485 5.82199-6.37572 5.49058-6.57075 4.9789-6.66936 4.28679-6.66936 3.72053-6.66936 3.19623-6.61268 2.70963-6.50153 2.22727-6.3883 1.78053-6.22055 1.36739-5.99822L1.36739-8.00321C1.92529-8.13743 2.48731-8.24021 3.05357-8.31361 3.62404-8.3849 4.19449-8.42265 4.76497-8.42265 6.24558-8.42265 7.31519-8.12905 7.96962-7.54176 8.62816-6.95878 8.95953-6.00867 8.95953-4.68954Z" fill="#D557F3" fill-rule="nonzero" fill-opacity="1" transform="matrix(1 0 0 1.00484 408.826 565.879)"/><path d="M7.37379-5.98163C7.13891-6.08646 6.90613-6.16613 6.6775-6.21652 6.45307-6.27104 6.2266-6.30037 5.99801-6.30037 5.32059-6.30037 4.80043-6.08228 4.43765-5.64607 4.07273-5.21399 3.89237-4.59739 3.89237-3.79206L3.89237-0.000187916 1.2666-0.000187916 1.2666-8.22123 3.89237-8.22123 3.89237-6.87063C4.22793-7.40752 4.61385-7.79757 5.05003-8.0451 5.49043-8.29671 6.01689-8.4226 6.62717-8.4226 6.71531-8.4226 6.81177-8.41628 6.91244-8.40578 7.01733-8.39948 7.16829-8.38485 7.36542-8.36384Z" fill="#D557F3" fill-rule="nonzero" fill-opacity="1" transform="matrix(1 0 0 1.00484 418.969 565.879)"/><path d="M6.66942-11.4258 6.66942-9.69761 5.2181-9.69761C4.84897-9.69761 4.58889-9.63047 4.43791-9.49629 4.29111-9.36202 4.21979-9.12716 4.21979-8.79157L4.21979-8.22112 6.4681-8.22112 6.4681-6.34199 4.21979-6.34199 4.21979-0.00010738 1.59403-0.00010738 1.59403-6.34199 0.285336-6.34199 0.285336-8.22112 1.59403-8.22112 1.59403-8.79157C1.59403-9.68505 1.84151-10.3477 2.34065-10.7798 2.83768-11.2097 3.61159-11.4258 4.6644-11.4258Z" fill="#D557F3" fill-rule="nonzero" fill-opacity="1" transform="matrix(1 0 0 1.00484 198.89 580.985)"/><path d="M7.37379-5.98163C7.13891-6.08646 6.90613-6.16613 6.6775-6.21652 6.45307-6.27104 6.2266-6.30037 5.99801-6.30037 5.32059-6.30037 4.80043-6.08228 4.43765-5.64607 4.07273-5.21399 3.89237-4.59739 3.89237-3.79206L3.89237-0.000187916 1.2666-0.000187916 1.2666-8.22123 3.89237-8.22123 3.89237-6.87063C4.22793-7.40752 4.61385-7.79757 5.05003-8.0451 5.49043-8.29671 6.01689-8.4226 6.62717-8.4226 6.71531-8.4226 6.81177-8.41628 6.91244-8.40578 7.01733-8.39948 7.16829-8.38485 7.36542-8.36384Z" fill="#D557F3" fill-rule="nonzero" fill-opacity="1" transform="matrix(1 0 0 1.00484 205.43 580.985)"/><path d="M5.17606-6.54373C4.59302-6.54373 4.14837-6.33404 3.84216-5.91457 3.53387-5.49508 3.38078-4.89112 3.38078-4.10253 3.38078-3.31391 3.53387-2.70989 3.84216-2.29047 4.14837-1.87521 4.59297-1.66971 5.17606-1.66971 5.74648-1.66971 6.18274-1.87524 6.48476-2.29047 6.79094-2.70992 6.94617-3.31391 6.94617-4.10253 6.94617-4.89112 6.79094-5.49513 6.48476-5.91457 6.18274-6.33399 5.74648-6.54373 5.17606-6.54373ZM5.17606-8.42291C6.58957-8.42291 7.69485-8.03914 8.48973-7.27364 9.28251-6.51232 9.68104-5.4553 9.68104-4.10258 9.68104-2.75404 9.28251-1.69698 8.48973-0.931525 7.69485-0.170198 6.58957 0.209391 5.17606 0.209391 3.75412 0.209391 2.64466-0.170214 1.8456-0.931525 1.04443-1.69704 0.645946-2.75404 0.645946-4.10258 0.645946-5.4553 1.04443-6.51237 1.8456-7.27364 2.64466-8.03914 3.75412-8.42291 5.17606-8.42291Z" fill="#D557F3" fill-rule="nonzero" fill-opacity="1" transform="matrix(1 0 0 1.00484 212.845 580.985)"/><path d="M8.88411-6.85405C9.21335-7.36163 9.6077-7.75171 10.0669-8.02016 10.5242-8.28862 11.0275-8.42286 11.577-8.42286 12.5208-8.42286 13.2401-8.12921 13.7329-7.54202 14.2301-6.95898 14.4796-6.11589 14.4796-5.00848L14.4796-0.00021476 11.837-0.00021476 11.837-4.28705 11.837-4.48C11.8412-4.55129 11.8454-4.65197 11.8454-4.782 11.8454-5.36292 11.7573-5.78241 11.5853-6.04039 11.4175-6.30258 11.1428-6.43469 10.7632-6.43469 10.2641-6.43469 9.87818-6.22702 9.60554-5.81393 9.33082-5.40491 9.19029-4.81143 9.18613-4.03542L9.18613-0.000300664 6.54352-0.000300664 6.54352-4.28713C6.54352-5.19733 6.46386-5.78252 6.30864-6.04044 6.15133-6.30258 5.87243-6.43469 5.46973-6.43469 4.96639-6.43469 4.57625-6.22707 4.30364-5.81393 4.02889-5.40497 3.89257-4.81564 3.89257-4.04384L3.89257-0.000343616 1.25-0.000343616 1.25-8.22133 3.89257-8.22133 3.89257-7.0217C4.21555-7.48521 4.5847-7.83541 4.99993-8.07029 5.4194-8.30523 5.8808-8.4227 6.38411-8.4227 6.95459-8.4227 7.45791-8.28428 7.89417-8.01164 8.33037-7.73686 8.65967-7.35097 8.88411-6.85394Z" fill="#D557F3" fill-rule="nonzero" fill-opacity="1" transform="matrix(1 0 0 1.00484 223.172 580.985)"/><path d="M4.13581-10.5533 4.13581-8.22112 6.84547-8.22112 6.84547-6.34199 4.13581-6.34199 4.13581-2.85211C4.13581-2.47042 4.21131-2.21456 4.3623-2.08033 4.51331-1.9461 4.81112-1.87899 5.25993-1.87899L6.6106-1.87899 6.6106 0.00016107 4.3623 0.00016107C3.32207 0.00016107 2.58382-0.213762 2.14759-0.645783 1.71555-1.08202 1.50165-1.81607 1.50165-2.85211L1.50165-6.34199 0.201327-6.34199 0.201327-8.22112 1.50165-8.22112 1.50165-10.5533Z" fill="#D557F3" fill-rule="nonzero" fill-opacity="1" transform="matrix(1 0 0 1.00484 244.071 580.985)"/><path d="M9.53001-5.00828 9.53001 0 6.8874 0 6.8874-3.81704C6.8874-4.53853 6.87069-5.03345 6.83712-5.30193 6.80355-5.57038 6.74692-5.76752 6.66936-5.89752 6.56867-6.06532 6.42808-6.19535 6.24982-6.29187 6.0758-6.38622 5.87656-6.43443 5.65423-6.43443 5.10474-6.43443 4.6748-6.22055 4.36232-5.7969 4.04772-5.3774 3.89252-4.79227 3.89252-4.04356L3.89252-5.36898e-05 1.26676-5.36898e-05 1.26676-11.4259 3.89252-11.4259 3.89252-7.02159C4.28892-7.49555 4.70836-7.84796 5.15092-8.07867 5.5976-8.30726 6.09049-8.4226 6.62737-8.4226 7.57743-8.4226 8.29891-8.12895 8.79173-7.54171 9.28251-6.95872 9.53001-6.11563 9.53001-5.00822Z" fill="#D557F3" fill-rule="nonzero" fill-opacity="1" transform="matrix(1 0 0 1.00484 251.256 580.985)"/><path d="M9.47146-4.13581 9.47146-3.38081 3.32233-3.38081C3.38947-2.76423 3.61177-2.30282 3.99345-1.99663 4.37306-1.68833 4.90786-1.53523 5.59578-1.53523 6.14946-1.53523 6.71364-1.61492 7.29036-1.77851 7.87129-1.94629 8.46693-2.19376 9.07721-2.52512L9.07721-0.503365C8.45648-0.268472 7.83561-0.0923041 7.21483 0.0251485 6.59407 0.146788 5.97323 0.209708 5.35242 0.209708 3.86337 0.209708 2.70565-0.167798 1.87931-0.92283 1.05721-1.67782 0.646108-2.73696 0.646108-4.10229 0.646108-5.44454 1.05088-6.49737 1.86251-7.26496 2.67206-8.03678 3.78569-8.42265 5.20138-8.42265 6.49329-8.42265 7.52722-8.03041 8.30534-7.24819 9.08129-6.47007 9.4714-5.43193 9.4714-4.13581ZM6.77019-5.00828C6.77019-5.50533 6.6234-5.90589 6.33399-6.20791 6.04244-6.51409 5.66284-6.66936 5.19306-6.66936 4.68343-6.66936 4.27026-6.52675 3.95149-6.24145 3.63273-5.95623 3.43346-5.54516 3.35585-5.00828Z" fill="#D557F3" fill-rule="nonzero" fill-opacity="1" transform="matrix(1 0 0 1.00484 261.959 580.985)"/><path d="M1.38418-10.956 4.53848-10.956 8.5233-3.43939 8.5233-10.956 11.1994-10.956 11.1994 0 8.04515 0 4.06033-7.51661 4.06033 0 1.38418 0Z" fill="#D557F3" fill-rule="nonzero" fill-opacity="1" transform="matrix(1 0 0 1.00484 277.388 580.985)"/><path d="M5.17606-6.54373C4.59302-6.54373 4.14837-6.33404 3.84216-5.91457 3.53387-5.49508 3.38078-4.89112 3.38078-4.10253 3.38078-3.31391 3.53387-2.70989 3.84216-2.29047 4.14837-1.87521 4.59297-1.66971 5.17606-1.66971 5.74648-1.66971 6.18274-1.87524 6.48476-2.29047 6.79094-2.70992 6.94617-3.31391 6.94617-4.10253 6.94617-4.89112 6.79094-5.49513 6.48476-5.91457 6.18274-6.33399 5.74648-6.54373 5.17606-6.54373ZM5.17606-8.42291C6.58957-8.42291 7.69485-8.03914 8.48973-7.27364 9.28251-6.51232 9.68104-5.4553 9.68104-4.10258 9.68104-2.75404 9.28251-1.69698 8.48973-0.931525 7.69485-0.170198 6.58957 0.209391 5.17606 0.209391 3.75412 0.209391 2.64466-0.170214 1.8456-0.931525 1.04443-1.69704 0.645946-2.75404 0.645946-4.10258 0.645946-5.4553 1.04443-6.51237 1.8456-7.27364 2.64466-8.03914 3.75412-8.42291 5.17606-8.42291Z" fill="#D557F3" fill-rule="nonzero" fill-opacity="1" transform="matrix(1 0 0 1.00484 289.97 580.985)"/><path d="M1.17447-3.20465 1.17447-8.22133 3.81704-8.22133 3.81704-7.39925C3.81704-6.95046 3.81286-6.39254 3.80864-5.72144 3.80238-5.05029 3.80027-4.6015 3.80027-4.37917 3.80027-3.71223 3.81704-3.23409 3.85061-2.94462 3.88834-2.65311 3.94707-2.44339 4.02676-2.31544 4.13791-2.14137 4.28055-2.00714 4.4546-1.91276 4.62659-1.82258 4.82583-1.77854 5.05024-1.77854 5.5976-1.77854 6.0276-1.98826 6.34215-2.40773 6.65462-2.82718 6.81193-3.41024 6.81193-4.16103L6.81193-8.22133 9.43768-8.22133 9.43768-0.00032214 6.81193-0.00032214 6.81193-1.1916C6.41344-0.709224 5.99403-0.354783 5.55353-0.126172 5.11103 0.0961376 4.62233 0.209391 4.08544 0.209391 3.13958 0.209391 2.41809-0.0800306 1.92109-0.663073 1.42193-1.244 1.17447-2.09134 1.17447-3.20497Z" fill="#D557F3" fill-rule="nonzero" fill-opacity="1" transform="matrix(1 0 0 1.00484 300.299 580.985)"/><path d="M9.53001-5.00828 9.53001 0 6.8874 0 6.8874-3.83379C6.8874-4.54266 6.87069-5.03345 6.83712-5.30193 6.80355-5.57038 6.74692-5.76752 6.66936-5.89752 6.56867-6.06532 6.42808-6.19535 6.24982-6.29187 6.0758-6.38622 5.87656-6.43443 5.65423-6.43443 5.10474-6.43443 4.6748-6.22055 4.36232-5.7969 4.04772-5.3774 3.89252-4.79227 3.89252-4.04356L3.89252-5.36898e-05 1.26676-5.36898e-05 1.26676-8.22107 3.89252-8.22107 3.89252-7.02144C4.28892-7.4954 4.70836-7.84776 5.15092-8.07851 5.5976-8.30711 6.09049-8.42244 6.62737-8.42244 7.57743-8.42244 8.29891-8.12879 8.79173-7.54155 9.28251-6.95857 9.53001-6.11548 9.53001-5.00807Z" fill="#D557F3" fill-rule="nonzero" fill-opacity="1" transform="matrix(1 0 0 1.00484 311.001 580.985)"/><path d="M1.38418-10.956 6.0737-10.956C7.46628-10.956 8.5338-10.6456 9.27832-10.0248 10.0271-9.40825 10.4025-8.5273 10.4025-7.38222 10.4025-6.23503 10.0271-5.35211 9.27832-4.73127 8.53385-4.11051 7.46628-3.80006 6.0737-3.80006L4.20291-3.80006 4.20291 0.00016107 1.38418 0.00016107ZM4.20291-8.90904 4.20291-5.84708 5.7717-5.84708C6.31904-5.84708 6.74061-5.98126 7.03844-6.24972 7.34044-6.51817 7.49142-6.89567 7.49142-7.38227 7.49142-7.87305 7.34044-8.25055 7.03844-8.51482 6.74061-8.77698 6.31909-8.90909 5.7717-8.90909Z" fill="#D557F3" fill-rule="nonzero" fill-opacity="1" transform="matrix(1 0 0 1.00484 326.936 580.985)"/><path d="M7.37379-5.98163C7.13891-6.08646 6.90613-6.16613 6.6775-6.21652 6.45307-6.27104 6.2266-6.30037 5.99801-6.30037 5.32059-6.30037 4.80043-6.08228 4.43765-5.64607 4.07273-5.21399 3.89237-4.59739 3.89237-3.79206L3.89237-0.000187916 1.2666-0.000187916 1.2666-8.22123 3.89237-8.22123 3.89237-6.87063C4.22793-7.40752 4.61385-7.79757 5.05003-8.0451 5.49043-8.29671 6.01689-8.4226 6.62717-8.4226 6.71531-8.4226 6.81177-8.41628 6.91244-8.40578 7.01733-8.39948 7.16829-8.38485 7.36542-8.36384Z" fill="#D557F3" fill-rule="nonzero" fill-opacity="1" transform="matrix(1 0 0 1.00484 337.955 580.985)"/><path d="M5.17606-6.54373C4.59302-6.54373 4.14837-6.33404 3.84216-5.91457 3.53387-5.49508 3.38078-4.89112 3.38078-4.10253 3.38078-3.31391 3.53387-2.70989 3.84216-2.29047 4.14837-1.87521 4.59297-1.66971 5.17606-1.66971 5.74648-1.66971 6.18274-1.87524 6.48476-2.29047 6.79094-2.70992 6.94617-3.31391 6.94617-4.10253 6.94617-4.89112 6.79094-5.49513 6.48476-5.91457 6.18274-6.33399 5.74648-6.54373 5.17606-6.54373ZM5.17606-8.42291C6.58957-8.42291 7.69485-8.03914 8.48973-7.27364 9.28251-6.51232 9.68104-5.4553 9.68104-4.10258 9.68104-2.75404 9.28251-1.69698 8.48973-0.931525 7.69485-0.170198 6.58957 0.209391 5.17606 0.209391 3.75412 0.209391 2.64466-0.170214 1.8456-0.931525 1.04443-1.69704 0.645946-2.75404 0.645946-4.10258 0.645946-5.4553 1.04443-6.51237 1.8456-7.27364 2.64466-8.03914 3.75412-8.42291 5.17606-8.42291Z" fill="#D557F3" fill-rule="nonzero" fill-opacity="1" transform="matrix(1 0 0 1.00484 345.367 580.985)"/><path d="M1.26676-8.22102 3.89252-8.22102 3.89252-0.150869C3.89252 0.950208 3.62617 1.79121 3.09556 2.37423 2.56914 2.95515 1.80367 3.2467 0.796978 3.2467L-0.503345 3.2467-0.503345 1.51852-0.0419428 1.51852C0.455109 1.51852 0.796967 1.40526 0.981497 1.18296 1.17025 0.958547 1.26672 0.513921 1.26672-0.150923ZM1.26676-11.4257 3.89252-11.4257 3.89252-9.27806 1.26676-9.27806Z" fill="#D557F3" fill-rule="nonzero" fill-opacity="1" transform="matrix(1 0 0 1.00484 355.696 580.985)"/><path d="M9.47146-4.13581 9.47146-3.38081 3.32233-3.38081C3.38947-2.76423 3.61177-2.30282 3.99345-1.99663 4.37306-1.68833 4.90786-1.53523 5.59578-1.53523 6.14946-1.53523 6.71364-1.61492 7.29036-1.77851 7.87129-1.94629 8.46693-2.19376 9.07721-2.52512L9.07721-0.503365C8.45648-0.268472 7.83561-0.0923041 7.21483 0.0251485 6.59407 0.146788 5.97323 0.209708 5.35242 0.209708 3.86337 0.209708 2.70565-0.167798 1.87931-0.92283 1.05721-1.67782 0.646108-2.73696 0.646108-4.10229 0.646108-5.44454 1.05088-6.49737 1.86251-7.26496 2.67206-8.03678 3.78569-8.42265 5.20138-8.42265 6.49329-8.42265 7.52722-8.03041 8.30534-7.24819 9.08129-6.47007 9.4714-5.43193 9.4714-4.13581ZM6.77019-5.00828C6.77019-5.50533 6.6234-5.90589 6.33399-6.20791 6.04244-6.51409 5.66284-6.66936 5.19306-6.66936 4.68343-6.66936 4.27026-6.52675 3.95149-6.24145 3.63273-5.95623 3.43346-5.54516 3.35585-5.00828Z" fill="#D557F3" fill-rule="nonzero" fill-opacity="1" transform="matrix(1 0 0 1.00484 360.849 580.985)"/><path d="M7.90264-7.96114 7.90264-5.82193C7.55029-6.06733 7.19166-6.24977 6.82885-6.36724 6.47018-6.48466 6.09899-6.54337 5.7131-6.54337 4.97905-6.54337 4.4065-6.32736 3.99335-5.89741 3.58439-5.47166 3.38096-4.87398 3.38096-4.10214 3.38096-3.33455 3.58442-2.7368 3.99335-2.30686 4.40652-1.88111 4.97905-1.66929 5.7131-1.66929 6.11998-1.66929 6.51006-1.72802 6.87919-1.84546 7.24834-1.9671 7.58809-2.14956 7.90264-2.39073L7.90264-0.24313C7.49368-0.0921267 7.0763 0.0190278 6.65267 0.092433 6.23321 0.170031 5.8075 0.20988 5.37756 0.20988 3.89478 0.20988 2.73498-0.169725 1.89607-0.931033 1.06135-1.69027 0.646108-2.74726 0.646108-4.10208 0.646108-5.4611 1.06137-6.52025 1.89607-7.28157 2.73498-8.04081 3.89478-8.42249 5.37756-8.42249 5.8075-8.42249 6.23326-8.38266 6.65267-8.30497 7.07211-8.23163 7.48739-8.11631 7.90264-7.96104Z" fill="#D557F3" fill-rule="nonzero" fill-opacity="1" transform="matrix(1 0 0 1.00484 371.045 580.985)"/><path d="M4.13581-10.5533 4.13581-8.22112 6.84547-8.22112 6.84547-6.34199 4.13581-6.34199 4.13581-2.85211C4.13581-2.47042 4.21131-2.21456 4.3623-2.08033 4.51331-1.9461 4.81112-1.87899 5.25993-1.87899L6.6106-1.87899 6.6106 0.00016107 4.3623 0.00016107C3.32207 0.00016107 2.58382-0.213762 2.14759-0.645783 1.71555-1.08202 1.50165-1.81607 1.50165-2.85211L1.50165-6.34199 0.201327-6.34199 0.201327-8.22112 1.50165-8.22112 1.50165-10.5533Z" fill="#D557F3" fill-rule="nonzero" fill-opacity="1" transform="matrix(1 0 0 1.00484 379.955 580.985)"/></g></g></g></g></g></g><text fill="#FFFFFF" fill-opacity="1" font-family="Jost SemiBold,Jost SemiBold_MSFontService,sans-serif" font-style="normal" font-variant="normal" font-weight="600" font-stretch="normal" font-size="1315" text-anchor="start" direction="ltr" writing-mode="lr-tb" unicode-bidi="normal" text-decoration="none" transform="matrix(0.260004 0 0 0.260808 528.865 483)">tick</text></g></g></g></g></g></svg>