<svg width="4130" height="2773" xmlns="http://www.w3.org/2000/svg" xmlns:xlink="http://www.w3.org/1999/xlink" xml:space="preserve" overflow="hidden"><defs><clipPath id="clip0"><rect x="563" y="87" width="4130" height="2773"/></clipPath><clipPath id="clip1"><rect x="564" y="682" width="1111" height="1111"/></clipPath><clipPath id="clip2"><rect x="564" y="682" width="1111" height="1111"/></clipPath><clipPath id="clip3"><rect x="367" y="632" width="1494" height="1495"/></clipPath></defs><g clip-path="url(#clip0)" transform="translate(-563 -87)"><g clip-path="url(#clip1)"><g clip-path="url(#clip2)"><g clip-path="url(#clip3)"><path d="M1258.22 181.214C1249.25 172.24 1237.1 167.199 1224.41 167.199 1211.73 167.199 1199.57 172.24 1190.61 181.214L746.598 625.222 589.273 467.896C577.199 455.823 559.593 451.107 543.095 455.522 526.598 459.946 513.716 472.828 509.289 489.328 504.874 505.827 509.59 523.432 521.664 535.505L712.795 726.637C721.76 735.611 733.917 740.651 746.601 740.651 759.284 740.651 771.441 735.611 780.406 726.637L1258.22 248.819C1267.2 239.854 1272.24 227.697 1272.24 215.014 1272.24 202.332 1267.2 190.168 1258.22 181.208Z" fill="#D557F3" fill-rule="nonzero" fill-opacity="1" transform="matrix(1 0 0 1.00017 367.408 632.896)"/><path d="M1261.67 491.917C1258.26 475.185 1246.17 461.546 1229.99 456.139 1213.79 450.731 1195.94 454.372 1183.16 465.697 1170.38 477.02 1164.61 494.3 1168.02 511.026 1187.71 607.165 1173.93 707.146 1128.95 794.365 1083.98 881.592 1010.53 950.808 920.801 990.529 831.07 1030.25 730.446 1038.09 635.647 1012.73 540.849 987.386 457.566 930.377 399.639 851.168 341.704 771.959 312.606 675.32 317.164 577.299 321.731 479.268 359.686 385.75 424.729 312.279 489.771 238.798 577.989 189.767 674.73 173.336 771.477 156.904 870.933 174.061 956.599 221.948 971.531 230.312 989.795 230.071 1004.51 221.323 1019.23 212.565 1028.15 196.634 1027.93 179.509 1027.7 162.394 1018.36 146.695 1003.42 138.329 902.749 81.9425 786.313 60.2615 672.084 76.6182 557.863 92.975 452.182 146.469 371.379 228.853 290.579 311.228 239.126 417.909 224.969 532.438 210.813 646.961 234.734 762.964 293.054 862.537 351.364 962.111 440.829 1039.73 547.641 1083.4 654.446 1127.09 772.642 1134.4 884.033 1104.23 995.413 1074.06 1093.77 1008.07 1163.92 916.458 1234.07 824.835 1272.13 712.68 1272.2 597.28 1272.18 561.901 1268.67 526.604 1261.69 491.924Z" fill="#D557F3" fill-rule="nonzero" fill-opacity="1" transform="matrix(1 0 0 1.00017 367.408 632.896)"/><path d="M40.03-2.39975C37.9637-1.3332 35.8054-0.533278 33.5641 0 31.3393 0.549938 29.0063 0.833237 26.5649 0.833237 19.3158 0.833237 13.5747-1.18322 9.33344-5.23291 5.08385-9.29905 2.96737-14.7986 2.96737-21.7313 2.96737-28.6806 5.08383-34.18 9.33344-38.2297 13.5747-42.2958 19.3158-44.3291 26.5649-44.3291 29.0063-44.3291 31.3395-44.0458 33.5641-43.4959 35.8056-42.9626 37.9637-42.1627 40.03-41.0961L40.03-32.097C37.9385-33.4967 35.8805-34.53 33.864-35.1966 31.8393-35.8632 29.7062-36.1964 27.4647-36.1964 23.4651-36.1964 20.3153-34.9048 18.0323-32.3301 15.7409-29.7721 14.5992-26.239 14.5992-21.7311 14.5992-17.2398 15.7408-13.707 18.0323-11.1321 20.3153-8.57407 23.4651-7.29911 27.4647-7.29911 29.7062-7.29911 31.8393-7.61575 33.864-8.26567 35.8805-8.93226 37.9387-9.97382 40.03-11.3988Z" fill="#D557F3" fill-rule="nonzero" fill-opacity="1" transform="matrix(1 0 0 1.00017 516.726 2006.86)"/><path d="M29.2962-23.765C28.3629-24.1816 27.438-24.4982 26.5298-24.6983 25.6381-24.915 24.7384-25.0315 23.8301-25.0315 21.1387-25.0315 19.0722-24.165 17.6308-22.4318 16.181-20.7152 15.4644-18.2655 15.4644-15.0659L15.4644-0.00074659 5.03223-0.00074659 5.03223-32.6631 15.4644-32.6631 15.4644-27.297C16.7976-29.4301 18.3309-30.9799 20.0639-31.9632 21.8137-32.963 23.9052-33.463 26.3299-33.463 26.6799-33.463 27.0632-33.4381 27.4632-33.3962 27.8798-33.3713 28.4796-33.3131 29.2629-33.2296Z" fill="#D557F3" fill-rule="nonzero" fill-opacity="1" transform="matrix(1 0 0 1.00017 560.563 2006.86)"/><path d="M37.6303-16.4316 37.6303-13.432 13.1997-13.432C13.4663-10.9823 14.3496-9.14914 15.8661-7.93262 17.3743-6.70775 19.499-6.09947 22.2322-6.09947 24.4318-6.09947 26.6733-6.41611 28.9647-7.06603 31.2727-7.73262 33.6392-8.71586 36.0639-10.0323L36.0639-1.99988C33.5976-1.06664 31.1311-0.366725 28.6646 0.0999151 26.1983 0.583193 23.7317 0.833173 21.2652 0.833173 15.3492 0.833173 10.7496-0.666662 7.46654-3.66642 4.20031-6.666 2.56699-10.874 2.56699-16.2985 2.56699-21.6313 4.17517-25.8141 7.39977-28.8638 10.6161-31.9302 15.0406-33.4632 20.6652-33.4632 25.7979-33.4632 29.9058-31.905 32.9971-28.797 36.0801-25.7057 37.63-21.5811 37.63-16.4316ZM26.8981-19.8979C26.8981-21.8727 26.3149-23.4643 25.165-24.6641 24.0067-25.8806 22.4986-26.4973 20.6321-26.4973 18.6073-26.4973 16.9657-25.9308 15.6993-24.7974 14.4329-23.6641 13.6412-22.031 13.3328-19.8979Z" fill="#D557F3" fill-rule="nonzero" fill-opacity="1" transform="matrix(1 0 0 1.00017 590.018 2006.86)"/><path d="M19.6647-14.6984C17.4817-14.6984 15.8401-14.3318 14.7319-13.5986 13.6404-12.8653 13.0988-11.7737 13.0988-10.3323 13.0988-8.99914 13.5404-7.94922 14.432-7.19922 15.3152-6.46596 16.5401-6.09934 18.0984-6.09934 20.0732-6.09934 21.7313-6.79926 23.0645-8.19913 24.4143-9.61565 25.0976-11.3822 25.0976-13.4986L25.0976-14.6985ZM35.5965-18.6315 35.5965 0 25.0976 0 25.0976-4.83278C23.6978-2.84965 22.1146-1.40807 20.3646-0.500002 18.6065 0.383235 16.4734 0.833194 13.9653 0.833194 10.5824 0.833194 7.8409-0.141703 5.73274-2.09984 3.61629-4.07463 2.56635-6.64102 2.56635-9.7991 2.56635-13.6155 3.87455-16.4152 6.49938-18.1982 9.14082-19.998 13.282-20.8979 18.9314-20.8979L25.0974-20.8979 25.0974-21.7311C25.0974-23.3727 24.4391-24.5724 23.1308-25.3307 21.8143-26.1057 19.7813-26.4973 17.0315-26.4973 14.7817-26.4973 12.6987-26.2723 10.7654-25.8307 8.84897-25.3809 7.07409-24.7143 5.43266-23.8309L5.43266-31.7968C7.64918-32.3301 9.88212-32.7384 12.1319-33.03 14.3983-33.3133 16.6648-33.4632 18.9312-33.4632 24.8139-33.4632 29.0635-32.2968 31.6633-29.9636 34.2798-27.6473 35.5963-23.8725 35.5963-18.6316Z" fill="#D557F3" fill-rule="nonzero" fill-opacity="1" transform="matrix(1 0 0 1.00017 630.523 2006.86)"/><path d="M16.4316-41.9285 16.4316-32.6627 27.1972-32.6627 27.1972-25.1968 16.4316-25.1968 16.4316-11.3315C16.4316-9.81501 16.7315-8.79846 17.3315-8.26518 17.9315-7.7319 19.1147-7.46526 20.8979-7.46526L26.264-7.46526 26.264 0.000639934 17.3315 0.000639934C13.1986 0.000639934 10.2656-0.849278 8.53241-2.56571 6.81592-4.29886 5.96606-7.21526 5.96606-11.3315L5.96606-25.1968 0.799875-25.1968 0.799875-32.6627 5.96606-32.6627 5.96606-41.9285Z" fill="#D557F3" fill-rule="nonzero" fill-opacity="1" transform="matrix(1 0 0 1.00017 670.826 2006.86)"/><path d="M37.6303-16.4316 37.6303-13.432 13.1997-13.432C13.4663-10.9823 14.3496-9.14914 15.8661-7.93262 17.3743-6.70775 19.499-6.09947 22.2322-6.09947 24.4318-6.09947 26.6733-6.41611 28.9647-7.06603 31.2727-7.73262 33.6392-8.71586 36.0639-10.0323L36.0639-1.99988C33.5976-1.06664 31.1311-0.366725 28.6646 0.0999151 26.1983 0.583193 23.7317 0.833173 21.2652 0.833173 15.3492 0.833173 10.7496-0.666662 7.46654-3.66642 4.20031-6.666 2.56699-10.874 2.56699-16.2985 2.56699-21.6313 4.17517-25.8141 7.39977-28.8638 10.6161-31.9302 15.0406-33.4632 20.6652-33.4632 25.7979-33.4632 29.9058-31.905 32.9971-28.797 36.0801-25.7057 37.63-21.5811 37.63-16.4316ZM26.8981-19.8979C26.8981-21.8727 26.3149-23.4643 25.165-24.6641 24.0067-25.8806 22.4986-26.4973 20.6321-26.4973 18.6073-26.4973 16.9657-25.9308 15.6993-24.7974 14.4329-23.6641 13.6412-22.031 13.3328-19.8979Z" fill="#D557F3" fill-rule="nonzero" fill-opacity="1" transform="matrix(1 0 0 1.00017 699.382 2006.86)"/><path d="M27.2313-27.8969 27.2313-45.395 37.7303-45.395 37.7303-0.000213311 27.2313-0.000213311 27.2313-4.73317C25.8064-2.80003 24.2317-1.38354 22.4984-0.500215 20.765 0.383107 18.7488 0.832981 16.4657 0.832981 12.4412 0.832981 9.14146-0.766854 6.56679-3.96653 3.9838-7.1662 2.70052-11.2741 2.70052-16.2985 2.70052-21.3397 3.98372-25.4643 6.56679-28.6639 9.14146-31.8636 12.4412-33.4634 16.4657-33.4634 18.7322-33.4634 20.7319-33.0052 22.4651-32.097 24.2149-31.1804 25.8064-29.7806 27.2313-27.8973ZM20.3653-6.73232C22.5818-6.73232 24.2814-7.54058 25.4647-9.16535 26.6396-10.8068 27.2311-13.1816 27.2311-16.2981 27.2311-19.406 26.6396-21.7725 25.4647-23.3973 24.2814-25.0387 22.5816-25.8636 20.3653-25.8636 18.1404-25.8636 16.4408-25.0387 15.2658-23.3973 14.0826-21.7725 13.4994-19.406 13.4994-16.2981 13.4994-13.1818 14.0826-10.807 15.2658-9.16535 16.4407-7.54051 18.1406-6.73232 20.3653-6.73232Z" fill="#D557F3" fill-rule="nonzero" fill-opacity="1" transform="matrix(1 0 0 1.00017 739.886 2006.86)"/><path d="M22.3977-6.73253C24.6392-6.73253 26.3474-7.54079 27.5304-9.16556 28.7053-10.8071 29.2968-13.1818 29.2968-16.2983 29.2968-19.4062 28.7053-21.7727 27.5304-23.3975 26.3472-25.0389 24.639-25.8638 22.3977-25.8638 20.1479-25.8638 18.4314-25.0389 17.2315-23.3975 16.0483-21.7477 15.465-19.3813 15.465-16.2983 15.465-13.207 16.0483-10.8405 17.2315-9.19905 18.4314-7.54922 20.1479-6.73275 22.3977-6.73275ZM15.4651-27.8971C16.9066-29.7802 18.4981-31.1802 20.2313-32.0968 21.9811-33.005 23.9975-33.4632 26.264-33.4632 30.3051-33.4632 33.6132-31.8634 36.1962-28.6637 38.7708-25.464 40.0624-21.3395 40.0624-16.2983 40.0624-11.2738 38.7708-7.16603 36.1962-3.96635 33.6132-0.766684 30.3051 0.833152 26.264 0.833152 23.9975 0.833152 21.9811 0.383193 20.2313-0.500045 18.4981-1.40828 16.9066-2.81639 15.4651-4.733L15.4651-4.26623e-05 5.03287-4.26623e-05 5.03287-45.3948 15.4651-45.3948Z" fill="#D557F3" fill-rule="nonzero" fill-opacity="1" transform="matrix(1 0 0 1.00017 803.438 2006.86)"/><path d="M0.733258-32.6622 11.1655-32.6622 19.9646-10.4971 27.4306-32.6622 37.8628-32.6622 24.1308 3.10155C22.7475 6.71782 21.1395 9.25089 19.298 10.7008 17.4481 12.1673 15.0317 12.9004 12.0321 12.9004L5.966 12.9004 5.966 6.03437 9.23222 6.03437C11.007 6.03437 12.2986 5.74273 13.0985 5.16779 13.9151 4.60951 14.5483 3.60961 14.9983 2.1682L15.2982 1.26829Z" fill="#D557F3" fill-rule="nonzero" fill-opacity="1" transform="matrix(1 0 0 1.00017 846.192 2006.86)"/><path d="M44.629-3.23295C41.8293-1.87475 38.9129-0.849833 35.8965-0.166596 32.8969 0.500002 29.7804 0.833301 26.5641 0.833301 19.3149 0.833301 13.5739-1.18315 9.33259-5.23285 5.083-9.29899 2.96652-14.7986 2.96652-21.7311 2.96652-28.7473 5.11627-34.2717 9.43242-38.296 13.7652-42.3124 19.6814-44.3287 27.1972-44.3287 30.0803-44.3287 32.8465-44.0454 35.4963-43.4955 38.1627-42.9622 40.6708-42.1623 43.0287-41.0957L43.0287-32.0965C40.5791-33.4715 38.1627-34.4963 35.7629-35.1629 33.3632-35.8461 30.9634-36.1962 28.5637-36.1962 24.0724-36.1962 20.6144-34.9381 18.198-32.4299 15.7983-29.9385 14.5984-26.3723 14.5984-21.7311 14.5984-17.1317 15.7649-13.5737 18.098-11.0655 20.4312-8.54912 23.739-7.29932 28.0302-7.29932 29.1801-7.29932 30.2633-7.36598 31.2631-7.4993 32.2798-7.64928 33.1795-7.8826 33.9628-8.19922L33.9628-16.6651 27.1302-16.6651 27.1302-24.1643 44.6284-24.1643Z" fill="#D557F3" fill-rule="nonzero" fill-opacity="1" transform="matrix(1 0 0 1.00017 905.919 2006.86)"/><path d="M29.2962-23.765C28.3629-24.1816 27.438-24.4982 26.5298-24.6983 25.6381-24.915 24.7384-25.0315 23.8301-25.0315 21.1387-25.0315 19.0722-24.165 17.6308-22.4318 16.181-20.7152 15.4644-18.2655 15.4644-15.0659L15.4644-0.00074659 5.03223-0.00074659 5.03223-32.6631 15.4644-32.6631 15.4644-27.297C16.7976-29.4301 18.3309-30.9799 20.0639-31.9632 21.8137-32.963 23.9052-33.463 26.3299-33.463 26.6799-33.463 27.0632-33.4381 27.4632-33.3962 27.8798-33.3713 28.4796-33.3131 29.2629-33.2296Z" fill="#D557F3" fill-rule="nonzero" fill-opacity="1" transform="matrix(1 0 0 1.00017 954.94 2006.86)"/><path d="M37.6303-16.4316 37.6303-13.432 13.1997-13.432C13.4663-10.9823 14.3496-9.14914 15.8661-7.93262 17.3743-6.70775 19.499-6.09947 22.2322-6.09947 24.4318-6.09947 26.6733-6.41611 28.9647-7.06603 31.2727-7.73262 33.6392-8.71586 36.0639-10.0323L36.0639-1.99988C33.5976-1.06664 31.1311-0.366725 28.6646 0.0999151 26.1983 0.583193 23.7317 0.833173 21.2652 0.833173 15.3492 0.833173 10.7496-0.666662 7.46654-3.66642 4.20031-6.666 2.56699-10.874 2.56699-16.2985 2.56699-21.6313 4.17517-25.8141 7.39977-28.8638 10.6161-31.9302 15.0406-33.4632 20.6652-33.4632 25.7979-33.4632 29.9058-31.905 32.9971-28.797 36.0801-25.7057 37.63-21.5811 37.63-16.4316ZM26.8981-19.8979C26.8981-21.8727 26.3149-23.4643 25.165-24.6641 24.0067-25.8806 22.4986-26.4973 20.6321-26.4973 18.6073-26.4973 16.9657-25.9308 15.6993-24.7974 14.4329-23.6641 13.6412-22.031 13.3328-19.8979Z" fill="#D557F3" fill-rule="nonzero" fill-opacity="1" transform="matrix(1 0 0 1.00017 984.394 2006.86)"/><path d="M27.2313-5.53287C25.8064-3.6414 24.2317-2.24148 22.4984-1.3332 20.7652-0.441619 18.7488 4.73647e-16 16.4657 4.73647e-16 12.4828 4.73647e-16 9.19991-1.56652 6.60007-4.69946 4.00023-7.84922 2.70052-11.8488 2.70052-16.6982 2.70052-21.5811 4.0004-25.5807 6.60007-28.697 9.19991-31.8301 12.4828-33.3965 16.4657-33.3965 18.7488-33.3965 20.7652-32.9383 22.4984-32.03 24.2315-31.1383 25.8064-29.7386 27.2313-27.8303L27.2313-32.6631 37.7303-32.6631 37.7303-3.2986C37.7303 1.94246 36.0722 5.95036 32.7642 8.73344 29.4479 11.5082 24.64 12.8996 18.3324 12.8996 16.3076 12.8996 14.3411 12.7413 12.4331 12.433 10.5166 12.1164 8.60008 11.6414 6.66705 10.9998L6.66705 2.86731C8.50852 3.90887 10.3 4.68378 12.0331 5.20051 13.7829 5.70879 15.5493 5.96711 17.3326 5.96711 20.749 5.96711 23.2486 5.21719 24.8318 3.73395 26.4316 2.24244 27.2315-0.0990405 27.2315-3.29871ZM20.3653-25.864C18.2072-25.864 16.5156-25.0641 15.2991-23.4643 14.0992-21.8811 13.4993-19.6313 13.4993-16.6982 13.4993-13.7153 14.0742-11.4488 15.2325-9.89893 16.4073-8.36575 18.1156-7.59922 20.3652-7.59922 22.54-7.59922 24.2313-8.38248 25.4312-9.96569 26.6311-11.5655 27.2311-13.807 27.2311-16.6982 27.2311-19.6313 26.6311-21.8811 25.4312-23.4643 24.2313-25.0641 22.54-25.864 20.3652-25.864Z" fill="#D557F3" fill-rule="nonzero" fill-opacity="1" transform="matrix(1 0 0 1.00017 1024.91 2006.86)"/><path d="M20.5645-25.9984C18.2481-25.9984 16.4815-25.1652 15.265-23.4986 14.0401-21.832 13.4318-19.4325 13.4318-16.2993 13.4318-13.1662 14.0401-10.7665 15.265-9.10008 16.4815-7.45024 18.2479-6.63377 20.5645-6.63377 22.8309-6.63377 24.5641-7.45035 25.764-9.10008 26.9805-10.7666 27.5972-13.1662 27.5972-16.2993 27.5972-19.4325 26.9805-21.8322 25.764-23.4986 24.5641-25.165 22.8309-25.9984 20.5645-25.9984ZM20.5645-33.4643C26.1806-33.4643 30.5718-31.9395 33.7299-28.8981 36.8796-25.8734 38.4628-21.6739 38.4628-16.2995 38.4628-10.9418 36.8796-6.74213 33.7299-3.70095 30.5718-0.676197 26.1806 0.831914 20.5645 0.831914 14.9152 0.831914 10.5073-0.676261 7.33258-3.70095 4.14955-6.74235 2.56635-10.9418 2.56635-16.2995 2.56635-21.6739 4.14953-25.8736 7.33258-28.8981 10.5073-31.9395 14.9152-33.4643 20.5645-33.4643Z" fill="#D557F3" fill-rule="nonzero" fill-opacity="1" transform="matrix(1 0 0 1.00017 1067.65 2006.86)"/><path d="M29.2962-23.765C28.3629-24.1816 27.438-24.4982 26.5298-24.6983 25.6381-24.915 24.7384-25.0315 23.8301-25.0315 21.1387-25.0315 19.0722-24.165 17.6308-22.4318 16.181-20.7152 15.4644-18.2655 15.4644-15.0659L15.4644-0.00074659 5.03223-0.00074659 5.03223-32.6631 15.4644-32.6631 15.4644-27.297C16.7976-29.4301 18.3309-30.9799 20.0639-31.9632 21.8137-32.963 23.9052-33.463 26.3299-33.463 26.6799-33.463 27.0632-33.4381 27.4632-33.3962 27.8798-33.3713 28.4796-33.3131 29.2629-33.2296Z" fill="#D557F3" fill-rule="nonzero" fill-opacity="1" transform="matrix(1 0 0 1.00017 1108.69 2006.86)"/><path d="M40.03-2.39975C37.9637-1.3332 35.8054-0.533278 33.5641 0 31.3393 0.549938 29.0063 0.833237 26.5649 0.833237 19.3158 0.833237 13.5747-1.18322 9.33344-5.23291 5.08385-9.29905 2.96737-14.7986 2.96737-21.7313 2.96737-28.6806 5.08383-34.18 9.33344-38.2297 13.5747-42.2958 19.3158-44.3291 26.5649-44.3291 29.0063-44.3291 31.3395-44.0458 33.5641-43.4959 35.8056-42.9626 37.9637-42.1627 40.03-41.0961L40.03-32.097C37.9385-33.4967 35.8805-34.53 33.864-35.1966 31.8393-35.8632 29.7062-36.1964 27.4647-36.1964 23.4651-36.1964 20.3153-34.9048 18.0323-32.3301 15.7409-29.7721 14.5992-26.239 14.5992-21.7311 14.5992-17.2398 15.7408-13.707 18.0323-11.1321 20.3153-8.57407 23.4651-7.29911 27.4647-7.29911 29.7062-7.29911 31.8393-7.61575 33.864-8.26567 35.8805-8.93226 37.9387-9.97382 40.03-11.3988Z" fill="#D557F3" fill-rule="nonzero" fill-opacity="1" transform="matrix(1 0 0 1.00017 1158.94 2006.86)"/><path d="M29.2962-23.765C28.3629-24.1816 27.438-24.4982 26.5298-24.6983 25.6381-24.915 24.7384-25.0315 23.8301-25.0315 21.1387-25.0315 19.0722-24.165 17.6308-22.4318 16.181-20.7152 15.4644-18.2655 15.4644-15.0659L15.4644-0.00074659 5.03223-0.00074659 5.03223-32.6631 15.4644-32.6631 15.4644-27.297C16.7976-29.4301 18.3309-30.9799 20.0639-31.9632 21.8137-32.963 23.9052-33.463 26.3299-33.463 26.6799-33.463 27.0632-33.4381 27.4632-33.3962 27.8798-33.3713 28.4796-33.3131 29.2629-33.2296Z" fill="#D557F3" fill-rule="nonzero" fill-opacity="1" transform="matrix(1 0 0 1.00017 1202.77 2006.86)"/><path d="M37.6303-16.4316 37.6303-13.432 13.1997-13.432C13.4663-10.9823 14.3496-9.14914 15.8661-7.93262 17.3743-6.70775 19.499-6.09947 22.2322-6.09947 24.4318-6.09947 26.6733-6.41611 28.9647-7.06603 31.2727-7.73262 33.6392-8.71586 36.0639-10.0323L36.0639-1.99988C33.5976-1.06664 31.1311-0.366725 28.6646 0.0999151 26.1983 0.583193 23.7317 0.833173 21.2652 0.833173 15.3492 0.833173 10.7496-0.666662 7.46654-3.66642 4.20031-6.666 2.56699-10.874 2.56699-16.2985 2.56699-21.6313 4.17517-25.8141 7.39977-28.8638 10.6161-31.9302 15.0406-33.4632 20.6652-33.4632 25.7979-33.4632 29.9058-31.905 32.9971-28.797 36.0801-25.7057 37.63-21.5811 37.63-16.4316ZM26.8981-19.8979C26.8981-21.8727 26.3149-23.4643 25.165-24.6641 24.0067-25.8806 22.4986-26.4973 20.6321-26.4973 18.6073-26.4973 16.9657-25.9308 15.6993-24.7974 14.4329-23.6641 13.6412-22.031 13.3328-19.8979Z" fill="#D557F3" fill-rule="nonzero" fill-opacity="1" transform="matrix(1 0 0 1.00017 1232.23 2006.86)"/><path d="M30.5291-31.6298 30.5291-23.6972C28.3043-24.6304 26.1462-25.3303 24.0632-25.797 21.9717-26.2635 20.0054-26.4969 18.1639-26.4969 16.1808-26.4969 14.7059-26.2469 13.7311-25.7635 12.7728-25.2721 12.2979-24.5054 12.2979-23.464 12.2979-22.639 12.6645-22.0058 13.3977-21.5641 14.131-21.1142 15.4392-20.7809 17.3308-20.5642L19.1639-20.2976C24.5133-19.606 28.1129-18.4811 29.9628-16.9313 31.8043-15.3732 32.7292-12.9401 32.7292-9.63203 32.7292-6.14077 31.4378-3.51597 28.863-1.76618 26.3049-0.0330206 22.4802 0.833664 17.3975 0.833664 15.2145 0.833664 12.973 0.667014 10.665 0.333704 8.37358 0.000405292 6.01542-0.507873 3.59903-1.19947L3.59903-9.13209C5.66549-8.1072 7.78186-7.34062 9.9651-6.83239 12.1648-6.34077 14.3979-6.09913 16.6644-6.09913 18.7058-6.09913 20.239-6.37411 21.2638-6.93236 22.2804-7.5073 22.797-8.34888 22.797-9.46544 22.797-10.3987 22.4387-11.0819 21.7305-11.5319 21.0138-11.9985 19.6056-12.3485 17.4974-12.5984L15.6643-12.8318C11.0147-13.4067 7.76515-14.4816 5.89868-16.0647 4.0322-17.6396 3.09897-20.031 3.09897-23.2307 3.09897-26.697 4.27384-29.2633 6.63183-30.9299 9.00663-32.6132 12.6479-33.463 17.564-33.463 19.4722-33.463 21.4802-33.3047 23.5967-32.9965 25.7298-32.7047 28.0379-32.2465 30.5293-31.6298Z" fill="#D557F3" fill-rule="nonzero" fill-opacity="1" transform="matrix(1 0 0 1.00017 1272.73 2006.86)"/><path d="M37.8628-19.8979 37.8628 0 27.3638 0 27.3638-15.2317C27.3638-18.0481 27.2972-19.9979 27.1639-21.0645 27.0306-22.1311 26.8056-22.9143 26.4973-23.431 26.0974-24.0976 25.5389-24.6142 24.8307-24.9975 24.1392-25.3725 23.3476-25.5641 22.4642-25.5641 20.2812-25.5641 18.573-24.7143 17.3316-23.031 16.0817-21.3644 15.4651-19.0397 15.4651-16.0651L15.4651-0.000213311 5.03287-0.000213311 5.03287-32.6625 15.4651-32.6625 15.4651-27.8962C17.0399-29.7793 18.7063-31.1793 20.4647-32.0959 22.2394-33.0042 24.1976-33.4624 26.3307-33.4624 30.1053-33.4624 32.9718-32.2958 34.9297-29.9628 36.8796-27.6464 37.8628-24.2968 37.8628-19.8971Z" fill="#D557F3" fill-rule="nonzero" fill-opacity="1" transform="matrix(1 0 0 1.00017 1308.29 2006.86)"/><path d="M19.6647-14.6984C17.4817-14.6984 15.8401-14.3318 14.7319-13.5986 13.6404-12.8653 13.0988-11.7737 13.0988-10.3323 13.0988-8.99914 13.5404-7.94922 14.432-7.19922 15.3152-6.46596 16.5401-6.09934 18.0984-6.09934 20.0732-6.09934 21.7313-6.79926 23.0645-8.19913 24.4143-9.61565 25.0976-11.3822 25.0976-13.4986L25.0976-14.6985ZM35.5965-18.6315 35.5965 0 25.0976 0 25.0976-4.83278C23.6978-2.84965 22.1146-1.40807 20.3646-0.500002 18.6065 0.383235 16.4734 0.833194 13.9653 0.833194 10.5824 0.833194 7.8409-0.141703 5.73274-2.09984 3.61629-4.07463 2.56635-6.64102 2.56635-9.7991 2.56635-13.6155 3.87455-16.4152 6.49938-18.1982 9.14082-19.998 13.282-20.8979 18.9314-20.8979L25.0974-20.8979 25.0974-21.7311C25.0974-23.3727 24.4391-24.5724 23.1308-25.3307 21.8143-26.1057 19.7813-26.4973 17.0315-26.4973 14.7817-26.4973 12.6987-26.2723 10.7654-25.8307 8.84897-25.3809 7.07409-24.7143 5.43266-23.8309L5.43266-31.7968C7.64918-32.3301 9.88212-32.7384 12.1319-33.03 14.3983-33.3133 16.6648-33.4632 18.9312-33.4632 24.8139-33.4632 29.0635-32.2968 31.6633-29.9636 34.2798-27.6473 35.5963-23.8725 35.5963-18.6316Z" fill="#D557F3" fill-rule="nonzero" fill-opacity="1" transform="matrix(1 0 0 1.00017 1350.81 2006.86)"/><path d="M29.2962-23.765C28.3629-24.1816 27.438-24.4982 26.5298-24.6983 25.6381-24.915 24.7384-25.0315 23.8301-25.0315 21.1387-25.0315 19.0722-24.165 17.6308-22.4318 16.181-20.7152 15.4644-18.2655 15.4644-15.0659L15.4644-0.00074659 5.03223-0.00074659 5.03223-32.6631 15.4644-32.6631 15.4644-27.297C16.7976-29.4301 18.3309-30.9799 20.0639-31.9632 21.8137-32.963 23.9052-33.463 26.3299-33.463 26.6799-33.463 27.0632-33.4381 27.4632-33.3962 27.8798-33.3713 28.4796-33.3131 29.2629-33.2296Z" fill="#D557F3" fill-rule="nonzero" fill-opacity="1" transform="matrix(1 0 0 1.00017 1391.11 2006.86)"/><path d="M26.4975-45.3948 26.4975-38.5287 20.7315-38.5287C19.265-38.5287 18.2317-38.2621 17.6319-37.7288 17.0486-37.1955 16.7653-36.2623 16.7653-34.9291L16.7653-32.6627 25.6978-32.6627 25.6978-25.1968 16.7653-25.1968 16.7653-0.000426623 6.33311-0.000426623 6.33311-25.1968 1.13364-25.1968 1.13364-32.6627 6.33311-32.6627 6.33311-34.9291C6.33311-38.4788 7.31635-41.1117 9.29942-42.8282 11.2742-44.5364 14.3489-45.3946 18.5317-45.3946Z" fill="#D557F3" fill-rule="nonzero" fill-opacity="1" transform="matrix(1 0 0 1.00017 516.726 2066.6)"/><path d="M29.2962-23.765C28.3629-24.1816 27.438-24.4982 26.5298-24.6983 25.6381-24.915 24.7384-25.0315 23.8301-25.0315 21.1387-25.0315 19.0722-24.165 17.6308-22.4318 16.181-20.7152 15.4644-18.2655 15.4644-15.0659L15.4644-0.00074659 5.03223-0.00074659 5.03223-32.6631 15.4644-32.6631 15.4644-27.297C16.7976-29.4301 18.3309-30.9799 20.0639-31.9632 21.8137-32.963 23.9052-33.463 26.3299-33.463 26.6799-33.463 27.0632-33.4381 27.4632-33.3962 27.8798-33.3713 28.4796-33.3131 29.2629-33.2296Z" fill="#D557F3" fill-rule="nonzero" fill-opacity="1" transform="matrix(1 0 0 1.00017 542.715 2066.6)"/><path d="M20.5645-25.9984C18.2481-25.9984 16.4815-25.1652 15.265-23.4986 14.0401-21.832 13.4318-19.4325 13.4318-16.2993 13.4318-13.1662 14.0401-10.7665 15.265-9.10008 16.4815-7.45024 18.2479-6.63377 20.5645-6.63377 22.8309-6.63377 24.5641-7.45035 25.764-9.10008 26.9805-10.7666 27.5972-13.1662 27.5972-16.2993 27.5972-19.4325 26.9805-21.8322 25.764-23.4986 24.5641-25.165 22.8309-25.9984 20.5645-25.9984ZM20.5645-33.4643C26.1806-33.4643 30.5718-31.9395 33.7299-28.8981 36.8796-25.8734 38.4628-21.6739 38.4628-16.2995 38.4628-10.9418 36.8796-6.74213 33.7299-3.70095 30.5718-0.676197 26.1806 0.831914 20.5645 0.831914 14.9152 0.831914 10.5073-0.676261 7.33258-3.70095 4.14955-6.74235 2.56635-10.9418 2.56635-16.2995 2.56635-21.6739 4.14953-25.8736 7.33258-28.8981 10.5073-31.9395 14.9152-33.4643 20.5645-33.4643Z" fill="#D557F3" fill-rule="nonzero" fill-opacity="1" transform="matrix(1 0 0 1.00017 572.17 2066.6)"/><path d="M35.2966-27.2313C36.6049-29.2478 38.1714-30.7977 39.9961-31.8642 41.8127-32.9308 43.8125-33.4641 45.9955-33.4641 49.7451-33.4641 52.6032-32.2975 54.5612-29.9645 56.536-27.6481 57.5275-24.2985 57.5275-19.8988L57.5275-0.000853245 47.0285-0.000853245 47.0285-17.0325 47.0285-17.7991C47.0452-18.0824 47.0618-18.4823 47.0618-18.999 47.0618-21.307 46.712-22.9736 46.0285-23.9986 45.3619-25.0402 44.2704-25.5652 42.7623-25.5652 40.7794-25.5652 39.2461-24.7401 38.1629-23.0989 37.0714-21.4738 36.5131-19.1158 36.4965-16.0328L36.4965-0.00119454 25.9975-0.00119454 25.9975-17.0328C25.9975-20.6491 25.681-22.9741 25.0643-23.9988 24.4393-25.0402 23.3311-25.5652 21.7313-25.5652 19.7315-25.5652 18.1816-24.7403 17.0984-23.0989 16.0068-21.4741 15.4652-19.1326 15.4652-16.0663L15.4652-0.00136519 4.96627-0.00136519 4.96627-32.6635 15.4652-32.6635 15.4652-27.8973C16.7484-29.7388 18.215-31.1302 19.8648-32.0635 21.5312-32.9967 23.3644-33.4634 25.3642-33.4634 27.6307-33.4634 29.6304-32.9135 31.3636-31.8303 33.0968-30.7386 34.405-29.2055 35.2966-27.2309Z" fill="#D557F3" fill-rule="nonzero" fill-opacity="1" transform="matrix(1 0 0 1.00017 613.2 2066.6)"/><path d="M16.4316-41.9285 16.4316-32.6627 27.1972-32.6627 27.1972-25.1968 16.4316-25.1968 16.4316-11.3315C16.4316-9.81501 16.7315-8.79846 17.3315-8.26518 17.9315-7.7319 19.1147-7.46526 20.8979-7.46526L26.264-7.46526 26.264 0.000639934 17.3315 0.000639934C13.1986 0.000639934 10.2656-0.849278 8.53241-2.56571 6.81592-4.29886 5.96606-7.21526 5.96606-11.3315L5.96606-25.1968 0.799875-25.1968 0.799875-32.6627 5.96606-32.6627 5.96606-41.9285Z" fill="#D557F3" fill-rule="nonzero" fill-opacity="1" transform="matrix(1 0 0 1.00017 696.232 2066.6)"/><path d="M37.8628-19.8979 37.8628 0 27.3638 0 27.3638-15.1652C27.3638-18.0316 27.2972-19.9979 27.1639-21.0645 27.0306-22.1311 26.8056-22.9143 26.4973-23.431 26.0974-24.0976 25.5389-24.6142 24.8307-24.9975 24.1392-25.3725 23.3476-25.5641 22.4642-25.5641 20.2812-25.5641 18.573-24.7143 17.3316-23.031 16.0817-21.3644 15.4651-19.0397 15.4651-16.0651L15.4651-0.000213311 5.03287-0.000213311 5.03287-45.395 15.4651-45.395 15.4651-27.8969C17.0399-29.78 18.7063-31.1799 20.4647-32.0965 22.2394-33.0048 24.1976-33.463 26.3307-33.463 30.1053-33.463 32.9718-32.2964 34.9297-29.9634 36.8796-27.6471 37.8628-24.2974 37.8628-19.8977Z" fill="#D557F3" fill-rule="nonzero" fill-opacity="1" transform="matrix(1 0 0 1.00017 724.779 2066.6)"/><path d="M37.6303-16.4316 37.6303-13.432 13.1997-13.432C13.4663-10.9823 14.3496-9.14914 15.8661-7.93262 17.3743-6.70775 19.499-6.09947 22.2322-6.09947 24.4318-6.09947 26.6733-6.41611 28.9647-7.06603 31.2727-7.73262 33.6392-8.71586 36.0639-10.0323L36.0639-1.99988C33.5976-1.06664 31.1311-0.366725 28.6646 0.0999151 26.1983 0.583193 23.7317 0.833173 21.2652 0.833173 15.3492 0.833173 10.7496-0.666662 7.46654-3.66642 4.20031-6.666 2.56699-10.874 2.56699-16.2985 2.56699-21.6313 4.17517-25.8141 7.39977-28.8638 10.6161-31.9302 15.0406-33.4632 20.6652-33.4632 25.7979-33.4632 29.9058-31.905 32.9971-28.797 36.0801-25.7057 37.63-21.5811 37.63-16.4316ZM26.8981-19.8979C26.8981-21.8727 26.3149-23.4643 25.165-24.6641 24.0067-25.8806 22.4986-26.4973 20.6321-26.4973 18.6073-26.4973 16.9657-25.9308 15.6993-24.7974 14.4329-23.6641 13.6412-22.031 13.3328-19.8979Z" fill="#D557F3" fill-rule="nonzero" fill-opacity="1" transform="matrix(1 0 0 1.00017 767.301 2066.6)"/><path d="M5.49938-43.5283 18.0314-43.5283 33.8632-13.6647 33.8632-43.5283 44.4955-43.5283 44.4955 0 31.9634 0 16.1317-29.8636 16.1317 0 5.49938 0Z" fill="#D557F3" fill-rule="nonzero" fill-opacity="1" transform="matrix(1 0 0 1.00017 828.602 2066.6)"/><path d="M20.5645-25.9984C18.2481-25.9984 16.4815-25.1652 15.265-23.4986 14.0401-21.832 13.4318-19.4325 13.4318-16.2993 13.4318-13.1662 14.0401-10.7665 15.265-9.10008 16.4815-7.45024 18.2479-6.63377 20.5645-6.63377 22.8309-6.63377 24.5641-7.45035 25.764-9.10008 26.9805-10.7666 27.5972-13.1662 27.5972-16.2993 27.5972-19.4325 26.9805-21.8322 25.764-23.4986 24.5641-25.165 22.8309-25.9984 20.5645-25.9984ZM20.5645-33.4643C26.1806-33.4643 30.5718-31.9395 33.7299-28.8981 36.8796-25.8734 38.4628-21.6739 38.4628-16.2995 38.4628-10.9418 36.8796-6.74213 33.7299-3.70095 30.5718-0.676197 26.1806 0.831914 20.5645 0.831914 14.9152 0.831914 10.5073-0.676261 7.33258-3.70095 4.14955-6.74235 2.56635-10.9418 2.56635-16.2995 2.56635-21.6739 4.14953-25.8736 7.33258-28.8981 10.5073-31.9395 14.9152-33.4643 20.5645-33.4643Z" fill="#D557F3" fill-rule="nonzero" fill-opacity="1" transform="matrix(1 0 0 1.00017 878.59 2066.6)"/><path d="M4.66619-12.7321 4.66619-32.6635 15.1652-32.6635 15.1652-29.3973C15.1652-27.6142 15.1485-25.3977 15.1318-22.7313 15.1068-20.0649 15.0985-18.2819 15.0985-17.3985 15.0985-14.7488 15.1652-12.849 15.2985-11.6991 15.4485-10.5408 15.6818-9.70761 15.9984-9.19927 16.44-8.50767 17.0066-7.97439 17.6982-7.59943 18.3815-7.24113 19.1731-7.06615 20.0647-7.06615 22.2394-7.06615 23.9476-7.89939 25.1974-9.56595 26.4389-11.2324 27.0639-13.5489 27.0639-16.5318L27.0639-32.6635 37.4961-32.6635 37.4961-0.00127987 27.0639-0.00127987 27.0639-4.73423C25.4807-2.81776 23.8143-1.40956 22.0643-0.501282 20.3061 0.381955 18.3646 0.831914 16.2315 0.831914 12.4736 0.831914 9.60712-0.317962 7.63249-2.6344 5.64936-4.94242 4.66619-8.30891 4.66619-12.7334Z" fill="#D557F3" fill-rule="nonzero" fill-opacity="1" transform="matrix(1 0 0 1.00017 919.626 2066.6)"/><path d="M37.8628-19.8979 37.8628 0 27.3638 0 27.3638-15.2317C27.3638-18.0481 27.2972-19.9979 27.1639-21.0645 27.0306-22.1311 26.8056-22.9143 26.4973-23.431 26.0974-24.0976 25.5389-24.6142 24.8307-24.9975 24.1392-25.3725 23.3476-25.5641 22.4642-25.5641 20.2812-25.5641 18.573-24.7143 17.3316-23.031 16.0817-21.3644 15.4651-19.0397 15.4651-16.0651L15.4651-0.000213311 5.03287-0.000213311 5.03287-32.6625 15.4651-32.6625 15.4651-27.8962C17.0399-29.7793 18.7063-31.1793 20.4647-32.0959 22.2394-33.0042 24.1976-33.4624 26.3307-33.4624 30.1053-33.4624 32.9718-32.2958 34.9297-29.9628 36.8796-27.6464 37.8628-24.2968 37.8628-19.8971Z" fill="#D557F3" fill-rule="nonzero" fill-opacity="1" transform="matrix(1 0 0 1.00017 962.146 2066.6)"/><path d="M5.49938-43.5283 24.1308-43.5283C29.6637-43.5283 33.9048-42.2952 36.863-39.8286 39.8376-37.379 41.3293-33.8792 41.3293-29.3297 41.3293-24.7719 39.8378-21.2639 36.863-18.7974 33.905-16.3311 29.6637-15.0978 24.1308-15.0978L16.6982-15.0978 16.6982 0.000639934 5.49938 0.000639934ZM16.6982-35.3958 16.6982-23.2305 22.931-23.2305C25.1057-23.2305 26.7806-23.7637 27.9638-24.8303 29.1637-25.8969 29.7636-27.3966 29.7636-29.3299 29.7636-31.2798 29.1637-32.7796 27.9638-33.8295 26.7806-34.8711 25.1059-35.396 22.931-35.396Z" fill="#D557F3" fill-rule="nonzero" fill-opacity="1" transform="matrix(1 0 0 1.00017 1025.46 2066.6)"/><path d="M29.2962-23.765C28.3629-24.1816 27.438-24.4982 26.5298-24.6983 25.6381-24.915 24.7384-25.0315 23.8301-25.0315 21.1387-25.0315 19.0722-24.165 17.6308-22.4318 16.181-20.7152 15.4644-18.2655 15.4644-15.0659L15.4644-0.00074659 5.03223-0.00074659 5.03223-32.6631 15.4644-32.6631 15.4644-27.297C16.7976-29.4301 18.3309-30.9799 20.0639-31.9632 21.8137-32.963 23.9052-33.463 26.3299-33.463 26.6799-33.463 27.0632-33.4381 27.4632-33.3962 27.8798-33.3713 28.4796-33.3131 29.2629-33.2296Z" fill="#D557F3" fill-rule="nonzero" fill-opacity="1" transform="matrix(1 0 0 1.00017 1069.24 2066.6)"/><path d="M20.5645-25.9984C18.2481-25.9984 16.4815-25.1652 15.265-23.4986 14.0401-21.832 13.4318-19.4325 13.4318-16.2993 13.4318-13.1662 14.0401-10.7665 15.265-9.10008 16.4815-7.45024 18.2479-6.63377 20.5645-6.63377 22.8309-6.63377 24.5641-7.45035 25.764-9.10008 26.9805-10.7666 27.5972-13.1662 27.5972-16.2993 27.5972-19.4325 26.9805-21.8322 25.764-23.4986 24.5641-25.165 22.8309-25.9984 20.5645-25.9984ZM20.5645-33.4643C26.1806-33.4643 30.5718-31.9395 33.7299-28.8981 36.8796-25.8734 38.4628-21.6739 38.4628-16.2995 38.4628-10.9418 36.8796-6.74213 33.7299-3.70095 30.5718-0.676197 26.1806 0.831914 20.5645 0.831914 14.9152 0.831914 10.5073-0.676261 7.33258-3.70095 4.14955-6.74235 2.56635-10.9418 2.56635-16.2995 2.56635-21.6739 4.14953-25.8736 7.33258-28.8981 10.5073-31.9395 14.9152-33.4643 20.5645-33.4643Z" fill="#D557F3" fill-rule="nonzero" fill-opacity="1" transform="matrix(1 0 0 1.00017 1098.68 2066.6)"/><path d="M5.03287-32.6622 15.4651-32.6622 15.4651-0.599405C15.4651 3.77518 14.4069 7.11649 12.2987 9.43284 10.2072 11.7409 7.16598 12.8992 3.16639 12.8992L-1.99979 12.8992-1.99979 6.03309-0.166639 6.03309C1.80816 6.03309 3.16635 5.58313 3.8995 4.69989 4.64942 3.80831 5.03272 2.04182 5.03272-0.599618ZM5.03287-45.3944 15.4651-45.3944 15.4651-36.8619 5.03287-36.8619Z" fill="#D557F3" fill-rule="nonzero" fill-opacity="1" transform="matrix(1 0 0 1.00017 1139.72 2066.6)"/><path d="M37.6303-16.4316 37.6303-13.432 13.1997-13.432C13.4663-10.9823 14.3496-9.14914 15.8661-7.93262 17.3743-6.70775 19.499-6.09947 22.2322-6.09947 24.4318-6.09947 26.6733-6.41611 28.9647-7.06603 31.2727-7.73262 33.6392-8.71586 36.0639-10.0323L36.0639-1.99988C33.5976-1.06664 31.1311-0.366725 28.6646 0.0999151 26.1983 0.583193 23.7317 0.833173 21.2652 0.833173 15.3492 0.833173 10.7496-0.666662 7.46654-3.66642 4.20031-6.666 2.56699-10.874 2.56699-16.2985 2.56699-21.6313 4.17517-25.8141 7.39977-28.8638 10.6161-31.9302 15.0406-33.4632 20.6652-33.4632 25.7979-33.4632 29.9058-31.905 32.9971-28.797 36.0801-25.7057 37.63-21.5811 37.63-16.4316ZM26.8981-19.8979C26.8981-21.8727 26.3149-23.4643 25.165-24.6641 24.0067-25.8806 22.4986-26.4973 20.6321-26.4973 18.6073-26.4973 16.9657-25.9308 15.6993-24.7974 14.4329-23.6641 13.6412-22.031 13.3328-19.8979Z" fill="#D557F3" fill-rule="nonzero" fill-opacity="1" transform="matrix(1 0 0 1.00017 1160.19 2066.6)"/><path d="M31.3973-31.6298 31.3973-23.1306C29.9973-24.1055 28.5726-24.8305 27.1311-25.297 25.7062-25.7635 24.2313-25.9969 22.6982-25.9969 19.7819-25.9969 17.5071-25.1387 15.8657-23.4305 14.2408-21.739 13.4326-19.3645 13.4326-16.2979 13.4326-13.2482 14.2409-10.8734 15.8657-9.16518 17.5072-7.47368 19.7819-6.63211 22.6982-6.63211 24.3147-6.63211 25.8646-6.86543 27.3312-7.33202 28.7977-7.8153 30.1475-8.54024 31.3973-9.49841L31.3973-0.965959C29.7725-0.366021 28.1142 0.0755976 26.4312 0.367237 24.7646 0.675536 23.0733 0.833856 21.3651 0.833856 15.474 0.833856 10.8661-0.67432 7.53309-3.69901 4.21674-6.71545 2.56699-10.9149 2.56699-16.2976 2.56699-21.697 4.21683-25.905 7.53309-28.9297 10.8661-31.9462 15.474-33.4626 21.3651-33.4626 23.0733-33.4626 24.7648-33.3043 26.4312-32.9959 28.0976-32.7043 29.7476-32.2461 31.3973-31.6294Z" fill="#D557F3" fill-rule="nonzero" fill-opacity="1" transform="matrix(1 0 0 1.00017 1200.7 2066.6)"/><path d="M16.4316-41.9285 16.4316-32.6627 27.1972-32.6627 27.1972-25.1968 16.4316-25.1968 16.4316-11.3315C16.4316-9.81501 16.7315-8.79846 17.3315-8.26518 17.9315-7.7319 19.1147-7.46526 20.8979-7.46526L26.264-7.46526 26.264 0.000639934 17.3315 0.000639934C13.1986 0.000639934 10.2656-0.849278 8.53241-2.56571 6.81592-4.29886 5.96606-7.21526 5.96606-11.3315L5.96606-25.1968 0.799875-25.1968 0.799875-32.6627 5.96606-32.6627 5.96606-41.9285Z" fill="#D557F3" fill-rule="nonzero" fill-opacity="1" transform="matrix(1 0 0 1.00017 1236.1 2066.6)"/></g></g></g><text fill="#FFFFFF" fill-opacity="1" font-family="Jost SemiBold,Jost SemiBold_MSFontService,sans-serif" font-style="normal" font-variant="normal" font-weight="600" font-stretch="normal" font-size="1315" text-anchor="start" direction="ltr" writing-mode="lr-tb" unicode-bidi="normal" text-decoration="none" transform="matrix(1 0 0 1 1811.45 1656)">tick</text></g></svg>