<svg width="520" height="584" xmlns="http://www.w3.org/2000/svg" xmlns:xlink="http://www.w3.org/1999/xlink" xml:space="preserve" overflow="hidden"><defs><clipPath id="clip0"><rect x="673" y="45" width="520" height="584"/></clipPath><clipPath id="clip1"><rect x="674" y="46" width="519" height="583"/></clipPath><clipPath id="clip2"><rect x="674" y="46" width="519" height="583"/></clipPath><clipPath id="clip3"><rect x="574" y="46" width="720" height="721"/></clipPath></defs><g clip-path="url(#clip0)" transform="translate(-673 -45)"><g clip-path="url(#clip1)"><g clip-path="url(#clip2)"><g clip-path="url(#clip3)"><path d="M503.555 551.516 215.809 551.516C203.819 551.516 191.832 541.926 191.832 529.935L170.251 143.873 143.873 143.873C129.486 143.873 119.895 134.283 119.895 119.895 119.895 105.508 129.486 95.918 143.873 95.918L239.787 95.918 239.787 71.9365C239.787 45.5584 261.368 23.9775 287.746 23.9775L431.619 23.9775C457.997 23.9775 479.578 45.5584 479.578 71.9365L479.578 95.9139 575.492 95.9139C589.879 95.9139 599.469 105.504 599.469 119.891 599.469 134.279 589.879 143.869 575.492 143.869L551.514 143.869 527.533 529.931C527.533 541.918 515.546 551.512 503.555 551.512ZM237.39 503.557 479.58 503.557 501.161 143.875 218.204 143.875ZM287.746 95.9139 431.619 95.9139 431.619 71.9365 287.746 71.9365Z" fill="#FFFFFF" fill-rule="nonzero" fill-opacity="1" transform="matrix(1 0 0 1.00162 574.03 46)"/></g></g></g></g></svg>