<svg width="563" height="541" xmlns="http://www.w3.org/2000/svg" xmlns:xlink="http://www.w3.org/1999/xlink" xml:space="preserve" overflow="hidden"><defs><clipPath id="clip0"><rect x="358" y="76" width="563" height="541"/></clipPath><clipPath id="clip1"><rect x="359" y="76" width="562" height="541"/></clipPath><clipPath id="clip2"><rect x="359" y="76" width="562" height="541"/></clipPath></defs><g clip-path="url(#clip0)" transform="translate(-358 -76)"><g clip-path="url(#clip1)"><g clip-path="url(#clip2)"><path d="M605.784 87.2478C601.467 82.9272 595.614 80.5 589.508 80.5 583.401 80.5 577.548 82.9272 573.231 87.2478L359.459 301.021 283.712 225.274C277.899 219.461 269.422 217.191 261.48 219.317 253.537 221.447 247.334 227.649 245.203 235.593 243.078 243.537 245.348 252.013 251.161 257.825L343.184 349.848C347.5 354.168 353.353 356.595 359.46 356.595 365.566 356.595 371.419 354.168 375.736 349.848L605.787 119.797C610.107 115.48 612.534 109.627 612.534 103.521 612.534 97.4152 610.107 91.5584 605.787 87.245Z" fill="#FFFFFF" fill-rule="nonzero" fill-opacity="1" transform="matrix(1 0 0 1.00245 269.604 56.2608)"/><path d="M607.447 236.839C605.802 228.784 599.985 222.217 592.191 219.613 584.392 217.01 575.799 218.763 569.645 224.215 563.491 229.667 560.715 237.987 562.355 246.039 571.836 292.327 565.2 340.464 543.549 382.457 521.897 424.453 486.533 457.778 443.331 476.902 400.128 496.026 351.682 499.801 306.04 487.593 260.398 475.389 220.3 447.941 192.411 409.805 164.517 371.669 150.508 325.141 152.702 277.948 154.901 230.749 173.175 185.724 204.491 150.351 235.806 114.972 278.279 91.3656 324.857 83.4546 371.437 75.5434 419.321 83.8035 460.566 106.86 467.755 110.887 476.548 110.771 483.634 106.559 490.719 102.342 495.015 94.6716 494.907 86.4267 494.799 78.1866 490.302 70.6282 483.109 66.6003 434.639 39.4522 378.58 29.0136 323.583 36.8888 268.59 44.7639 217.708 70.5193 178.805 110.184 139.903 149.844 115.13 201.207 108.314 256.349 101.498 311.487 113.016 367.338 141.094 415.279 169.169 463.22 212.242 500.589 263.668 521.616 315.091 542.649 371.997 546.172 425.628 531.645 479.254 517.117 526.608 485.349 560.382 441.24 594.158 397.126 612.48 343.128 612.516 287.568 612.507 270.534 610.815 253.54 607.457 236.843Z" fill="#FFFFFF" fill-rule="nonzero" fill-opacity="1" transform="matrix(1 0 0 1.00245 269.604 56.2608)"/><path d="M19.2729-1.15539C18.2781-0.641883 17.2389-0.256753 16.1598 0 15.0887 0.264774 13.9654 0.401172 12.79 0.401172 9.29981 0.401172 6.53571-0.569674 4.4937-2.51945 2.44768-4.47714 1.42868-7.12498 1.42868-10.4628 1.42868-13.8086 2.44767-16.4563 4.4937-18.4061 6.53571-20.3638 9.29981-21.3428 12.79-21.3428 13.9654-21.3428 15.0888-21.2064 16.1598-20.9416 17.239-20.6849 18.2781-20.2997 19.2729-19.7862L19.2729-15.4535C18.2659-16.1274 17.2751-16.6249 16.3042-16.9458 15.3294-17.2668 14.3024-17.4272 13.2232-17.4272 11.2976-17.4272 9.78107-16.8053 8.68185-15.5657 7.57864-14.3341 7.02898-12.6331 7.02898-10.4627 7.02898-8.30033 7.5786-6.59939 8.68185-5.35968 9.78107-4.12809 11.2976-3.51424 13.2232-3.51424 14.3024-3.51424 15.3294-3.66669 16.3042-3.9796 17.2751-4.30054 18.266-4.80201 19.2729-5.48808Z" fill="#FFFFFF" fill-rule="nonzero" fill-opacity="1" transform="matrix(1 0 0 1.00245 341.495 719.278)"/><path d="M14.105-11.442C13.6557-11.6425 13.2104-11.7949 12.7731-11.8913 12.3438-11.9956 11.9106-12.0517 11.4733-12.0517 10.1775-12.0517 9.18252-11.6345 8.48857-10.8001 7.79052-9.97359 7.44554-8.79416 7.44554-7.25364L7.44554-0.000359455 2.42283-0.000359455 2.42283-15.726 7.44554-15.726 7.44554-13.1425C8.08742-14.1695 8.82564-14.9156 9.65998-15.3891 10.5024-15.8704 11.5094-16.1112 12.6768-16.1112 12.8454-16.1112 13.0299-16.0991 13.2225-16.079 13.4231-16.067 13.7119-16.039 14.089-15.9988Z" fill="#FFFFFF" fill-rule="nonzero" fill-opacity="1" transform="matrix(1 0 0 1.00245 362.6 719.278)"/><path d="M18.1175-7.91118 18.1175-6.467 6.35516-6.467C6.48353-5.28758 6.90878-4.40496 7.63892-3.81926 8.36505-3.22952 9.38803-2.93666 10.7039-2.93666 11.763-2.93666 12.8422-3.08911 13.9454-3.40202 15.0566-3.72296 16.196-4.19635 17.3634-4.83019L17.3634-0.962866C16.176-0.513548 14.9884-0.176564 13.8009 0.0481053 12.6135 0.280785 11.4259 0.401141 10.2384 0.401141 7.39008 0.401141 5.17553-0.320972 3.59485-1.76524 2.02229-3.20943 1.23591-5.23541 1.23591-7.84711 1.23591-10.4146 2.01018-12.4285 3.56271-13.8968 5.11124-15.3732 7.24147-16.1113 9.9495-16.1113 12.4207-16.1113 14.3985-15.361 15.8869-13.8647 17.3712-12.3763 18.1174-10.3905 18.1174-7.91119ZM12.9504-9.58008C12.9504-10.5309 12.6696-11.2971 12.116-11.8748 11.5583-12.4605 10.8322-12.7575 9.93358-12.7575 8.95872-12.7575 8.16835-12.4847 7.55861-11.939 6.94887-11.3934 6.56771-10.6071 6.41924-9.58008Z" fill="#FFFFFF" fill-rule="nonzero" fill-opacity="1" transform="matrix(1 0 0 1.00245 376.782 719.278)"/><path d="M9.46783-7.07674C8.41678-7.07674 7.62639-6.90021 7.09286-6.54719 6.56732-6.19415 6.30656-5.66861 6.30656-4.97462 6.30656-4.33274 6.51918-3.82725 6.94844-3.46615 7.37369-3.11311 7.96342-2.9366 8.71367-2.9366 9.66446-2.9366 10.4628-3.27358 11.1047-3.94757 11.7546-4.62957 12.0835-5.48008 12.0835-6.49908L12.0835-7.07678ZM17.1384-8.97034 17.1384 0 12.0835 0 12.0835-2.3268C11.4096-1.372 10.6474-0.677931 9.80479-0.240732 8.95831 0.184513 7.93131 0.401151 6.72375 0.401151 5.09501 0.401151 3.77509-0.0682245 2.7601-1.01099 1.74111-1.96178 1.2356-3.1974 1.2356-4.71789 1.2356-6.55532 1.86545-7.90328 3.12921-8.76175 4.40096-9.6283 6.3948-10.0615 9.11474-10.0615L12.0834-10.0615 12.0834-10.4627C12.0834-11.2531 11.7665-11.8307 11.1366-12.1958 10.5027-12.5689 9.52392-12.7575 8.2-12.7575 7.11681-12.7575 6.11393-12.6491 5.18315-12.4365 4.26044-12.2199 3.4059-11.899 2.61562-11.4737L2.61562-15.309C3.68279-15.5657 4.75786-15.7623 5.84105-15.9027 6.93226-16.0391 8.02346-16.1113 9.11466-16.1113 11.9469-16.1113 13.9929-15.5497 15.2447-14.4263 16.5044-13.3111 17.1383-11.4937 17.1383-8.97038Z" fill="#FFFFFF" fill-rule="nonzero" fill-opacity="1" transform="matrix(1 0 0 1.00245 396.284 719.278)"/><path d="M7.91118-20.187 7.91118-15.7258 13.0944-15.7258 13.0944-12.1313 7.91118-12.1313 7.91118-5.4557C7.91118-4.72555 8.0556-4.23612 8.34446-3.97937 8.63332-3.72261 9.20298-3.59424 10.0615-3.59424L12.6451-3.59424 12.6451 0.000308104 8.34446 0.000308104C6.35462 0.000308104 4.94248-0.408895 4.10803-1.23529 3.2816-2.06974 2.87243-3.47387 2.87243-5.4557L2.87243-12.1313 0.385109-12.1313 0.385109-15.7258 2.87243-15.7258 2.87243-20.187Z" fill="#FFFFFF" fill-rule="nonzero" fill-opacity="1" transform="matrix(1 0 0 1.00245 415.688 719.278)"/><path d="M18.1175-7.91118 18.1175-6.467 6.35516-6.467C6.48353-5.28758 6.90878-4.40496 7.63892-3.81926 8.36505-3.22952 9.38803-2.93666 10.7039-2.93666 11.763-2.93666 12.8422-3.08911 13.9454-3.40202 15.0566-3.72296 16.196-4.19635 17.3634-4.83019L17.3634-0.962866C16.176-0.513548 14.9884-0.176564 13.8009 0.0481053 12.6135 0.280785 11.4259 0.401141 10.2384 0.401141 7.39008 0.401141 5.17553-0.320972 3.59485-1.76524 2.02229-3.20943 1.23591-5.23541 1.23591-7.84711 1.23591-10.4146 2.01018-12.4285 3.56271-13.8968 5.11124-15.3732 7.24147-16.1113 9.9495-16.1113 12.4207-16.1113 14.3985-15.361 15.8869-13.8647 17.3712-12.3763 18.1174-10.3905 18.1174-7.91119ZM12.9504-9.58008C12.9504-10.5309 12.6696-11.2971 12.116-11.8748 11.5583-12.4605 10.8322-12.7575 9.93358-12.7575 8.95872-12.7575 8.16835-12.4847 7.55861-11.939 6.94887-11.3934 6.56771-10.6071 6.41924-9.58008Z" fill="#FFFFFF" fill-rule="nonzero" fill-opacity="1" transform="matrix(1 0 0 1.00245 429.437 719.278)"/><path d="M13.1108-13.4313 13.1108-21.856 18.1657-21.856 18.1657-0.000102701 13.1108-0.000102701 13.1108-2.27884C12.4248-1.34811 11.6667-0.666121 10.8321-0.240835 9.99756 0.184452 9.02683 0.401049 7.92762 0.401049 5.98995 0.401049 4.40126-0.369211 3.16166-1.90973 1.91805-3.45025 1.3002-5.42807 1.3002-7.8471 1.3002-10.2742 1.91801-12.2601 3.16166-13.8006 4.40126-15.3411 5.98995-16.1114 7.92762-16.1114 9.01882-16.1114 9.98164-15.8908 10.8161-15.4535 11.6585-15.0122 12.4248-14.3382 13.1108-13.4315ZM9.8051-3.24136C10.8723-3.24136 11.6906-3.6305 12.2603-4.41277 12.826-5.20308 13.1107-6.34643 13.1107-7.84689 13.1107-9.34325 12.826-10.4826 12.2603-11.2649 11.6906-12.0552 10.8722-12.4523 9.8051-12.4523 8.73392-12.4523 7.9156-12.0552 7.34992-11.2649 6.78025-10.4826 6.49943-9.34325 6.49943-7.84689 6.49943-6.34653 6.78026-5.20316 7.34992-4.41277 7.91558-3.63047 8.73403-3.24136 9.8051-3.24136Z" fill="#FFFFFF" fill-rule="nonzero" fill-opacity="1" transform="matrix(1 0 0 1.00245 448.938 719.278)"/><path d="M10.7836-3.24146C11.8628-3.24146 12.6853-3.6306 13.2548-4.41287 13.8205-5.20319 14.1053-6.34653 14.1053-7.847 14.1053-9.34335 13.8205-10.4827 13.2548-11.265 12.6852-12.0553 11.8627-12.4524 10.7836-12.4524 9.70045-12.4524 8.87401-12.0553 8.29631-11.265 7.72664-10.4707 7.44582-9.33134 7.44582-7.847 7.44582-6.35865 7.72665-5.21928 8.29631-4.42899 8.87401-3.63466 9.70045-3.24156 10.7836-3.24156ZM7.44584-13.4314C8.13988-14.338 8.90615-15.0121 9.7406-15.4534 10.5831-15.8907 11.5539-16.1113 12.6451-16.1113 14.5908-16.1113 16.1835-15.341 17.4271-13.8005 18.6667-12.26 19.2885-10.2741 19.2885-7.84702 19.2885-5.42789 18.6667-3.45017 17.4271-1.90965 16.1835-0.369129 14.5908 0.401131 12.6451 0.401131 11.5539 0.401131 10.5831 0.184493 9.7406-0.240752 8.90615-0.678034 8.1399-1.35599 7.44584-2.27876L7.44584-2.05403e-05 2.42313-2.05403e-05 2.42313-21.8559 7.44584-21.8559Z" fill="#FFFFFF" fill-rule="nonzero" fill-opacity="1" transform="matrix(1 0 0 1.00245 479.535 719.278)"/><path d="M0.353036-15.7256 5.37575-15.7256 9.61217-5.05393 13.2068-15.7256 18.2295-15.7256 11.6181 1.49328C10.9521 3.23437 10.1779 4.45395 9.29123 5.15201 8.40062 5.85808 7.23721 6.21107 5.79302 6.21107L2.8724 6.21107 2.8724 2.90532 4.44496 2.90532C5.29947 2.90532 5.92129 2.7649 6.30642 2.48809 6.69957 2.2193 7.00447 1.73789 7.2211 1.04391L7.36552 0.610631Z" fill="#FFFFFF" fill-rule="nonzero" fill-opacity="1" transform="matrix(1 0 0 1.00245 500.12 719.278)"/><path d="M21.4872-1.55654C20.1392-0.902621 18.7351-0.409162 17.2828-0.0802097 15.8386 0.240732 14.3381 0.401203 12.7896 0.401203 9.2994 0.401203 6.53529-0.569643 4.49328-2.51942 2.44727-4.47711 1.42827-7.12495 1.42827-10.4627 1.42827-13.8407 2.46329-16.5005 4.54135-18.4381 6.62742-20.3718 9.47584-21.3426 13.0944-21.3426 14.4825-21.3426 15.8144-21.2062 17.0901-20.9414 18.3739-20.6847 19.5814-20.2995 20.7167-19.786L20.7167-15.4533C19.5373-16.1153 18.3739-16.6086 17.2185-16.9296 16.0631-17.2585 14.9077-17.4271 13.7523-17.4271 11.5899-17.4271 9.92505-16.8213 8.76165-15.6138 7.60626-14.4142 7.02857-12.6973 7.02857-10.4627 7.02857-8.24826 7.59022-6.5352 8.71349-5.32764 9.83683-4.11607 11.4294-3.51435 13.4955-3.51435 14.0491-3.51435 14.5706-3.54644 15.052-3.61063 15.5415-3.68284 15.9747-3.79517 16.3518-3.94761L16.3518-8.02362 13.0622-8.02362 13.0622-11.6342 21.4869-11.6342Z" fill="#FFFFFF" fill-rule="nonzero" fill-opacity="1" transform="matrix(1 0 0 1.00245 528.876 719.278)"/><path d="M14.105-11.442C13.6557-11.6425 13.2104-11.7949 12.7731-11.8913 12.3438-11.9956 11.9106-12.0517 11.4733-12.0517 10.1775-12.0517 9.18252-11.6345 8.48857-10.8001 7.79052-9.97359 7.44554-8.79416 7.44554-7.25364L7.44554-0.000359455 2.42283-0.000359455 2.42283-15.726 7.44554-15.726 7.44554-13.1425C8.08742-14.1695 8.82564-14.9156 9.65998-15.3891 10.5024-15.8704 11.5094-16.1112 12.6768-16.1112 12.8454-16.1112 13.0299-16.0991 13.2225-16.079 13.4231-16.067 13.7119-16.039 14.089-15.9988Z" fill="#FFFFFF" fill-rule="nonzero" fill-opacity="1" transform="matrix(1 0 0 1.00245 552.478 719.278)"/><path d="M18.1175-7.91118 18.1175-6.467 6.35516-6.467C6.48353-5.28758 6.90878-4.40496 7.63892-3.81926 8.36505-3.22952 9.38803-2.93666 10.7039-2.93666 11.763-2.93666 12.8422-3.08911 13.9454-3.40202 15.0566-3.72296 16.196-4.19635 17.3634-4.83019L17.3634-0.962866C16.176-0.513548 14.9884-0.176564 13.8009 0.0481053 12.6135 0.280785 11.4259 0.401141 10.2384 0.401141 7.39008 0.401141 5.17553-0.320972 3.59485-1.76524 2.02229-3.20943 1.23591-5.23541 1.23591-7.84711 1.23591-10.4146 2.01018-12.4285 3.56271-13.8968 5.11124-15.3732 7.24147-16.1113 9.9495-16.1113 12.4207-16.1113 14.3985-15.361 15.8869-13.8647 17.3712-12.3763 18.1174-10.3905 18.1174-7.91119ZM12.9504-9.58008C12.9504-10.5309 12.6696-11.2971 12.116-11.8748 11.5583-12.4605 10.8322-12.7575 9.93358-12.7575 8.95872-12.7575 8.16835-12.4847 7.55861-11.939 6.94887-11.3934 6.56771-10.6071 6.41924-9.58008Z" fill="#FFFFFF" fill-rule="nonzero" fill-opacity="1" transform="matrix(1 0 0 1.00245 566.659 719.278)"/><path d="M13.1108-2.66387C12.4248-1.75319 11.6667-1.07919 10.8321-0.641883 9.99766-0.212622 9.02683 2.28043e-16 7.92762 2.28043e-16 6.00998 2.28043e-16 4.4294-0.754218 3.17768-2.26261 1.92596-3.7791 1.3002-5.70475 1.3002-8.03956 1.3002-10.3905 1.92604-12.3161 3.17768-13.8165 4.4294-15.325 6.00998-16.0791 7.92762-16.0791 9.02683-16.0791 9.99766-15.8585 10.8321-15.4212 11.6666-14.9919 12.4248-14.318 13.1108-13.3992L13.1108-15.726 18.1657-15.726 18.1657-1.58815C18.1657 0.935219 17.3674 2.86487 15.7747 4.20482 14.178 5.54076 11.8632 6.21068 8.82635 6.21068 7.85149 6.21068 6.90471 6.13445 5.98605 5.98602 5.06334 5.83357 4.14061 5.6049 3.20993 5.29599L3.20993 1.3805C4.09653 1.88197 4.95903 2.25506 5.79348 2.50385 6.63595 2.74856 7.48641 2.87294 8.34499 2.87294 9.98986 2.87294 11.1933 2.51188 11.9556 1.79776 12.7258 1.07965 13.1109-0.0476842 13.1109-1.5882ZM9.8051-12.4525C8.76607-12.4525 7.95165-12.0674 7.36594-11.2971 6.78825-10.5349 6.4994-9.4517 6.4994-8.03956 6.4994-6.60338 6.77621-5.51218 7.33385-4.76596 7.89951-4.02779 8.72196-3.65873 9.80505-3.65873 10.8521-3.65873 11.6665-4.03584 12.2442-4.7981 12.8218-5.56836 13.1107-6.64755 13.1107-8.03956 13.1107-9.4517 12.8218-10.5349 12.2442-11.2971 11.6665-12.0674 10.8521-12.4525 9.80505-12.4525Z" fill="#FFFFFF" fill-rule="nonzero" fill-opacity="1" transform="matrix(1 0 0 1.00245 586.164 719.278)"/><path d="M9.90102-12.5172C8.78579-12.5172 7.93522-12.1161 7.34951-11.3137 6.75978-10.5113 6.46692-9.35599 6.46692-7.84751 6.46692-6.33903 6.75978-5.18364 7.34951-4.38134 7.93523-3.58701 8.78568-3.19391 9.90102-3.19391 10.9922-3.19391 11.8267-3.58706 12.4044-4.38134 12.9901-5.18369 13.287-6.33903 13.287-7.84751 13.287-9.35599 12.9901-10.5114 12.4044-11.3137 11.8267-12.116 10.9922-12.5172 9.90102-12.5172ZM9.90102-16.1118C12.6049-16.1118 14.7191-15.3777 16.2396-13.9134 17.7561-12.4571 18.5184-10.4352 18.5184-7.84761 18.5184-5.26806 17.7561-3.24608 16.2396-1.78187 14.7191-0.325563 12.6049 0.400535 9.90102 0.400535 7.18108 0.400535 5.05886-0.325594 3.53036-1.78187 1.99785-3.24618 1.2356-5.26806 1.2356-7.84761 1.2356-10.4352 1.99784-12.4572 3.53036-13.9134 5.05886-15.3777 7.18108-16.1118 9.90102-16.1118Z" fill="#FFFFFF" fill-rule="nonzero" fill-opacity="1" transform="matrix(1 0 0 1.00245 606.744 719.278)"/><path d="M14.105-11.442C13.6557-11.6425 13.2104-11.7949 12.7731-11.8913 12.3438-11.9956 11.9106-12.0517 11.4733-12.0517 10.1775-12.0517 9.18252-11.6345 8.48857-10.8001 7.79052-9.97359 7.44554-8.79416 7.44554-7.25364L7.44554-0.000359455 2.42283-0.000359455 2.42283-15.726 7.44554-15.726 7.44554-13.1425C8.08742-14.1695 8.82564-14.9156 9.65998-15.3891 10.5024-15.8704 11.5094-16.1112 12.6768-16.1112 12.8454-16.1112 13.0299-16.0991 13.2225-16.079 13.4231-16.067 13.7119-16.039 14.089-15.9988Z" fill="#FFFFFF" fill-rule="nonzero" fill-opacity="1" transform="matrix(1 0 0 1.00245 626.503 719.278)"/><path d="M19.2729-1.15539C18.2781-0.641883 17.2389-0.256753 16.1598 0 15.0887 0.264774 13.9654 0.401172 12.79 0.401172 9.29981 0.401172 6.53571-0.569674 4.4937-2.51945 2.44768-4.47714 1.42868-7.12498 1.42868-10.4628 1.42868-13.8086 2.44767-16.4563 4.4937-18.4061 6.53571-20.3638 9.29981-21.3428 12.79-21.3428 13.9654-21.3428 15.0888-21.2064 16.1598-20.9416 17.239-20.6849 18.2781-20.2997 19.2729-19.7862L19.2729-15.4535C18.2659-16.1274 17.2751-16.6249 16.3042-16.9458 15.3294-17.2668 14.3024-17.4272 13.2232-17.4272 11.2976-17.4272 9.78107-16.8053 8.68185-15.5657 7.57864-14.3341 7.02898-12.6331 7.02898-10.4627 7.02898-8.30033 7.5786-6.59939 8.68185-5.35968 9.78107-4.12809 11.2976-3.51424 13.2232-3.51424 14.3024-3.51424 15.3294-3.66669 16.3042-3.9796 17.2751-4.30054 18.266-4.80201 19.2729-5.48808Z" fill="#FFFFFF" fill-rule="nonzero" fill-opacity="1" transform="matrix(1 0 0 1.00245 650.697 719.278)"/><path d="M14.105-11.442C13.6557-11.6425 13.2104-11.7949 12.7731-11.8913 12.3438-11.9956 11.9106-12.0517 11.4733-12.0517 10.1775-12.0517 9.18252-11.6345 8.48857-10.8001 7.79052-9.97359 7.44554-8.79416 7.44554-7.25364L7.44554-0.000359455 2.42283-0.000359455 2.42283-15.726 7.44554-15.726 7.44554-13.1425C8.08742-14.1695 8.82564-14.9156 9.65998-15.3891 10.5024-15.8704 11.5094-16.1112 12.6768-16.1112 12.8454-16.1112 13.0299-16.0991 13.2225-16.079 13.4231-16.067 13.7119-16.039 14.089-15.9988Z" fill="#FFFFFF" fill-rule="nonzero" fill-opacity="1" transform="matrix(1 0 0 1.00245 671.799 719.278)"/><path d="M18.1175-7.91118 18.1175-6.467 6.35516-6.467C6.48353-5.28758 6.90878-4.40496 7.63892-3.81926 8.36505-3.22952 9.38803-2.93666 10.7039-2.93666 11.763-2.93666 12.8422-3.08911 13.9454-3.40202 15.0566-3.72296 16.196-4.19635 17.3634-4.83019L17.3634-0.962866C16.176-0.513548 14.9884-0.176564 13.8009 0.0481053 12.6135 0.280785 11.4259 0.401141 10.2384 0.401141 7.39008 0.401141 5.17553-0.320972 3.59485-1.76524 2.02229-3.20943 1.23591-5.23541 1.23591-7.84711 1.23591-10.4146 2.01018-12.4285 3.56271-13.8968 5.11124-15.3732 7.24147-16.1113 9.9495-16.1113 12.4207-16.1113 14.3985-15.361 15.8869-13.8647 17.3712-12.3763 18.1174-10.3905 18.1174-7.91119ZM12.9504-9.58008C12.9504-10.5309 12.6696-11.2971 12.116-11.8748 11.5583-12.4605 10.8322-12.7575 9.93358-12.7575 8.95872-12.7575 8.16835-12.4847 7.55861-11.939 6.94887-11.3934 6.56771-10.6071 6.41924-9.58008Z" fill="#FFFFFF" fill-rule="nonzero" fill-opacity="1" transform="matrix(1 0 0 1.00245 685.981 719.278)"/><path d="M14.6986-15.2285 14.6986-11.4093C13.6274-11.8586 12.5884-12.1956 11.5855-12.4203 10.5785-12.6449 9.63184-12.7572 8.74522-12.7572 7.79042-12.7572 7.08033-12.6369 6.61098-12.4042 6.14963-12.1675 5.92096-11.7984 5.92096-11.297 5.92096-10.8998 6.09748-10.595 6.4505-10.3823 6.80354-10.1657 7.43339-10.0052 8.34411-9.9009L9.2267-9.77252C11.8022-9.43954 13.5353-8.89796 14.4259-8.15179 15.3126-7.40159 15.7579-6.23015 15.7579-4.63746 15.7579-2.95654 15.1361-1.6928 13.8964-0.850346 12.6648-0.0158982 10.8234 0.401377 8.37624 0.401377 7.32519 0.401377 6.24601 0.321142 5.13478 0.160666 4.03156 0.000195132 2.8962-0.244521 1.7328-0.5775L1.7328-4.39676C2.72772-3.90331 3.74667-3.53423 4.79781-3.28953 5.85687-3.05284 6.93205-2.9365 8.02325-2.9365 9.00613-2.9365 9.74432-3.06889 10.2377-3.33767 10.7271-3.61448 10.9759-4.01967 10.9759-4.55725 10.9759-5.00656 10.8034-5.33553 10.4624-5.55217 10.1173-5.77682 9.43936-5.94532 8.42435-6.06567L7.54176-6.17801C5.30318-6.45482 3.73863-6.97234 2.83999-7.73455 1.94135-8.49277 1.49203-9.64417 1.49203-11.1847 1.49203-12.8536 2.05769-14.0892 3.19297-14.8916 4.33635-15.702 6.08946-16.1112 8.45641-16.1112 9.37511-16.1112 10.3419-16.035 11.3609-15.8866 12.3879-15.7461 13.4992-15.5255 14.6987-15.2285Z" fill="#FFFFFF" fill-rule="nonzero" fill-opacity="1" transform="matrix(1 0 0 1.00245 705.482 719.278)"/><path d="M18.2295-9.58008 18.2295 0 13.1746 0 13.1746-7.33349C13.1746-8.68945 13.1426-9.62825 13.0784-10.1418 13.0142-10.6553 12.9059-11.0324 12.7575-11.2811 12.5649-11.6021 12.296-11.8508 11.955-12.0354 11.6221-12.2159 11.241-12.3081 10.8157-12.3081 9.76463-12.3081 8.9422-11.899 8.34448-11.0886 7.74271-10.2862 7.44584-9.16691 7.44584-7.73474L7.44584-0.000102701 2.42313-0.000102701 2.42313-15.7257 7.44584-15.7257 7.44584-13.431C8.20407-14.3376 9.00639-15.0116 9.85296-15.453 10.7074-15.8903 11.6502-16.1109 12.6772-16.1109 14.4945-16.1109 15.8746-15.5492 16.8173-14.4259 17.7561-13.3107 18.2295-11.698 18.2295-9.57969Z" fill="#FFFFFF" fill-rule="nonzero" fill-opacity="1" transform="matrix(1 0 0 1.00245 722.601 719.278)"/><path d="M9.46783-7.07674C8.41678-7.07674 7.62639-6.90021 7.09286-6.54719 6.56732-6.19415 6.30656-5.66861 6.30656-4.97462 6.30656-4.33274 6.51918-3.82725 6.94844-3.46615 7.37369-3.11311 7.96342-2.9366 8.71367-2.9366 9.66446-2.9366 10.4628-3.27358 11.1047-3.94757 11.7546-4.62957 12.0835-5.48008 12.0835-6.49908L12.0835-7.07678ZM17.1384-8.97034 17.1384 0 12.0835 0 12.0835-2.3268C11.4096-1.372 10.6474-0.677931 9.80479-0.240732 8.95831 0.184513 7.93131 0.401151 6.72375 0.401151 5.09501 0.401151 3.77509-0.0682245 2.7601-1.01099 1.74111-1.96178 1.2356-3.1974 1.2356-4.71789 1.2356-6.55532 1.86545-7.90328 3.12921-8.76175 4.40096-9.6283 6.3948-10.0615 9.11474-10.0615L12.0834-10.0615 12.0834-10.4627C12.0834-11.2531 11.7665-11.8307 11.1366-12.1958 10.5027-12.5689 9.52392-12.7575 8.2-12.7575 7.11681-12.7575 6.11393-12.6491 5.18315-12.4365 4.26044-12.2199 3.4059-11.899 2.61562-11.4737L2.61562-15.309C3.68279-15.5657 4.75786-15.7623 5.84105-15.9027 6.93226-16.0391 8.02346-16.1113 9.11466-16.1113 11.9469-16.1113 13.9929-15.5497 15.2447-14.4263 16.5044-13.3111 17.1383-11.4937 17.1383-8.97038Z" fill="#FFFFFF" fill-rule="nonzero" fill-opacity="1" transform="matrix(1 0 0 1.00245 743.073 719.278)"/><path d="M14.105-11.442C13.6557-11.6425 13.2104-11.7949 12.7731-11.8913 12.3438-11.9956 11.9106-12.0517 11.4733-12.0517 10.1775-12.0517 9.18252-11.6345 8.48857-10.8001 7.79052-9.97359 7.44554-8.79416 7.44554-7.25364L7.44554-0.000359455 2.42283-0.000359455 2.42283-15.726 7.44554-15.726 7.44554-13.1425C8.08742-14.1695 8.82564-14.9156 9.65998-15.3891 10.5024-15.8704 11.5094-16.1112 12.6768-16.1112 12.8454-16.1112 13.0299-16.0991 13.2225-16.079 13.4231-16.067 13.7119-16.039 14.089-15.9988Z" fill="#FFFFFF" fill-rule="nonzero" fill-opacity="1" transform="matrix(1 0 0 1.00245 762.477 719.278)"/><path d="M12.7576-21.8559 12.7576-18.5501 9.98144-18.5501C9.27536-18.5501 8.77788-18.4217 8.48908-18.165 8.20826-17.9082 8.07186-17.4589 8.07186-16.817L8.07186-15.7258 12.3725-15.7258 12.3725-12.1313 8.07186-12.1313 8.07186-0.000205403 3.04915-0.000205403 3.04915-12.1313 0.545806-12.1313 0.545806-15.7258 3.04915-15.7258 3.04915-16.817C3.04915-18.5261 3.52254-19.7937 4.47731-20.6202 5.4281-21.4426 6.90846-21.8558 8.92233-21.8558Z" fill="#FFFFFF" fill-rule="nonzero" fill-opacity="1" transform="matrix(1 0 0 1.00245 341.495 748.104)"/><path d="M14.105-11.442C13.6557-11.6425 13.2104-11.7949 12.7731-11.8913 12.3438-11.9956 11.9106-12.0517 11.4733-12.0517 10.1775-12.0517 9.18252-11.6345 8.48857-10.8001 7.79052-9.97359 7.44554-8.79416 7.44554-7.25364L7.44554-0.000359455 2.42283-0.000359455 2.42283-15.726 7.44554-15.726 7.44554-13.1425C8.08742-14.1695 8.82564-14.9156 9.65998-15.3891 10.5024-15.8704 11.5094-16.1112 12.6768-16.1112 12.8454-16.1112 13.0299-16.0991 13.2225-16.079 13.4231-16.067 13.7119-16.039 14.089-15.9988Z" fill="#FFFFFF" fill-rule="nonzero" fill-opacity="1" transform="matrix(1 0 0 1.00245 354.007 748.104)"/><path d="M9.90102-12.5172C8.78579-12.5172 7.93522-12.1161 7.34951-11.3137 6.75978-10.5113 6.46692-9.35599 6.46692-7.84751 6.46692-6.33903 6.75978-5.18364 7.34951-4.38134 7.93523-3.58701 8.78568-3.19391 9.90102-3.19391 10.9922-3.19391 11.8267-3.58706 12.4044-4.38134 12.9901-5.18369 13.287-6.33903 13.287-7.84751 13.287-9.35599 12.9901-10.5114 12.4044-11.3137 11.8267-12.116 10.9922-12.5172 9.90102-12.5172ZM9.90102-16.1118C12.6049-16.1118 14.7191-15.3777 16.2396-13.9134 17.7561-12.4571 18.5184-10.4352 18.5184-7.84761 18.5184-5.26806 17.7561-3.24608 16.2396-1.78187 14.7191-0.325563 12.6049 0.400535 9.90102 0.400535 7.18108 0.400535 5.05886-0.325594 3.53036-1.78187 1.99785-3.24618 1.2356-5.26806 1.2356-7.84761 1.2356-10.4352 1.99784-12.4572 3.53036-13.9134 5.05886-15.3777 7.18108-16.1118 9.90102-16.1118Z" fill="#FFFFFF" fill-rule="nonzero" fill-opacity="1" transform="matrix(1 0 0 1.00245 368.189 748.104)"/><path d="M16.994-13.1108C17.6238-14.0817 18.3781-14.8279 19.2566-15.3414 20.1312-15.8549 21.094-16.1117 22.1451-16.1117 23.9504-16.1117 25.3264-15.55 26.2691-14.4268 27.22-13.3115 27.6973-11.6988 27.6973-9.58049L27.6973-0.000410805 22.6425-0.000410805 22.6425-8.20049 22.6425-8.56958C22.6505-8.70598 22.6585-8.89854 22.6585-9.14728 22.6585-10.2585 22.49-11.0609 22.161-11.5544 21.84-12.0559 21.3145-12.3086 20.5884-12.3086 19.6337-12.3086 18.8955-11.9114 18.374-11.1212 17.8485-10.3388 17.5797-9.20354 17.5717-7.71919L17.5717-0.000575127 12.5168-0.000575127 12.5168-8.20066C12.5168-9.94175 12.3644-11.0611 12.0675-11.5545 11.7666-12.0559 11.2331-12.3086 10.4628-12.3086 9.49997-12.3086 8.75373-11.9115 8.23222-11.1212 7.70667-10.3389 7.44592-9.21163 7.44592-7.7353L7.44592-0.000657288 2.39107-0.000657288 2.39107-15.7262 7.44592-15.7262 7.44592-13.4315C8.06373-14.3181 8.76985-14.988 9.56414-15.4373 10.3665-15.8867 11.2491-16.1114 12.2119-16.1114 13.3031-16.1114 14.2659-15.8466 15.1004-15.3251 15.9348-14.7995 16.5647-14.0613 16.994-13.1106Z" fill="#FFFFFF" fill-rule="nonzero" fill-opacity="1" transform="matrix(1 0 0 1.00245 387.943 748.104)"/><path d="M7.91118-20.187 7.91118-15.7258 13.0944-15.7258 13.0944-12.1313 7.91118-12.1313 7.91118-5.4557C7.91118-4.72555 8.0556-4.23612 8.34446-3.97937 8.63332-3.72261 9.20298-3.59424 10.0615-3.59424L12.6451-3.59424 12.6451 0.000308104 8.34446 0.000308104C6.35462 0.000308104 4.94248-0.408895 4.10803-1.23529 3.2816-2.06974 2.87243-3.47387 2.87243-5.4557L2.87243-12.1313 0.385109-12.1313 0.385109-15.7258 2.87243-15.7258 2.87243-20.187Z" fill="#FFFFFF" fill-rule="nonzero" fill-opacity="1" transform="matrix(1 0 0 1.00245 427.92 748.104)"/><path d="M18.2295-9.58008 18.2295 0 13.1746 0 13.1746-7.30145C13.1746-8.68155 13.1426-9.62825 13.0784-10.1418 13.0142-10.6553 12.9059-11.0324 12.7575-11.2811 12.5649-11.6021 12.296-11.8508 11.955-12.0354 11.6221-12.2159 11.241-12.3081 10.8157-12.3081 9.76463-12.3081 8.9422-11.899 8.34448-11.0886 7.74271-10.2862 7.44584-9.16691 7.44584-7.73474L7.44584-0.000102701 2.42313-0.000102701 2.42313-21.856 7.44584-21.856 7.44584-13.4313C8.20407-14.3379 9.00639-15.012 9.85296-15.4533 10.7074-15.8906 11.6502-16.1112 12.6772-16.1112 14.4945-16.1112 15.8746-15.5495 16.8173-14.4262 17.7561-13.311 18.2295-11.6983 18.2295-9.58Z" fill="#FFFFFF" fill-rule="nonzero" fill-opacity="1" transform="matrix(1 0 0 1.00245 441.664 748.104)"/><path d="M18.1175-7.91118 18.1175-6.467 6.35516-6.467C6.48353-5.28758 6.90878-4.40496 7.63892-3.81926 8.36505-3.22952 9.38803-2.93666 10.7039-2.93666 11.763-2.93666 12.8422-3.08911 13.9454-3.40202 15.0566-3.72296 16.196-4.19635 17.3634-4.83019L17.3634-0.962866C16.176-0.513548 14.9884-0.176564 13.8009 0.0481053 12.6135 0.280785 11.4259 0.401141 10.2384 0.401141 7.39008 0.401141 5.17553-0.320972 3.59485-1.76524 2.02229-3.20943 1.23591-5.23541 1.23591-7.84711 1.23591-10.4146 2.01018-12.4285 3.56271-13.8968 5.11124-15.3732 7.24147-16.1113 9.9495-16.1113 12.4207-16.1113 14.3985-15.361 15.8869-13.8647 17.3712-12.3763 18.1174-10.3905 18.1174-7.91119ZM12.9504-9.58008C12.9504-10.5309 12.6696-11.2971 12.116-11.8748 11.5583-12.4605 10.8322-12.7575 9.93358-12.7575 8.95872-12.7575 8.16835-12.4847 7.55861-11.939 6.94887-11.3934 6.56771-10.6071 6.41924-9.58008Z" fill="#FFFFFF" fill-rule="nonzero" fill-opacity="1" transform="matrix(1 0 0 1.00245 462.137 748.104)"/><path d="M2.64774-20.9572 8.68144-20.9572 16.3038-6.57905 16.3038-20.9572 21.4229-20.9572 21.4229 0 15.3892 0 7.76679-14.3782 7.76679 0 2.64774 0Z" fill="#FFFFFF" fill-rule="nonzero" fill-opacity="1" transform="matrix(1 0 0 1.00245 491.651 748.104)"/><path d="M9.90102-12.5172C8.78579-12.5172 7.93522-12.1161 7.34951-11.3137 6.75978-10.5113 6.46692-9.35599 6.46692-7.84751 6.46692-6.33903 6.75978-5.18364 7.34951-4.38134 7.93523-3.58701 8.78568-3.19391 9.90102-3.19391 10.9922-3.19391 11.8267-3.58706 12.4044-4.38134 12.9901-5.18369 13.287-6.33903 13.287-7.84751 13.287-9.35599 12.9901-10.5114 12.4044-11.3137 11.8267-12.116 10.9922-12.5172 9.90102-12.5172ZM9.90102-16.1118C12.6049-16.1118 14.7191-15.3777 16.2396-13.9134 17.7561-12.4571 18.5184-10.4352 18.5184-7.84761 18.5184-5.26806 17.7561-3.24608 16.2396-1.78187 14.7191-0.325563 12.6049 0.400535 9.90102 0.400535 7.18108 0.400535 5.05886-0.325594 3.53036-1.78187 1.99785-3.24618 1.2356-5.26806 1.2356-7.84761 1.2356-10.4352 1.99784-12.4572 3.53036-13.9134 5.05886-15.3777 7.18108-16.1118 9.90102-16.1118Z" fill="#FFFFFF" fill-rule="nonzero" fill-opacity="1" transform="matrix(1 0 0 1.00245 515.718 748.104)"/><path d="M2.24659-6.13003 2.24659-15.7262 7.30145-15.7262 7.30145-14.1537C7.30145-13.2952 7.29343-12.228 7.28539-10.9443 7.27337-9.66049 7.26935-8.80201 7.26935-8.37673 7.26935-7.10097 7.30145-6.18632 7.36563-5.63265 7.43784-5.07502 7.55018-4.67384 7.70262-4.4291 7.91524-4.09612 8.18805-3.83936 8.52102-3.65884 8.84999-3.48633 9.23111-3.40208 9.66039-3.40208 10.7074-3.40208 11.5299-3.80325 12.1316-4.60564 12.7293-5.40799 13.0302-6.52328 13.0302-7.95945L13.0302-15.7262 18.0529-15.7262 18.0529-0.000616208 13.0302-0.000616208 13.0302-2.27935C12.268-1.35664 11.4657-0.67865 10.6231-0.241348 9.77663 0.183897 8.84186 0.400535 7.81485 0.400535 6.00556 0.400535 4.62546-0.153087 3.67476-1.26836 2.71995-2.37959 2.24659-4.00042 2.24659-6.13065Z" fill="#FFFFFF" fill-rule="nonzero" fill-opacity="1" transform="matrix(1 0 0 1.00245 535.476 748.104)"/><path d="M18.2295-9.58008 18.2295 0 13.1746 0 13.1746-7.33349C13.1746-8.68945 13.1426-9.62825 13.0784-10.1418 13.0142-10.6553 12.9059-11.0324 12.7575-11.2811 12.5649-11.6021 12.296-11.8508 11.955-12.0354 11.6221-12.2159 11.241-12.3081 10.8157-12.3081 9.76463-12.3081 8.9422-11.899 8.34448-11.0886 7.74271-10.2862 7.44584-9.16691 7.44584-7.73474L7.44584-0.000102701 2.42313-0.000102701 2.42313-15.7257 7.44584-15.7257 7.44584-13.431C8.20407-14.3376 9.00639-15.0116 9.85296-15.453 10.7074-15.8903 11.6502-16.1109 12.6772-16.1109 14.4945-16.1109 15.8746-15.5492 16.8173-14.4259 17.7561-13.3107 18.2295-11.698 18.2295-9.57969Z" fill="#FFFFFF" fill-rule="nonzero" fill-opacity="1" transform="matrix(1 0 0 1.00245 555.947 748.104)"/><path d="M2.64774-20.9572 11.6181-20.9572C14.2819-20.9572 16.3239-20.3635 17.7481-19.176 19.1803-17.9966 19.8985-16.3115 19.8985-14.1211 19.8985-11.9267 19.1804-10.2378 17.7481-9.05024 16.324-7.86281 14.2819-7.26899 11.6181-7.26899L8.03956-7.26899 8.03956 0.000308104 2.64774 0.000308104ZM8.03956-17.0417 8.03956-11.1846 11.0404-11.1846C12.0874-11.1846 12.8938-11.4413 13.4635-11.9548 14.0412-12.4683 14.33-13.1904 14.33-14.1212 14.33-15.06 14.0412-15.7821 13.4635-16.2876 12.8938-16.7891 12.0875-17.0418 11.0404-17.0418Z" fill="#FFFFFF" fill-rule="nonzero" fill-opacity="1" transform="matrix(1 0 0 1.00245 586.429 748.104)"/><path d="M14.105-11.442C13.6557-11.6425 13.2104-11.7949 12.7731-11.8913 12.3438-11.9956 11.9106-12.0517 11.4733-12.0517 10.1775-12.0517 9.18252-11.6345 8.48857-10.8001 7.79052-9.97359 7.44554-8.79416 7.44554-7.25364L7.44554-0.000359455 2.42283-0.000359455 2.42283-15.726 7.44554-15.726 7.44554-13.1425C8.08742-14.1695 8.82564-14.9156 9.65998-15.3891 10.5024-15.8704 11.5094-16.1112 12.6768-16.1112 12.8454-16.1112 13.0299-16.0991 13.2225-16.079 13.4231-16.067 13.7119-16.039 14.089-15.9988Z" fill="#FFFFFF" fill-rule="nonzero" fill-opacity="1" transform="matrix(1 0 0 1.00245 607.507 748.104)"/><path d="M9.90102-12.5172C8.78579-12.5172 7.93522-12.1161 7.34951-11.3137 6.75978-10.5113 6.46692-9.35599 6.46692-7.84751 6.46692-6.33903 6.75978-5.18364 7.34951-4.38134 7.93523-3.58701 8.78568-3.19391 9.90102-3.19391 10.9922-3.19391 11.8267-3.58706 12.4044-4.38134 12.9901-5.18369 13.287-6.33903 13.287-7.84751 13.287-9.35599 12.9901-10.5114 12.4044-11.3137 11.8267-12.116 10.9922-12.5172 9.90102-12.5172ZM9.90102-16.1118C12.6049-16.1118 14.7191-15.3777 16.2396-13.9134 17.7561-12.4571 18.5184-10.4352 18.5184-7.84761 18.5184-5.26806 17.7561-3.24608 16.2396-1.78187 14.7191-0.325563 12.6049 0.400535 9.90102 0.400535 7.18108 0.400535 5.05886-0.325594 3.53036-1.78187 1.99785-3.24618 1.2356-5.26806 1.2356-7.84761 1.2356-10.4352 1.99784-12.4572 3.53036-13.9134 5.05886-15.3777 7.18108-16.1118 9.90102-16.1118Z" fill="#FFFFFF" fill-rule="nonzero" fill-opacity="1" transform="matrix(1 0 0 1.00245 621.684 748.104)"/><path d="M2.42313-15.7256 7.44584-15.7256 7.44584-0.288591C7.44584 1.81761 6.93635 3.42632 5.92135 4.54155 4.91439 5.65278 3.45015 6.21045 1.5245 6.21045L-0.962825 6.21045-0.962825 2.9047-0.0802303 2.9047C0.870558 2.9047 1.52448 2.68806 1.87746 2.26282 2.23852 1.83356 2.42306 0.983057 2.42306-0.288693ZM2.42313-21.8557 7.44584-21.8557 7.44584-17.7476 2.42313-17.7476Z" fill="#FFFFFF" fill-rule="nonzero" fill-opacity="1" transform="matrix(1 0 0 1.00245 641.443 748.104)"/><path d="M18.1175-7.91118 18.1175-6.467 6.35516-6.467C6.48353-5.28758 6.90878-4.40496 7.63892-3.81926 8.36505-3.22952 9.38803-2.93666 10.7039-2.93666 11.763-2.93666 12.8422-3.08911 13.9454-3.40202 15.0566-3.72296 16.196-4.19635 17.3634-4.83019L17.3634-0.962866C16.176-0.513548 14.9884-0.176564 13.8009 0.0481053 12.6135 0.280785 11.4259 0.401141 10.2384 0.401141 7.39008 0.401141 5.17553-0.320972 3.59485-1.76524 2.02229-3.20943 1.23591-5.23541 1.23591-7.84711 1.23591-10.4146 2.01018-12.4285 3.56271-13.8968 5.11124-15.3732 7.24147-16.1113 9.9495-16.1113 12.4207-16.1113 14.3985-15.361 15.8869-13.8647 17.3712-12.3763 18.1174-10.3905 18.1174-7.91119ZM12.9504-9.58008C12.9504-10.5309 12.6696-11.2971 12.116-11.8748 11.5583-12.4605 10.8322-12.7575 9.93358-12.7575 8.95872-12.7575 8.16835-12.4847 7.55861-11.939 6.94887-11.3934 6.56771-10.6071 6.41924-9.58008Z" fill="#FFFFFF" fill-rule="nonzero" fill-opacity="1" transform="matrix(1 0 0 1.00245 651.299 748.104)"/><path d="M15.1166-15.2285 15.1166-11.1365C14.4426-11.6059 13.7566-11.9549 13.0626-12.1796 12.3765-12.4042 11.6665-12.5165 10.9283-12.5165 9.52421-12.5165 8.429-12.1033 7.63872-11.2809 6.85642-10.4665 6.46731-9.32324 6.46731-7.84681 6.46731-6.37849 6.85645-5.23512 7.63872-4.41268 8.42903-3.59829 9.52421-3.19311 10.9283-3.19311 11.7066-3.19311 12.4528-3.30544 13.1589-3.53009 13.865-3.76277 14.5149-4.1118 15.1166-4.57312L15.1166-0.465073C14.3343-0.176225 13.5359 0.0363973 12.7256 0.176811 11.9232 0.325245 11.1089 0.40147 10.2865 0.40147 7.45016 0.40147 5.2316-0.324659 3.6269-1.78093 2.0302-3.23323 1.23591-5.25511 1.23591-7.84668 1.23591-10.4463 2.03024-12.4723 3.6269-13.9286 5.2316-15.3809 7.45016-16.111 10.2865-16.111 11.1089-16.111 11.9233-16.0348 12.7256-15.8862 13.5279-15.7459 14.3223-15.5253 15.1166-15.2283Z" fill="#FFFFFF" fill-rule="nonzero" fill-opacity="1" transform="matrix(1 0 0 1.00245 670.804 748.104)"/><path d="M7.91118-20.187 7.91118-15.7258 13.0944-15.7258 13.0944-12.1313 7.91118-12.1313 7.91118-5.4557C7.91118-4.72555 8.0556-4.23612 8.34446-3.97937 8.63332-3.72261 9.20298-3.59424 10.0615-3.59424L12.6451-3.59424 12.6451 0.000308104 8.34446 0.000308104C6.35462 0.000308104 4.94248-0.408895 4.10803-1.23529 3.2816-2.06974 2.87243-3.47387 2.87243-5.4557L2.87243-12.1313 0.385109-12.1313 0.385109-15.7258 2.87243-15.7258 2.87243-20.187Z" fill="#FFFFFF" fill-rule="nonzero" fill-opacity="1" transform="matrix(1 0 0 1.00245 687.846 748.104)"/></g></g></g></svg>